<svg width="200" height="200" viewBox="0 0 200 200" fill="none" xmlns="http://www.w3.org/2000/svg">
<rect width="200" height="200" rx="11" fill="#3D3F4C"/>
<path d="M73.4113 69.8573H77.555V71.61V73.0215L77.812 74.4782L77.9529 75.5784L78.1243 76.6924L78.3813 77.635L78.8955 79.3488L79.1525 80.12L79.581 80.8912L80.0094 81.7481L80.5236 82.605L81.2948 83.5476L82.1517 84.4045L83.0086 85.09L84.0368 85.6898L84.9794 86.1183L86.1791 86.6324L87.8929 87.1465L89.6924 87.4893L91.5776 87.7464C92.2059 87.8035 93.4799 87.9177 93.5484 87.9177C93.617 87.9177 94.7195 87.9749 95.2622 88.0034H107.344L109.829 87.7464L112.657 87.4036L114.628 86.7181L116.599 85.9469L117.97 85.09L119.512 83.8903L120.712 82.3479L121.912 80.377L122.597 78.2348L123.026 76.4353L123.283 75.0643L123.368 73.6075L123.54 72.1508V70.6941L123.576 69.8372H127.739V124.336H125.682H123.54V123.393L123.454 122.108V121.251L123.368 120.48L123.111 118.509L122.683 116.281L121.912 114.31L121.483 113.282L121.055 112.511L120.112 111.14L119.427 110.454L118.741 109.769L118.313 109.512L117.799 109.083L117.199 108.74L116.171 108.226L114.971 107.712L114.285 107.455L113.343 107.198L112.572 107.027L111.629 106.855L110.686 106.684L109.058 106.512L107.859 106.427L106.83 106.341H105.288H103.403H99.8038H96.1191H94.3196L92.6058 106.427L91.4919 106.512L90.4636 106.598L89.6924 106.769L89.2639 106.855L88.8355 106.941L87.6358 107.284L87.1217 107.369L86.5219 107.626L85.7506 107.883L84.9794 108.226L84.551 108.398L84.2939 108.569L83.5227 108.997L82.7515 109.512L82.3231 109.854L81.6375 110.454L81.0377 111.14L80.4379 111.911L79.9237 112.682L79.6667 113.282L79.2382 114.053L78.8098 115.338L78.467 116.452L78.1243 117.566L78.0386 118.252L77.8672 119.023L77.7815 119.709L77.6958 120.394L77.6101 120.994L77.5244 121.68V122.965V124.336H75.3822H73.4113V97.0865V69.8573Z" fill="#CDA454"/>
<path fill-rule="evenodd" clip-rule="evenodd" d="M25.5964 100.343V93.4019L25.6821 91.6024L25.7678 89.9743L25.9392 87.575L26.1105 85.6898L26.4533 83.0334L26.9674 79.5201L27.4816 77.0351L28.1671 74.036L28.7669 71.7224L29.7095 68.7232L30.9092 65.2956L32.9657 60.497L35.6221 55.3556L37.7644 51.7566L39.8209 48.7575L43.5056 44.2159L48.2185 39.1602L50.4464 37.1037L52.7601 35.1328L54.4739 33.6761L56.2734 32.3051L57.9015 31.1054L59.7009 29.8201L61.7575 28.5347L63.9854 27.1637L66.2134 25.8783L67.7558 25.1071L69.641 24.1645L71.0977 23.479L73.3256 22.5364L75.8963 21.5938L79.4096 20.3942L84.2939 19.1088L88.7498 18.1662L92.006 17.7378L94.3196 17.4807L97.8329 17.2237L104.774 17.138L108.887 17.4807L113 17.9949L118.056 18.9374L121.055 19.7943L124.225 20.7369L127.396 21.9366L130.738 23.3933L133.823 25.0214L138.021 27.335L141.963 29.9057L145.048 32.1337L149.161 35.5613L152.246 38.3033L156.102 42.1594L159.015 45.587L161.243 48.5004L164.157 52.7849L166.47 56.7267L168.784 61.4396L170.412 65.467L171.526 68.7232L172.297 71.4653L173.326 75.2356L174.183 80.0343L175.125 86.8895L175.554 96.8295L175.296 103.428L174.868 108.141L174.183 113.111L173.154 118.166L171.869 123.136L170.155 128.021L168.356 132.562L166.042 137.189L163.043 142.331L160.472 146.101L157.302 150.043L153.017 154.756L148.733 158.783L143.163 163.325L137.679 167.009L133.994 169.066L130.995 170.608L128.253 171.808L125.339 172.922L122.597 173.865L119.512 174.807L114.971 175.835L111.715 176.435L107.43 176.949L104.517 177.121L100.232 177.292L92.7772 176.949L85.922 176.093L79.9237 174.807L74.611 173.179L66.4704 169.837L62.8715 167.781L60.0437 166.067L56.1877 163.325L51.7318 159.554L47.533 155.27L44.8766 152.185L41.1919 147.301L38.2785 143.016L35.8792 138.989L34.1654 135.733L32.4516 132.048L31.509 129.392L30.4807 126.907L29.2811 123.051L28.2528 119.28L27.4816 115.424L26.539 110.968L26.1105 107.369L25.7678 103.513L25.5964 100.343ZM62.2716 146.444L60.9006 143.702L59.8723 141.645L57.9871 137.189L57.1302 134.961L56.4447 132.734L55.1594 128.449L54.3025 125.021L53.5313 121.594L53.0171 118.423L52.503 115.253L51.9889 110.883L51.5604 106.17L51.389 102.656L51.3033 99.5716V96.401V93.5733V91.6881L51.389 89.8886L51.4747 87.9177L51.6461 85.9469L51.8175 83.1191L52.1602 79.3488L52.503 76.1782L53.0171 73.0077L53.617 69.9229L54.3882 66.4953L55.2451 63.1534L56.1877 60.1542L57.0446 57.7549L57.8158 55.6984L58.844 53.2134L60.0437 50.7284L61.4147 48.1577L63.0428 45.6727L64.7566 43.102L66.6418 40.7027L68.2699 38.9032L70.7549 36.4182L71.8689 35.3042L73.0686 34.3616L74.611 33.0763L76.3248 31.8766L79.3239 30.1628L80.6093 29.3916L81.8946 28.8775L83.2656 28.2776L84.6367 27.7635L87.1217 26.9066L89.2639 26.3925L91.5776 25.8783L93.7198 25.5356L95.1765 25.3642L96.6333 25.2785H98.6898H101.175H103.06L105.545 25.4499L106.83 25.6213L109.058 25.964L110.858 26.3068L112.572 26.6495L113.857 26.9923L115.228 27.4207L116.942 28.0206L119.084 28.8775L121.226 29.9057L122.854 30.7626L123.626 31.1911L124.311 31.6195L126.196 32.9049L127.482 33.8475L128.424 34.7044L129.367 35.4756L130.309 36.4182L131.595 37.6178L133.051 39.1602L133.994 40.3599L134.68 41.2168L135.793 42.6735L136.822 44.2159L137.679 45.5013L139.135 48.072L139.821 49.3573L140.592 50.8141L141.877 53.7275L143.163 56.8123L144.02 59.126L144.962 62.0394L146.419 67.1808L147.533 72.7506L147.876 74.4644L148.047 75.8355L148.561 79.0917L149.161 84.3188L149.418 88.0891L149.675 89.8029V94.3445L149.761 97.1722L149.847 100L149.675 104.884L149.59 107.198L149.504 109.512L149.161 113.111L148.99 115.081L148.733 117.052L148.476 119.109L148.133 121.165L147.619 124.507L146.59 128.792L146.162 130.763L145.734 131.962L145.391 133.076L144.877 134.704L144.362 136.247L143.677 138.046L142.991 139.76L140.849 144.559L138.621 148.243L136.393 151.585L133.651 154.841L131.766 156.898L128.938 159.469L126.196 161.525L124.311 162.896L121.312 164.61L117.627 166.324L113.686 167.609L109.829 168.552L106.231 169.066L102.803 169.409H99.2039L96.2048 169.237L92.7772 168.895L89.521 168.295L86.6075 167.524L83.5227 166.41L79.9237 164.781L77.096 163.153L74.611 161.268L72.8972 160.069C72.126 159.354 70.6692 157.926 70.4979 157.755C70.448 157.705 70.342 157.587 70.2151 157.446L70.16 157.384L70.1596 157.384C69.9515 157.152 69.7042 156.876 69.5553 156.727L67.7558 154.756L65.8706 152.185L63.7284 148.929L62.2716 146.444Z" fill="#CDA454"/>
</svg>
