<svg width="244" height="187" viewBox="0 0 244 187" fill="none" xmlns="http://www.w3.org/2000/svg">
<g clip-path="url(#clip0_515_14)">
<path d="M86.784 185.072C72.1067 185.072 58.9653 181.488 47.36 174.32C35.7547 166.981 26.624 156.4 19.968 142.576C13.312 128.752 9.984 112.027 9.984 92.4C9.984 72.7733 13.312 56.048 19.968 42.224C26.624 28.4 35.7547 17.904 47.36 10.736C58.9653 3.39733 72.1067 -0.272003 86.784 -0.272003C101.632 -0.272003 114.773 3.39733 126.208 10.736C137.813 17.904 146.944 28.4 153.6 42.224C160.256 56.048 163.584 72.7733 163.584 92.4C163.584 112.027 160.256 128.752 153.6 142.576C146.944 156.4 137.813 166.981 126.208 174.32C114.773 181.488 101.632 185.072 86.784 185.072ZM86.784 150C93.7813 150 99.84 148.037 104.96 144.112C110.251 140.187 114.347 133.957 117.248 125.424C120.32 116.891 121.856 105.883 121.856 92.4C121.856 78.9173 120.32 67.9093 117.248 59.376C114.347 50.8427 110.251 44.6133 104.96 40.688C99.84 36.7627 93.7813 34.8 86.784 34.8C79.9573 34.8 73.8987 36.7627 68.608 40.688C63.488 44.6133 59.392 50.8427 56.32 59.376C53.4187 67.9093 51.968 78.9173 51.968 92.4C51.968 105.883 53.4187 116.891 56.32 125.424C59.392 133.957 63.488 140.187 68.608 144.112C73.8987 148.037 79.9573 150 86.784 150ZM210.382 182V18.16L228.302 36.08H174.542V2.79999H251.854V182H210.382ZM359.784 185.072C345.107 185.072 331.965 181.488 320.36 174.32C308.755 166.981 299.624 156.4 292.968 142.576C286.312 128.752 282.984 112.027 282.984 92.4C282.984 72.7733 286.312 56.048 292.968 42.224C299.624 28.4 308.755 17.904 320.36 10.736C331.965 3.39733 345.107 -0.272003 359.784 -0.272003C374.632 -0.272003 387.773 3.39733 399.208 10.736C410.813 17.904 419.944 28.4 426.6 42.224C433.256 56.048 436.584 72.7733 436.584 92.4C436.584 112.027 433.256 128.752 426.6 142.576C419.944 156.4 410.813 166.981 399.208 174.32C387.773 181.488 374.632 185.072 359.784 185.072ZM359.784 150C366.781 150 372.84 148.037 377.96 144.112C383.251 140.187 387.347 133.957 390.248 125.424C393.32 116.891 394.856 105.883 394.856 92.4C394.856 78.9173 393.32 67.9093 390.248 59.376C387.347 50.8427 383.251 44.6133 377.96 40.688C372.84 36.7627 366.781 34.8 359.784 34.8C352.957 34.8 346.899 36.7627 341.608 40.688C336.488 44.6133 332.392 50.8427 329.32 59.376C326.419 67.9093 324.968 78.9173 324.968 92.4C324.968 105.883 326.419 116.891 329.32 125.424C332.392 133.957 336.488 140.187 341.608 144.112C346.899 148.037 352.957 150 359.784 150ZM483.382 182V18.16L501.302 36.08H447.542V2.79999H524.854V182H483.382Z" fill="white"/>
</g>
<defs>
<clipPath id="clip0_515_14">
<rect width="244" height="187" fill="white"/>
</clipPath>
</defs>
</svg>
