<svg width="308" height="187" viewBox="0 0 308 187" fill="none" xmlns="http://www.w3.org/2000/svg">
<g clip-path="url(#clip0_513_10)">
<path d="M81.784 186.072C67.1067 186.072 53.9653 182.488 42.36 175.32C30.7547 167.981 21.624 157.4 14.968 143.576C8.312 129.752 4.984 113.027 4.984 93.4C4.984 73.7733 8.312 57.048 14.968 43.224C21.624 29.4 30.7547 18.904 42.36 11.736C53.9653 4.39733 67.1067 0.727997 81.784 0.727997C96.632 0.727997 109.773 4.39733 121.208 11.736C132.813 18.904 141.944 29.4 148.6 43.224C155.256 57.048 158.584 73.7733 158.584 93.4C158.584 113.027 155.256 129.752 148.6 143.576C141.944 157.4 132.813 167.981 121.208 175.32C109.773 182.488 96.632 186.072 81.784 186.072ZM81.784 151C88.7813 151 94.84 149.037 99.96 145.112C105.251 141.187 109.347 134.957 112.248 126.424C115.32 117.891 116.856 106.883 116.856 93.4C116.856 79.9173 115.32 68.9093 112.248 60.376C109.347 51.8427 105.251 45.6133 99.96 41.688C94.84 37.7627 88.7813 35.8 81.784 35.8C74.9573 35.8 68.8987 37.7627 63.608 41.688C58.488 45.6133 54.392 51.8427 51.32 60.376C48.4187 68.9093 46.968 79.9173 46.968 93.4C46.968 106.883 48.4187 117.891 51.32 126.424C54.392 134.957 58.488 141.187 63.608 145.112C68.8987 149.037 74.9573 151 81.784 151ZM176.198 183V156.12L245.318 90.84C250.779 85.8907 254.79 81.4533 257.35 77.528C259.91 73.6027 261.617 70.0187 262.47 66.776C263.494 63.5333 264.006 60.5467 264.006 57.816C264.006 50.648 261.531 45.1867 256.582 41.432C251.803 37.5067 244.721 35.544 235.334 35.544C227.825 35.544 220.827 36.9947 214.342 39.896C208.027 42.7973 202.651 47.32 198.214 53.464L168.006 34.008C174.833 23.768 184.39 15.6613 196.678 9.68799C208.966 3.71466 223.131 0.727997 239.174 0.727997C252.486 0.727997 264.091 2.94666 273.99 7.38399C284.059 11.6507 291.825 17.7093 297.286 25.56C302.918 33.4107 305.734 42.7973 305.734 53.72C305.734 59.5227 304.966 65.3253 303.43 71.128C302.065 76.76 299.163 82.7333 294.726 89.048C290.459 95.3627 284.145 102.445 275.782 110.296L218.438 164.312L210.502 149.208H311.622V183H176.198ZM405.534 186.072C390.857 186.072 377.715 182.488 366.11 175.32C354.505 167.981 345.374 157.4 338.718 143.576C332.062 129.752 328.734 113.027 328.734 93.4C328.734 73.7733 332.062 57.048 338.718 43.224C345.374 29.4 354.505 18.904 366.11 11.736C377.715 4.39733 390.857 0.727997 405.534 0.727997C420.382 0.727997 433.523 4.39733 444.958 11.736C456.563 18.904 465.694 29.4 472.35 43.224C479.006 57.048 482.334 73.7733 482.334 93.4C482.334 113.027 479.006 129.752 472.35 143.576C465.694 157.4 456.563 167.981 444.958 175.32C433.523 182.488 420.382 186.072 405.534 186.072ZM405.534 151C412.531 151 418.59 149.037 423.71 145.112C429.001 141.187 433.097 134.957 435.998 126.424C439.07 117.891 440.606 106.883 440.606 93.4C440.606 79.9173 439.07 68.9093 435.998 60.376C433.097 51.8427 429.001 45.6133 423.71 41.688C418.59 37.7627 412.531 35.8 405.534 35.8C398.707 35.8 392.649 37.7627 387.358 41.688C382.238 45.6133 378.142 51.8427 375.07 60.376C372.169 68.9093 370.718 79.9173 370.718 93.4C370.718 106.883 372.169 117.891 375.07 126.424C378.142 134.957 382.238 141.187 387.358 145.112C392.649 149.037 398.707 151 405.534 151ZM499.948 183V156.12L569.068 90.84C574.529 85.8907 578.54 81.4533 581.1 77.528C583.66 73.6027 585.367 70.0187 586.22 66.776C587.244 63.5333 587.756 60.5467 587.756 57.816C587.756 50.648 585.281 45.1867 580.332 41.432C575.553 37.5067 568.471 35.544 559.084 35.544C551.575 35.544 544.577 36.9947 538.092 39.896C531.777 42.7973 526.401 47.32 521.964 53.464L491.756 34.008C498.583 23.768 508.14 15.6613 520.428 9.68799C532.716 3.71466 546.881 0.727997 562.924 0.727997C576.236 0.727997 587.841 2.94666 597.74 7.38399C607.809 11.6507 615.575 17.7093 621.036 25.56C626.668 33.4107 629.484 42.7973 629.484 53.72C629.484 59.5227 628.716 65.3253 627.18 71.128C625.815 76.76 622.913 82.7333 618.476 89.048C614.209 95.3627 607.895 102.445 599.532 110.296L542.188 164.312L534.252 149.208H635.372V183H499.948Z" fill="white"/>
</g>
<defs>
<clipPath id="clip0_513_10">
<rect width="308" height="187" fill="white"/>
</clipPath>
</defs>
</svg>
