<svg width="305" height="187" viewBox="0 0 305 187" fill="none" xmlns="http://www.w3.org/2000/svg">
<g clip-path="url(#clip0_513_12)">
<path d="M78.784 186.072C64.1067 186.072 50.9653 182.488 39.36 175.32C27.7547 167.981 18.624 157.4 11.968 143.576C5.312 129.752 1.984 113.027 1.984 93.4C1.984 73.7733 5.312 57.048 11.968 43.224C18.624 29.4 27.7547 18.904 39.36 11.736C50.9653 4.39733 64.1067 0.727997 78.784 0.727997C93.632 0.727997 106.773 4.39733 118.208 11.736C129.813 18.904 138.944 29.4 145.6 43.224C152.256 57.048 155.584 73.7733 155.584 93.4C155.584 113.027 152.256 129.752 145.6 143.576C138.944 157.4 129.813 167.981 118.208 175.32C106.773 182.488 93.632 186.072 78.784 186.072ZM78.784 151C85.7813 151 91.84 149.037 96.96 145.112C102.251 141.187 106.347 134.957 109.248 126.424C112.32 117.891 113.856 106.883 113.856 93.4C113.856 79.9173 112.32 68.9093 109.248 60.376C106.347 51.8427 102.251 45.6133 96.96 41.688C91.84 37.7627 85.7813 35.8 78.784 35.8C71.9573 35.8 65.8987 37.7627 60.608 41.688C55.488 45.6133 51.392 51.8427 48.32 60.376C45.4187 68.9093 43.968 79.9173 43.968 93.4C43.968 106.883 45.4187 117.891 48.32 126.424C51.392 134.957 55.488 141.187 60.608 145.112C65.8987 149.037 71.9573 151 78.784 151ZM231.346 186.072C218.887 186.072 206.514 184.451 194.226 181.208C181.938 177.795 171.527 173.016 162.994 166.872L179.122 135.128C185.949 140.077 193.885 144.003 202.93 146.904C211.975 149.805 221.106 151.256 230.322 151.256C240.733 151.256 248.925 149.208 254.898 145.112C260.871 141.016 263.858 135.384 263.858 128.216C263.858 121.389 261.213 116.013 255.922 112.088C250.631 108.163 242.098 106.2 230.322 106.2H211.378V78.808L261.298 22.232L265.906 37.08H171.954V3.79999H297.394V30.68L247.73 87.256L226.738 75.224H238.77C260.786 75.224 277.426 80.1733 288.69 90.072C299.954 99.9707 305.586 112.685 305.586 128.216C305.586 138.285 302.941 147.757 297.65 156.632C292.359 165.336 284.253 172.419 273.33 177.88C262.407 183.341 248.413 186.072 231.346 186.072ZM401.534 186.072C386.857 186.072 373.715 182.488 362.11 175.32C350.505 167.981 341.374 157.4 334.718 143.576C328.062 129.752 324.734 113.027 324.734 93.4C324.734 73.7733 328.062 57.048 334.718 43.224C341.374 29.4 350.505 18.904 362.11 11.736C373.715 4.39733 386.857 0.727997 401.534 0.727997C416.382 0.727997 429.523 4.39733 440.958 11.736C452.563 18.904 461.694 29.4 468.35 43.224C475.006 57.048 478.334 73.7733 478.334 93.4C478.334 113.027 475.006 129.752 468.35 143.576C461.694 157.4 452.563 167.981 440.958 175.32C429.523 182.488 416.382 186.072 401.534 186.072ZM401.534 151C408.531 151 414.59 149.037 419.71 145.112C425.001 141.187 429.097 134.957 431.998 126.424C435.07 117.891 436.606 106.883 436.606 93.4C436.606 79.9173 435.07 68.9093 431.998 60.376C429.097 51.8427 425.001 45.6133 419.71 41.688C414.59 37.7627 408.531 35.8 401.534 35.8C394.707 35.8 388.649 37.7627 383.358 41.688C378.238 45.6133 374.142 51.8427 371.07 60.376C368.169 68.9093 366.718 79.9173 366.718 93.4C366.718 106.883 368.169 117.891 371.07 126.424C374.142 134.957 378.238 141.187 383.358 145.112C388.649 149.037 394.707 151 401.534 151ZM554.096 186.072C541.637 186.072 529.264 184.451 516.976 181.208C504.688 177.795 494.277 173.016 485.744 166.872L501.872 135.128C508.699 140.077 516.635 144.003 525.68 146.904C534.725 149.805 543.856 151.256 553.072 151.256C563.483 151.256 571.675 149.208 577.648 145.112C583.621 141.016 586.608 135.384 586.608 128.216C586.608 121.389 583.963 116.013 578.672 112.088C573.381 108.163 564.848 106.2 553.072 106.2H534.128V78.808L584.048 22.232L588.656 37.08H494.704V3.79999H620.144V30.68L570.48 87.256L549.488 75.224H561.52C583.536 75.224 600.176 80.1733 611.44 90.072C622.704 99.9707 628.336 112.685 628.336 128.216C628.336 138.285 625.691 147.757 620.4 156.632C615.109 165.336 607.003 172.419 596.08 177.88C585.157 183.341 571.163 186.072 554.096 186.072Z" fill="white"/>
</g>
<defs>
<clipPath id="clip0_513_12">
<rect width="305" height="187" fill="white"/>
</clipPath>
</defs>
</svg>
