<svg width="81" height="81" viewBox="0 0 81 81" fill="none" xmlns="http://www.w3.org/2000/svg">
<g clip-path="url(#clip0_921_71)">
<path d="M49.0185 20.25C50.8825 20.25 52.3935 18.739 52.3935 16.875V16.875C52.3935 15.011 50.8825 13.5 49.0185 13.5H18.5C15.7386 13.5 13.5 15.7386 13.5 18.5V62.5C13.5 65.2614 15.7386 67.5 18.5 67.5H62.5C65.2614 67.5 67.5 65.2614 67.5 62.5V38.2303C67.5 36.3663 65.989 34.8553 64.125 34.8553V34.8553C62.261 34.8553 60.75 36.3664 60.75 38.2303V55.75C60.75 58.5114 58.5114 60.75 55.75 60.75H25.25C22.4886 60.75 20.25 58.5114 20.25 55.75V25.25C20.25 22.4886 22.4886 20.25 25.25 20.25H49.0185Z" fill="#243F5D"/>
<path d="M44.036 37.2535C42.0834 39.2061 38.9176 39.2061 36.965 37.2535L31.074 31.3626C29.7562 30.0448 27.6196 30.0446 26.3015 31.3622V31.3622C24.9831 32.6802 24.983 34.8176 26.3013 36.1357L35.7277 45.5607C35.7279 45.5609 35.7277 45.5613 35.7274 45.5613V45.5613C35.7271 45.5613 35.7269 45.5617 35.7272 45.5619L39.1027 48.9362C39.8747 49.708 41.1262 49.7079 41.8981 48.936L45.2727 45.5613L71.5741 19.2599C72.8919 17.9421 72.8919 15.8055 71.5741 14.4877V14.4877C70.2563 13.1699 68.1197 13.1699 66.8019 14.4877L44.036 37.2535Z" fill="#243F5D"/>
</g>
<defs>
<clipPath id="clip0_921_71">
<rect width="81" height="81" fill="white"/>
</clipPath>
</defs>
</svg>
