<svg width="128" height="128" viewBox="0 0 128 128" fill="none" xmlns="http://www.w3.org/2000/svg">
<g clip-path="url(#clip0_562_10)">
<path fill-rule="evenodd" clip-rule="evenodd" d="M63.1 0C99.346 0 127.1 28.654 127.1 63.1C127.1 99.346 99.346 127.1 63.1 127.1C28.654 127.1 0 99.346 0 63.1C0 28.654 28.654 0 63.1 0Z" fill="#BEA0E5"/>
<g clip-path="url(#clip1_562_10)">
<path fill-rule="evenodd" clip-rule="evenodd" d="M85.1712 87.0103H42.8282C39.0562 87.0103 35.9922 83.9093 35.9922 80.0903V55.0723C35.9922 51.4503 38.9072 48.4883 42.4972 48.4883H51.5852L51.8022 47.5273C52.6942 43.6743 56.0432 40.9893 59.9422 40.9893H68.0472C71.9562 40.9893 75.3062 43.6743 76.1862 47.5273L76.4032 48.4883H85.5032C89.0932 48.4883 92.0082 51.4393 92.0082 55.0723V80.0903C92.0082 83.9093 88.9442 87.0103 85.1712 87.0103ZM89.1952 55.0723C89.1952 53.0013 87.5382 51.3233 85.4922 51.3233H75.2832C74.6312 51.3233 74.0712 50.8603 73.9232 50.2243L73.4542 48.1643C72.8592 45.6063 70.6422 43.8253 68.0472 43.8253H59.9422C57.3472 43.8253 55.1292 45.6063 54.5342 48.1643L54.0662 50.2243C53.9172 50.8723 53.3572 51.3233 52.7052 51.3233H42.4972C40.4502 51.3233 38.7932 53.0013 38.7932 55.0723V80.0903C38.7932 82.3473 40.5992 84.1753 42.8282 84.1753H85.1602C87.3892 84.1753 89.1952 82.3473 89.1952 80.0903V55.0723ZM63.1002 79.7323C57.5182 79.7323 52.2372 74.3973 52.2372 67.8243C52.2372 61.2513 57.5182 55.9173 63.1002 55.9173C70.4822 55.9173 75.7632 61.2633 75.7632 67.8243C75.7632 74.3853 70.4822 79.7323 63.1002 79.7323ZM63.1002 58.7523C59.0612 58.7523 55.0372 62.8253 55.0372 67.8243C55.0372 72.8233 59.0612 76.8963 63.1002 76.8963C68.9382 76.8963 72.9622 72.8233 72.9622 67.8243C72.9622 62.8253 68.9382 58.7523 63.1002 58.7523ZM45.4692 59.2733C44.4332 59.2733 43.5942 58.4233 43.5942 57.3753C43.5942 56.3273 44.4332 55.4773 45.4692 55.4773C46.5042 55.4773 47.3442 56.3273 47.3442 57.3753C47.3442 58.4233 46.5042 59.2733 45.4692 59.2733Z" fill="#EBDDFE"/>
</g>
</g>
<defs>
<clipPath id="clip0_562_10">
<rect width="128" height="128" fill="white"/>
</clipPath>
<clipPath id="clip1_562_10">
<rect width="56" height="46" fill="white" transform="translate(36 41)"/>
</clipPath>
</defs>
</svg>
