<svg width="119" height="244" viewBox="0 0 119 244" fill="none" xmlns="http://www.w3.org/2000/svg">
<path d="M67.5 7.99805C67.5 3.57977 63.9183 -0.00195312 59.5 -0.00195312C55.0817 -0.00195312 51.5 3.57977 51.5 7.99805H67.5ZM53.8431 240.785C56.9673 243.909 62.0327 243.909 65.1569 240.785L116.069 189.874C119.193 186.749 119.193 181.684 116.069 178.56C112.944 175.436 107.879 175.436 104.755 178.56L59.5 223.815L14.2452 178.56C11.121 175.436 6.05565 175.436 2.93146 178.56C-0.192737 181.684 -0.192737 186.749 2.93146 189.874L53.8431 240.785ZM51.5 7.99805L51.5 235.128H67.5L67.5 7.99805H51.5Z" fill="black"/>
</svg>
