<svg width="301" height="65" viewBox="0 0 301 65" fill="none" xmlns="http://www.w3.org/2000/svg">
<path d="M28.41 64.9C27.33 64.9 26.49 64.6 25.89 64C25.35 63.34 25.08 62.44 25.08 61.3V6.58H4.47C3.39 6.58 2.52 6.37 1.86 5.95C1.26 5.47 0.96 4.78 0.96 3.88C0.96 1.96 2.13 0.999996 4.47 0.999996H52.53C54.87 0.999996 56.04 1.96 56.04 3.88C56.04 4.72 55.74 5.38 55.14 5.86C54.54 6.34 53.67 6.58 52.53 6.58H31.92V61.3C31.92 62.44 31.59 63.34 30.93 64C30.33 64.6 29.49 64.9 28.41 64.9ZM70.3697 64.9C69.3497 64.9 68.5397 64.6 67.9397 64C67.3397 63.34 67.0397 62.44 67.0397 61.3V3.7C67.0397 2.56 67.3397 1.69 67.9397 1.08999C68.5397 0.429996 69.3497 0.0999966 70.3697 0.0999966C71.4497 0.0999966 72.2897 0.429996 72.8897 1.08999C73.4897 1.69 73.7897 2.56 73.7897 3.7V28.81H113.3V3.7C113.3 2.56 113.6 1.69 114.2 1.08999C114.8 0.429996 115.64 0.0999966 116.72 0.0999966C117.74 0.0999966 118.55 0.429996 119.15 1.08999C119.75 1.69 120.05 2.56 120.05 3.7V61.3C120.05 62.44 119.75 63.34 119.15 64C118.55 64.6 117.74 64.9 116.72 64.9C115.7 64.9 114.86 64.6 114.2 64C113.6 63.34 113.3 62.44 113.3 61.3V34.48H73.7897V61.3C73.7897 62.44 73.4897 63.34 72.8897 64C72.2897 64.6 71.4497 64.9 70.3697 64.9ZM145.976 64C142.316 64 139.466 63.04 137.426 61.12C135.386 59.2 134.366 56.5 134.366 53.02V11.8C134.366 8.44 135.356 5.8 137.336 3.88C139.376 1.96 142.196 0.999996 145.796 0.999996H173.696C176.036 0.999996 177.206 1.96 177.206 3.88C177.206 4.72 176.906 5.38 176.306 5.86C175.706 6.34 174.836 6.58 173.696 6.58H145.886C144.446 6.58 143.276 7.06 142.376 8.02C141.536 8.98 141.116 10.24 141.116 11.8V28.99H166.856C169.196 28.99 170.366 29.95 170.366 31.87C170.366 32.77 170.036 33.46 169.376 33.94C168.776 34.42 167.936 34.66 166.856 34.66H141.116V53.2C141.116 54.76 141.536 56.02 142.376 56.98C143.276 57.94 144.446 58.42 145.886 58.42H175.676C178.016 58.42 179.186 59.35 179.186 61.21C179.186 62.11 178.856 62.8 178.196 63.28C177.596 63.76 176.756 64 175.676 64H145.976ZM215.529 64.9C214.449 64.9 213.609 64.6 213.009 64C212.469 63.34 212.199 62.44 212.199 61.3V6.58H191.589C190.509 6.58 189.639 6.37 188.979 5.95C188.379 5.47 188.079 4.78 188.079 3.88C188.079 1.96 189.249 0.999996 191.589 0.999996H239.649C241.989 0.999996 243.159 1.96 243.159 3.88C243.159 4.72 242.859 5.38 242.259 5.86C241.659 6.34 240.789 6.58 239.649 6.58H219.039V61.3C219.039 62.44 218.709 63.34 218.049 64C217.449 64.6 216.609 64.9 215.529 64.9ZM252.207 64.9C251.187 64.9 250.377 64.6 249.777 64C249.177 63.34 248.877 62.44 248.877 61.3V26.11C248.877 17.95 251.157 11.59 255.717 7.03C260.337 2.41 266.727 0.0999966 274.887 0.0999966C282.987 0.0999966 289.347 2.41 293.967 7.03C298.587 11.65 300.897 18.01 300.897 26.11V61.3C300.897 62.44 300.597 63.34 299.997 64C299.397 64.6 298.557 64.9 297.477 64.9C296.457 64.9 295.617 64.6 294.957 64C294.357 63.34 294.057 62.44 294.057 61.3V41.05H255.627V61.3C255.627 62.44 255.327 63.34 254.727 64C254.127 64.6 253.287 64.9 252.207 64.9ZM294.057 35.47V25.84C294.057 19.42 292.407 14.5 289.107 11.08C285.807 7.6 281.067 5.86 274.887 5.86C268.647 5.86 263.877 7.57 260.577 10.99C257.277 14.41 255.627 19.36 255.627 25.84V35.47H294.057Z" fill="#243F5D"/>
</svg>
