<svg width="428" height="93" viewBox="0 0 428 93" fill="none" xmlns="http://www.w3.org/2000/svg">
<path d="M39.672 92.28C38.136 92.28 36.9413 91.8533 36.088 91C35.32 90.0613 34.936 88.7813 34.936 87.16V9.336H5.624C4.088 9.336 2.85067 9.03733 1.912 8.43999C1.05867 7.75733 0.632 6.77599 0.632 5.49599C0.632 2.76533 2.296 1.39999 5.624 1.39999H73.976C77.304 1.39999 78.968 2.76533 78.968 5.49599C78.968 6.69066 78.5413 7.62933 77.688 8.312C76.8347 8.99466 75.5973 9.336 73.976 9.336H44.664V87.16C44.664 88.7813 44.1947 90.0613 43.256 91C42.4027 91.8533 41.208 92.28 39.672 92.28ZM99.348 92.28C97.8973 92.28 96.7453 91.8533 95.892 91C95.0387 90.0613 94.612 88.7813 94.612 87.16V5.24C94.612 3.61867 95.0387 2.38133 95.892 1.52799C96.7453 0.589327 97.8973 0.119995 99.348 0.119995C100.884 0.119995 102.079 0.589327 102.932 1.52799C103.785 2.38133 104.212 3.61867 104.212 5.24V40.952H160.404V5.24C160.404 3.61867 160.831 2.38133 161.684 1.52799C162.537 0.589327 163.732 0.119995 165.268 0.119995C166.719 0.119995 167.871 0.589327 168.724 1.52799C169.577 2.38133 170.004 3.61867 170.004 5.24V87.16C170.004 88.7813 169.577 90.0613 168.724 91C167.871 91.8533 166.719 92.28 165.268 92.28C163.817 92.28 162.623 91.8533 161.684 91C160.831 90.0613 160.404 88.7813 160.404 87.16V49.016H104.212V87.16C104.212 88.7813 103.785 90.0613 102.932 91C102.079 91.8533 100.884 92.28 99.348 92.28ZM206.877 91C201.672 91 197.618 89.6347 194.717 86.904C191.816 84.1733 190.365 80.3333 190.365 75.384V16.76C190.365 11.9813 191.773 8.22666 194.589 5.49599C197.49 2.76533 201.501 1.39999 206.621 1.39999H246.301C249.629 1.39999 251.293 2.76533 251.293 5.49599C251.293 6.69066 250.866 7.62933 250.013 8.312C249.16 8.99466 247.922 9.336 246.301 9.336H206.749C204.701 9.336 203.037 10.0187 201.757 11.384C200.562 12.7493 199.965 14.5413 199.965 16.76V41.208H236.573C239.901 41.208 241.565 42.5733 241.565 45.304C241.565 46.584 241.096 47.5653 240.157 48.248C239.304 48.9307 238.109 49.272 236.573 49.272H199.965V75.64C199.965 77.8587 200.562 79.6507 201.757 81.016C203.037 82.3813 204.701 83.064 206.749 83.064H249.117C252.445 83.064 254.109 84.3867 254.109 87.032C254.109 88.312 253.64 89.2933 252.701 89.976C251.848 90.6587 250.653 91 249.117 91H206.877ZM305.797 92.28C304.261 92.28 303.066 91.8533 302.213 91C301.445 90.0613 301.061 88.7813 301.061 87.16V9.336H271.749C270.213 9.336 268.976 9.03733 268.037 8.43999C267.184 7.75733 266.757 6.77599 266.757 5.49599C266.757 2.76533 268.421 1.39999 271.749 1.39999H340.101C343.429 1.39999 345.093 2.76533 345.093 5.49599C345.093 6.69066 344.666 7.62933 343.813 8.312C342.96 8.99466 341.722 9.336 340.101 9.336H310.789V87.16C310.789 88.7813 310.32 90.0613 309.381 91C308.528 91.8533 307.333 92.28 305.797 92.28ZM357.961 92.28C356.51 92.28 355.358 91.8533 354.505 91C353.652 90.0613 353.225 88.7813 353.225 87.16V37.112C353.225 25.5067 356.468 16.4613 362.953 9.976C369.524 3.40533 378.612 0.119995 390.217 0.119995C401.737 0.119995 410.782 3.40533 417.353 9.976C423.924 16.5467 427.209 25.592 427.209 37.112V87.16C427.209 88.7813 426.782 90.0613 425.929 91C425.076 91.8533 423.881 92.28 422.345 92.28C420.894 92.28 419.7 91.8533 418.761 91C417.908 90.0613 417.481 88.7813 417.481 87.16V58.36H362.825V87.16C362.825 88.7813 362.398 90.0613 361.545 91C360.692 91.8533 359.497 92.28 357.961 92.28ZM417.481 50.424V36.728C417.481 27.5973 415.134 20.6 410.441 15.736C405.748 10.7867 399.006 8.312 390.217 8.312C381.342 8.312 374.558 10.744 369.865 15.608C365.172 20.472 362.825 27.512 362.825 36.728V50.424H417.481Z" fill="black"/>
</svg>
