<svg width="182" height="87" viewBox="0 0 182 87" fill="none" xmlns="http://www.w3.org/2000/svg">
<g clip-path="url(#clip0_543_6)">
<path fill-rule="evenodd" clip-rule="evenodd" d="M175.939 63.6881L173.728 58.3291H162.139L159.928 63.6881H154.008L165.134 38.6791H170.84L182.001 63.6881H175.939ZM167.951 44.3601L163.993 53.9351H171.909L167.951 44.3601ZM147.446 63.6881H141.67V43.3951H133.682V38.6791H155.434V43.3951H147.446V63.6881ZM112.571 38.6791H131.435V43.3241H118.312V48.7541H129.902V53.2561H118.312V59.0441H131.899V63.6881H112.571V38.6791ZM101.481 63.6881H95.704V43.3951H87.716V38.6791H109.468V43.3951H101.481V63.6881ZM52.924 85.5211C31.288 91.7021 8.39196 77.8961 1.78496 54.6841C-4.82204 31.4721 7.36196 7.64308 28.998 1.46208C50.633 -4.71992 73.529 9.08608 80.136 32.2991C86.743 55.5111 74.56 79.3391 52.924 85.5211ZM67.314 35.9621C61.407 15.2121 44.821 1.76108 30.266 5.92008C15.712 10.0781 8.70196 30.2701 14.608 51.0201C20.514 71.7711 37.1 85.2211 51.655 81.0631C66.209 76.9041 73.22 56.7121 67.314 35.9621ZM47.072 45.8801L37.343 48.6591C33.498 49.7581 31.225 53.7251 32.218 57.6061L32.554 58.9171C32.694 59.4691 32.371 60.0331 31.824 60.1891L30.569 60.5481L23.152 34.4921L24.408 34.1331C24.955 33.9771 25.526 34.2851 25.697 34.8281L26.102 36.1201C27.302 39.9421 31.322 42.1111 35.167 41.0121L44.895 38.2331C48.741 37.1341 51.013 33.1671 50.021 29.2861L49.685 27.9751C49.545 27.4231 49.868 26.8591 50.415 26.7031L51.669 26.3441L59.086 52.4001L57.831 52.7591C57.284 52.9151 56.713 52.6071 56.541 52.0641L56.136 50.7721C54.936 46.9501 50.917 44.7811 47.072 45.8801Z" fill="white"/>
</g>
<defs>
<clipPath id="clip0_543_6">
<rect width="182" height="87" fill="white"/>
</clipPath>
</defs>
</svg>
