<svg width="317" height="166" viewBox="0 0 317 166" fill="none" xmlns="http://www.w3.org/2000/svg">
<path d="M31.41 117.9C30.33 117.9 29.49 117.6 28.89 117C28.35 116.34 28.08 115.44 28.08 114.3V59.58H7.47C6.39 59.58 5.52 59.37 4.86 58.95C4.26 58.47 3.96 57.78 3.96 56.88C3.96 54.96 5.13 54 7.47 54H55.53C57.87 54 59.04 54.96 59.04 56.88C59.04 57.72 58.74 58.38 58.14 58.86C57.54 59.34 56.67 59.58 55.53 59.58H34.92V114.3C34.92 115.44 34.59 116.34 33.93 117C33.33 117.6 32.49 117.9 31.41 117.9ZM73.3697 117.9C72.3497 117.9 71.5397 117.6 70.9397 117C70.3397 116.34 70.0397 115.44 70.0397 114.3V56.7C70.0397 55.56 70.3397 54.69 70.9397 54.09C71.5397 53.43 72.3497 53.1 73.3697 53.1C74.4497 53.1 75.2897 53.43 75.8897 54.09C76.4897 54.69 76.7897 55.56 76.7897 56.7V81.81H116.3V56.7C116.3 55.56 116.6 54.69 117.2 54.09C117.8 53.43 118.64 53.1 119.72 53.1C120.74 53.1 121.55 53.43 122.15 54.09C122.75 54.69 123.05 55.56 123.05 56.7V114.3C123.05 115.44 122.75 116.34 122.15 117C121.55 117.6 120.74 117.9 119.72 117.9C118.7 117.9 117.86 117.6 117.2 117C116.6 116.34 116.3 115.44 116.3 114.3V87.48H76.7897V114.3C76.7897 115.44 76.4897 116.34 75.8897 117C75.2897 117.6 74.4497 117.9 73.3697 117.9ZM148.976 117C145.316 117 142.466 116.04 140.426 114.12C138.386 112.2 137.366 109.5 137.366 106.02V64.8C137.366 61.44 138.356 58.8 140.336 56.88C142.376 54.96 145.196 54 148.796 54H176.696C179.036 54 180.206 54.96 180.206 56.88C180.206 57.72 179.906 58.38 179.306 58.86C178.706 59.34 177.836 59.58 176.696 59.58H148.886C147.446 59.58 146.276 60.06 145.376 61.02C144.536 61.98 144.116 63.24 144.116 64.8V81.99H169.856C172.196 81.99 173.366 82.95 173.366 84.87C173.366 85.77 173.036 86.46 172.376 86.94C171.776 87.42 170.936 87.66 169.856 87.66H144.116V106.2C144.116 107.76 144.536 109.02 145.376 109.98C146.276 110.94 147.446 111.42 148.886 111.42H178.676C181.016 111.42 182.186 112.35 182.186 114.21C182.186 115.11 181.856 115.8 181.196 116.28C180.596 116.76 179.756 117 178.676 117H148.976ZM218.529 117.9C217.449 117.9 216.609 117.6 216.009 117C215.469 116.34 215.199 115.44 215.199 114.3V59.58H194.589C193.509 59.58 192.639 59.37 191.979 58.95C191.379 58.47 191.079 57.78 191.079 56.88C191.079 54.96 192.249 54 194.589 54H242.649C244.989 54 246.159 54.96 246.159 56.88C246.159 57.72 245.859 58.38 245.259 58.86C244.659 59.34 243.789 59.58 242.649 59.58H222.039V114.3C222.039 115.44 221.709 116.34 221.049 117C220.449 117.6 219.609 117.9 218.529 117.9ZM255.207 117.9C254.187 117.9 253.377 117.6 252.777 117C252.177 116.34 251.877 115.44 251.877 114.3V79.11C251.877 70.95 254.157 64.59 258.717 60.03C263.337 55.41 269.727 53.1 277.887 53.1C285.987 53.1 292.347 55.41 296.967 60.03C301.587 64.65 303.897 71.01 303.897 79.11V114.3C303.897 115.44 303.597 116.34 302.997 117C302.397 117.6 301.557 117.9 300.477 117.9C299.457 117.9 298.617 117.6 297.957 117C297.357 116.34 297.057 115.44 297.057 114.3V94.05H258.627V114.3C258.627 115.44 258.327 116.34 257.727 117C257.127 117.6 256.287 117.9 255.207 117.9ZM297.057 88.47V78.84C297.057 72.42 295.407 67.5 292.107 64.08C288.807 60.6 284.067 58.86 277.887 58.86C271.647 58.86 266.877 60.57 263.577 63.99C260.277 67.41 258.627 72.36 258.627 78.84V88.47H297.057Z" fill="#C1A875"/>
</svg>
