<svg width="312" height="112" viewBox="0 0 312 112" fill="none" xmlns="http://www.w3.org/2000/svg">
<rect width="312" height="112" rx="15" fill="black"/>
<path d="M50.504 92.96C49.352 92.96 48.456 92.64 47.816 92C47.24 91.296 46.952 90.336 46.952 89.12V30.752H24.968C23.816 30.752 22.888 30.528 22.184 30.08C21.544 29.568 21.224 28.832 21.224 27.872C21.224 25.824 22.472 24.8 24.968 24.8H76.232C78.728 24.8 79.976 25.824 79.976 27.872C79.976 28.768 79.656 29.472 79.016 29.984C78.376 30.496 77.448 30.752 76.232 30.752H54.248V89.12C54.248 90.336 53.896 91.296 53.192 92C52.552 92.64 51.656 92.96 50.504 92.96ZM89.2408 92.96C88.1528 92.96 87.2888 92.64 86.6488 92C86.0728 91.296 85.7848 90.336 85.7848 89.12V22.976C85.7848 21.76 86.0728 20.832 86.6488 20.192C87.2888 19.488 88.1528 19.136 89.2408 19.136C90.3288 19.136 91.1928 19.488 91.8328 20.192C92.4728 20.832 92.7928 21.76 92.7928 22.976V53.504C95.1608 50.368 98.0088 48 101.337 46.4C104.729 44.8 108.409 44 112.377 44C118.457 44 123.129 45.696 126.393 49.088C129.721 52.48 131.385 57.344 131.385 63.68V89.12C131.385 90.336 131.065 91.296 130.425 92C129.785 92.64 128.921 92.96 127.833 92.96C126.681 92.96 125.817 92.64 125.241 92C124.665 91.296 124.377 90.336 124.377 89.12V63.68C124.377 54.592 120.089 50.048 111.513 50.048C105.881 50.048 101.337 51.712 97.8808 55.04C94.4888 58.368 92.7928 62.784 92.7928 68.288V89.12C92.7928 90.272 92.4728 91.2 91.8328 91.904C91.2568 92.608 90.3928 92.96 89.2408 92.96ZM167.896 92.96C159.576 92.96 153.144 90.816 148.6 86.528C144.056 82.24 141.784 76.16 141.784 68.288C141.784 60.736 144.088 54.816 148.696 50.528C153.304 46.176 159.608 44 167.608 44C172.536 44 176.92 44.8 180.76 46.4C184.6 47.936 187.576 50.144 189.688 53.024C191.864 55.84 192.952 59.072 192.952 62.72C192.952 65.408 192.184 67.488 190.648 68.96C189.176 70.432 187.128 71.168 184.504 71.168H148.984C148.984 76.096 150.648 79.968 153.976 82.784C157.304 85.536 161.944 86.912 167.896 86.912C171.544 86.912 174.68 86.528 177.304 85.76C179.928 84.928 182.392 83.616 184.696 81.824C185.912 80.8 186.904 80.288 187.672 80.288C188.248 80.288 188.792 80.544 189.304 81.056C190.2 81.824 190.648 82.624 190.648 83.456C190.648 84.096 190.264 84.8 189.496 85.568C186.872 88.064 183.8 89.92 180.28 91.136C176.76 92.352 172.632 92.96 167.896 92.96ZM182.392 65.504C183.544 65.504 184.408 65.28 184.984 64.832C185.56 64.32 185.848 63.424 185.848 62.144C185.848 59.84 185.08 57.76 183.544 55.904C182.008 54.048 179.832 52.608 177.016 51.584C174.264 50.56 171.128 50.048 167.608 50.048C161.912 50.048 157.4 51.456 154.072 54.272C150.808 57.024 149.176 60.768 149.176 65.504H182.392ZM233.44 82.496C234.144 83.072 234.496 83.744 234.496 84.512C234.496 85.152 234.208 85.92 233.632 86.816C232.288 88.672 230.432 90.176 228.064 91.328C225.696 92.416 223.264 92.96 220.768 92.96C216.544 92.96 213.216 91.712 210.784 89.216C208.352 86.72 207.136 83.296 207.136 78.944V50.816H201.952C199.392 50.816 198.112 49.824 198.112 47.84C198.112 46.944 198.432 46.24 199.072 45.728C199.776 45.216 200.736 44.96 201.952 44.96H207.136V28.544C207.136 27.328 207.424 26.4 208 25.76C208.64 25.056 209.536 24.704 210.688 24.704C211.776 24.704 212.608 25.056 213.184 25.76C213.824 26.4 214.144 27.328 214.144 28.544V44.96H227.2C228.352 44.96 229.248 45.216 229.888 45.728C230.592 46.176 230.944 46.88 230.944 47.84C230.944 49.824 229.696 50.816 227.2 50.816H214.144V79.52C214.144 84.448 216.448 86.912 221.056 86.912C222.528 86.912 223.872 86.624 225.088 86.048C226.304 85.472 227.52 84.544 228.736 83.264C229.696 82.24 230.624 81.728 231.52 81.728C232.096 81.728 232.736 81.984 233.44 82.496ZM262.351 92.96C256.079 92.96 251.151 91.584 247.567 88.832C244.047 86.08 242.287 82.272 242.287 77.408C242.287 72.608 244.143 68.8 247.855 65.984C251.631 63.168 256.751 61.76 263.215 61.76C266.991 61.76 270.319 62.272 273.199 63.296C276.143 64.32 278.415 65.696 280.015 67.424V61.28C280.015 57.632 278.799 54.848 276.367 52.928C273.999 51.008 270.511 50.048 265.903 50.048C259.951 50.048 254.799 51.456 250.447 54.272C249.359 54.912 248.463 55.232 247.759 55.232C247.119 55.232 246.479 54.976 245.839 54.464C245.135 53.888 244.783 53.152 244.783 52.256C244.783 51.296 245.199 50.496 246.031 49.856C248.335 48.064 251.247 46.656 254.767 45.632C258.351 44.544 261.999 44 265.711 44C272.495 44 277.743 45.536 281.455 48.608C285.231 51.68 287.119 56 287.119 61.568V89.216C287.119 91.712 285.967 92.96 283.663 92.96C282.639 92.96 281.807 92.64 281.167 92C280.527 91.296 280.207 90.4 280.207 89.312V85.856C276.239 90.592 270.287 92.96 262.351 92.96ZM263.215 87.104C268.207 87.104 272.271 86.176 275.407 84.32C278.543 82.4 280.111 79.936 280.111 76.928C280.111 73.92 278.639 71.616 275.695 70.016C272.815 68.352 268.719 67.52 263.406 67.52C258.927 67.52 255.471 68.384 253.039 70.112C250.607 71.776 249.391 74.208 249.391 77.408C249.391 80.544 250.575 82.944 252.943 84.608C255.311 86.272 258.735 87.104 263.215 87.104Z" fill="white"/>
</svg>
