<svg width="182" height="87" viewBox="0 0 182 87" fill="none" xmlns="http://www.w3.org/2000/svg">
<g clip-path="url(#clip0_496_12)">
<path fill-rule="evenodd" clip-rule="evenodd" d="M175.938 63.6881L173.727 58.3291H162.138L159.927 63.6881H154.007L165.133 38.6791H170.839L182 63.6881H175.938ZM167.95 44.3601L163.992 53.9351H171.908L167.95 44.3601ZM147.445 63.6881H141.669V43.3951H133.681V38.6791H155.433V43.3951H147.445V63.6881ZM112.57 38.6791H131.434V43.3241H118.311V48.7541H129.901V53.2561H118.311V59.0441H131.898V63.6881H112.57V38.6791ZM101.48 63.6881H95.703V43.3951H87.715V38.6791H109.467V43.3951H101.48V63.6881ZM52.923 85.5211C31.287 91.7021 8.39098 77.8961 1.78398 54.6841C-4.82302 31.4721 7.36098 7.64308 28.997 1.46208C50.632 -4.71992 73.528 9.08608 80.135 32.2991C86.742 55.5111 74.559 79.3391 52.923 85.5211ZM67.313 35.9621C61.406 15.2121 44.82 1.76108 30.265 5.92008C15.711 10.0781 8.70098 30.2701 14.607 51.0201C20.513 71.7711 37.099 85.2211 51.654 81.0631C66.208 76.9041 73.219 56.7121 67.313 35.9621ZM47.071 45.8801L37.342 48.6591C33.497 49.7581 31.224 53.7251 32.217 57.6061L32.553 58.9171C32.693 59.4691 32.37 60.0331 31.823 60.1891L30.568 60.5481L23.151 34.4921L24.407 34.1331C24.954 33.9771 25.525 34.2851 25.696 34.8281L26.101 36.1201C27.301 39.9421 31.321 42.1111 35.166 41.0121L44.894 38.2331C48.74 37.1341 51.012 33.1671 50.02 29.2861L49.684 27.9751C49.544 27.4231 49.867 26.8591 50.414 26.7031L51.668 26.3441L59.085 52.4001L57.83 52.7591C57.283 52.9151 56.712 52.6071 56.54 52.0641L56.135 50.7721C54.935 46.9501 50.916 44.7811 47.071 45.8801Z" fill="white"/>
</g>
<defs>
<clipPath id="clip0_496_12">
<rect width="182" height="87" fill="white"/>
</clipPath>
</defs>
</svg>
