<svg width="652" height="166" viewBox="0 0 652 166" fill="none" xmlns="http://www.w3.org/2000/svg">
<path d="M44.672 132.28C43.136 132.28 41.9413 131.853 41.088 131C40.32 130.061 39.936 128.781 39.936 127.16V49.336H10.624C9.088 49.336 7.85067 49.0373 6.912 48.44C6.05867 47.7573 5.632 46.776 5.632 45.496C5.632 42.7653 7.296 41.4 10.624 41.4H78.976C82.304 41.4 83.968 42.7653 83.968 45.496C83.968 46.6907 83.5413 47.6293 82.688 48.312C81.8347 48.9947 80.5973 49.336 78.976 49.336H49.664V127.16C49.664 128.781 49.1947 130.061 48.256 131C47.4027 131.853 46.208 132.28 44.672 132.28ZM104.348 132.28C102.897 132.28 101.745 131.853 100.892 131C100.039 130.061 99.612 128.781 99.612 127.16V45.24C99.612 43.6187 100.039 42.3813 100.892 41.528C101.745 40.5893 102.897 40.12 104.348 40.12C105.884 40.12 107.079 40.5893 107.932 41.528C108.785 42.3813 109.212 43.6187 109.212 45.24V80.952H165.404V45.24C165.404 43.6187 165.831 42.3813 166.684 41.528C167.537 40.5893 168.732 40.12 170.268 40.12C171.719 40.12 172.871 40.5893 173.724 41.528C174.577 42.3813 175.004 43.6187 175.004 45.24V127.16C175.004 128.781 174.577 130.061 173.724 131C172.871 131.853 171.719 132.28 170.268 132.28C168.817 132.28 167.623 131.853 166.684 131C165.831 130.061 165.404 128.781 165.404 127.16V89.016H109.212V127.16C109.212 128.781 108.785 130.061 107.932 131C107.079 131.853 105.884 132.28 104.348 132.28ZM211.877 131C206.672 131 202.618 129.635 199.717 126.904C196.816 124.173 195.365 120.333 195.365 115.384V56.76C195.365 51.9813 196.773 48.2267 199.589 45.496C202.49 42.7653 206.501 41.4 211.621 41.4H251.301C254.629 41.4 256.293 42.7653 256.293 45.496C256.293 46.6907 255.866 47.6293 255.013 48.312C254.16 48.9947 252.922 49.336 251.301 49.336H211.749C209.701 49.336 208.037 50.0187 206.757 51.384C205.562 52.7493 204.965 54.5413 204.965 56.76V81.208H241.573C244.901 81.208 246.565 82.5733 246.565 85.304C246.565 86.584 246.096 87.5653 245.157 88.248C244.304 88.9307 243.109 89.272 241.573 89.272H204.965V115.64C204.965 117.859 205.562 119.651 206.757 121.016C208.037 122.381 209.701 123.064 211.749 123.064H254.117C257.445 123.064 259.109 124.387 259.109 127.032C259.109 128.312 258.64 129.293 257.701 129.976C256.848 130.659 255.653 131 254.117 131H211.877ZM310.797 132.28C309.261 132.28 308.066 131.853 307.213 131C306.445 130.061 306.061 128.781 306.061 127.16V49.336H276.749C275.213 49.336 273.976 49.0373 273.037 48.44C272.184 47.7573 271.757 46.776 271.757 45.496C271.757 42.7653 273.421 41.4 276.749 41.4H345.101C348.429 41.4 350.093 42.7653 350.093 45.496C350.093 46.6907 349.666 47.6293 348.813 48.312C347.96 48.9947 346.722 49.336 345.101 49.336H315.789V127.16C315.789 128.781 315.32 130.061 314.381 131C313.528 131.853 312.333 132.28 310.797 132.28ZM362.961 132.28C361.51 132.28 360.358 131.853 359.505 131C358.652 130.061 358.225 128.781 358.225 127.16V77.112C358.225 65.5067 361.468 56.4613 367.953 49.976C374.524 43.4053 383.612 40.12 395.217 40.12C406.737 40.12 415.782 43.4053 422.353 49.976C428.924 56.5467 432.209 65.592 432.209 77.112V127.16C432.209 128.781 431.782 130.061 430.929 131C430.076 131.853 428.881 132.28 427.345 132.28C425.894 132.28 424.7 131.853 423.761 131C422.908 130.061 422.481 128.781 422.481 127.16V98.36H367.825V127.16C367.825 128.781 367.398 130.061 366.545 131C365.692 131.853 364.497 132.28 362.961 132.28ZM422.481 90.424V76.728C422.481 67.5973 420.134 60.6 415.441 55.736C410.748 50.7867 404.006 48.312 395.217 48.312C386.342 48.312 379.558 50.744 374.865 55.608C370.172 60.472 367.825 67.512 367.825 76.728V90.424H422.481Z" fill="#C1A875"/>
<rect x="467.5" y="72.5" width="183" height="57" rx="28.5" stroke="#C1A875" stroke-width="3"/>
<path d="M503.656 117.5C503.089 117.5 502.639 117.333 502.306 117C502.006 116.633 501.856 116.133 501.856 115.5V81.05C501.856 80.4167 502.006 79.9333 502.306 79.6C502.639 79.2333 503.089 79.05 503.656 79.05C504.222 79.05 504.672 79.2333 505.006 79.6C505.339 79.9333 505.506 80.4167 505.506 81.05V115.5C505.506 116.1 505.339 116.583 505.006 116.95C504.706 117.317 504.256 117.5 503.656 117.5ZM525.8 117.5C521.466 117.5 518.116 116.383 515.75 114.15C513.383 111.917 512.2 108.75 512.2 104.65C512.2 100.717 513.4 97.6333 515.8 95.4C518.2 93.1333 521.483 92 525.65 92C528.216 92 530.5 92.4167 532.5 93.25C534.5 94.05 536.05 95.2 537.15 96.7C538.283 98.1667 538.85 99.85 538.85 101.75C538.85 103.15 538.45 104.233 537.65 105C536.883 105.767 535.816 106.15 534.45 106.15H515.95C515.95 108.717 516.816 110.733 518.55 112.2C520.283 113.633 522.7 114.35 525.8 114.35C527.7 114.35 529.333 114.15 530.7 113.75C532.066 113.317 533.35 112.633 534.55 111.7C535.183 111.167 535.7 110.9 536.1 110.9C536.4 110.9 536.683 111.033 536.95 111.3C537.416 111.7 537.65 112.117 537.65 112.55C537.65 112.883 537.45 113.25 537.05 113.65C535.683 114.95 534.083 115.917 532.25 116.55C530.416 117.183 528.266 117.5 525.8 117.5ZM533.35 103.2C533.95 103.2 534.4 103.083 534.7 102.85C535 102.583 535.15 102.117 535.15 101.45C535.15 100.25 534.75 99.1667 533.95 98.2C533.15 97.2333 532.016 96.4833 530.55 95.95C529.116 95.4167 527.483 95.15 525.65 95.15C522.683 95.15 520.333 95.8833 518.6 97.35C516.9 98.7833 516.05 100.733 516.05 103.2H533.35ZM552.387 117.5C549.121 117.5 546.554 116.783 544.687 115.35C542.854 113.917 541.937 111.933 541.937 109.4C541.937 106.9 542.904 104.917 544.837 103.45C546.804 101.983 549.471 101.25 552.837 101.25C554.804 101.25 556.537 101.517 558.037 102.05C559.571 102.583 560.754 103.3 561.587 104.2V101C561.587 99.1 560.954 97.65 559.687 96.65C558.454 95.65 556.637 95.15 554.237 95.15C551.137 95.15 548.454 95.8833 546.187 97.35C545.621 97.6833 545.154 97.85 544.787 97.85C544.454 97.85 544.121 97.7167 543.787 97.45C543.421 97.15 543.237 96.7667 543.237 96.3C543.237 95.8 543.454 95.3833 543.887 95.05C545.087 94.1167 546.604 93.3833 548.437 92.85C550.304 92.2833 552.204 92 554.137 92C557.671 92 560.404 92.8 562.337 94.4C564.304 96 565.287 98.25 565.287 101.15V115.55C565.287 116.85 564.687 117.5 563.487 117.5C562.954 117.5 562.521 117.333 562.187 117C561.854 116.633 561.687 116.167 561.687 115.6V113.8C559.621 116.267 556.521 117.5 552.387 117.5ZM552.837 114.45C555.437 114.45 557.554 113.967 559.187 113C560.821 112 561.637 110.717 561.637 109.15C561.637 107.583 560.871 106.383 559.337 105.55C557.837 104.683 555.704 104.25 552.937 104.25C550.604 104.25 548.804 104.7 547.537 105.6C546.271 106.467 545.637 107.733 545.637 109.4C545.637 111.033 546.254 112.283 547.487 113.15C548.721 114.017 550.504 114.45 552.837 114.45ZM573.896 117.5C573.329 117.5 572.879 117.333 572.546 117C572.246 116.633 572.096 116.133 572.096 115.5V94C572.096 93.3667 572.246 92.8833 572.546 92.55C572.846 92.1833 573.296 92 573.896 92C574.463 92 574.896 92.1833 575.196 92.55C575.529 92.8833 575.696 93.3667 575.696 94V97C577.963 94 581.096 92.5 585.096 92.5H586.346C586.979 92.5 587.479 92.65 587.846 92.95C588.213 93.2167 588.396 93.6 588.396 94.1C588.396 94.6 588.213 94.9833 587.846 95.25C587.479 95.5167 586.979 95.65 586.346 95.65H584.946C582.113 95.65 579.863 96.4667 578.196 98.1C576.563 99.7 575.746 101.883 575.746 104.65V115.5C575.746 116.1 575.579 116.583 575.246 116.95C574.946 117.317 574.496 117.5 573.896 117.5ZM595.478 117.5C594.911 117.5 594.461 117.333 594.128 117C593.828 116.633 593.678 116.133 593.678 115.5V94C593.678 93.3667 593.828 92.8833 594.128 92.55C594.428 92.1833 594.878 92 595.478 92C596.045 92 596.478 92.1833 596.778 92.55C597.111 92.8833 597.278 93.3667 597.278 94V96.95C598.511 95.3167 599.995 94.0833 601.728 93.25C603.495 92.4167 605.428 92 607.528 92C610.695 92 613.128 92.8833 614.828 94.65C616.561 96.4167 617.428 98.95 617.428 102.25V115.5C617.428 116.133 617.261 116.633 616.928 117C616.595 117.333 616.145 117.5 615.578 117.5C614.978 117.5 614.528 117.333 614.228 117C613.928 116.633 613.778 116.133 613.778 115.5V102.25C613.778 97.5167 611.545 95.15 607.078 95.15C604.145 95.15 601.778 96.0167 599.978 97.75C598.211 99.4833 597.328 101.783 597.328 104.65V115.5C597.328 116.1 597.161 116.583 596.828 116.95C596.528 117.317 596.078 117.5 595.478 117.5Z" fill="#C1A875"/>
</svg>
