<svg width="13" height="14" viewBox="0 0 13 14" fill="none" xmlns="http://www.w3.org/2000/svg">
<g clip-path="url(#clip0_587_11)">
<path fill-rule="evenodd" clip-rule="evenodd" d="M12.1907 13.9987H1.55069C1.13869 13.9987 0.804688 13.6707 0.804688 13.2657V12.5757C0.804688 10.2757 2.23069 8.29866 4.25869 7.44966C3.50769 6.75966 3.02969 5.78566 3.02969 4.69866C3.02969 2.62066 4.75269 0.930664 6.87069 0.930664C8.98869 0.930664 10.7117 2.62066 10.7117 4.69866C10.7117 5.78566 10.2337 6.75966 9.48269 7.44966C11.5107 8.29866 12.9367 10.2757 12.9367 12.5757V13.2657C12.9367 13.6707 12.6027 13.9987 12.1907 13.9987ZM6.87069 2.39766C5.57569 2.39766 4.52269 3.42966 4.52269 4.69866C4.52269 5.97066 5.57569 7.00666 6.87069 7.00666C8.16569 7.00666 9.21869 5.97066 9.21869 4.69866C9.21869 3.42966 8.16569 2.39766 6.87069 2.39766ZM7.26969 8.47266H6.47169C4.18469 8.47266 2.32169 10.2897 2.29769 12.5327H11.4437C11.4207 10.2897 9.55669 8.47266 7.26969 8.47266Z" fill="#BEA0E5"/>
</g>
<defs>
<clipPath id="clip0_587_11">
<rect width="13" height="14" fill="white"/>
</clipPath>
</defs>
</svg>
