<svg width="265" height="244" viewBox="0 0 265 244" fill="none" xmlns="http://www.w3.org/2000/svg">
<path fill-rule="evenodd" clip-rule="evenodd" d="M20 0H244.344C255.39 0 264.344 8.954 264.344 19.1V223.656C264.344 234.702 255.39 243.656 244.344 243.656H20C8.954 243.656 0 234.702 0 223.656V19.1C0 8.954 8.954 0 20 0Z" fill="#E3C7FF"/>
<g clip-path="url(#clip0_176_6)">
<path fill-rule="evenodd" clip-rule="evenodd" d="M181.009 173.602H84.9908C76.4368 173.602 69.4888 166.647 69.4888 158.084V101.979C69.4888 93.8569 76.0998 87.2129 84.2388 87.2129H104.848L105.34 85.0599C107.362 76.4179 114.958 70.3979 123.797 70.3979H142.177C151.042 70.3979 158.638 76.4179 160.633 85.0599L161.126 87.2129H181.761C189.9 87.2129 196.511 93.8309 196.511 101.979V158.084C196.511 166.647 189.563 173.602 181.009 173.602ZM190.134 101.979C190.134 97.3339 186.375 93.5709 181.735 93.5709H158.586C157.108 93.5709 155.838 92.5329 155.501 91.1059L154.438 86.4869C153.09 80.7519 148.061 76.7559 142.177 76.7559H123.797C117.913 76.7559 112.884 80.7519 111.536 86.4869L110.473 91.1059C110.136 92.5589 108.866 93.5709 107.388 93.5709H84.2388C79.5988 93.5709 75.8398 97.3339 75.8398 101.979V158.084C75.8398 163.144 79.9358 167.244 84.9908 167.244H180.983C186.038 167.244 190.134 163.144 190.134 158.084V101.979ZM132.1 157.279C118.302 157.279 106.326 145.316 106.326 130.576C106.326 115.837 118.302 103.874 132.1 103.874C147.698 103.874 159.674 115.863 159.674 130.576C159.674 145.29 147.698 157.279 132.1 157.279ZM132.1 110.231C121.801 110.231 112.677 119.366 112.677 130.576C112.677 141.787 121.801 150.921 132.1 150.921C144.198 150.921 153.323 141.787 153.323 130.576C153.323 119.366 144.198 110.231 132.1 110.231ZM90.9788 111.399C88.6308 111.399 86.7278 109.494 86.7278 107.143C86.7278 104.793 88.6308 102.887 90.9788 102.887C93.3268 102.887 95.2308 104.793 95.2308 107.143C95.2308 109.494 93.3268 111.399 90.9788 111.399Z" fill="white"/>
</g>
<defs>
<clipPath id="clip0_176_6">
<rect width="128" height="104" fill="white" transform="translate(69 70)"/>
</clipPath>
</defs>
</svg>
