<svg width="22" height="23" viewBox="0 0 22 23" fill="none" xmlns="http://www.w3.org/2000/svg">
<g clip-path="url(#clip0_519_2)">
<path fill-rule="evenodd" clip-rule="evenodd" d="M20.2666 23.006H1.73359C1.01559 23.006 0.433594 22.431 0.433594 21.723V20.516C0.433594 16.496 2.91659 13.037 6.44959 11.553C5.14059 10.348 4.30959 8.64503 4.30959 6.74403C4.30959 3.11103 7.31059 0.155029 10.9996 0.155029C14.6886 0.155029 17.6896 3.11103 17.6896 6.74403C17.6896 8.64503 16.8586 10.348 15.5506 11.553C19.0826 13.037 21.5656 16.496 21.5656 20.516V21.723C21.5656 22.431 20.9836 23.006 20.2666 23.006ZM10.9996 2.72003C8.74459 2.72003 6.90959 4.52503 6.90959 6.74403C6.90959 8.96903 8.74459 10.779 10.9996 10.779C13.2556 10.779 15.0906 8.96903 15.0906 6.74403C15.0906 4.52503 13.2556 2.72003 10.9996 2.72003ZM11.6946 13.343H10.3046C6.32059 13.343 3.07459 16.52 3.03359 20.441H18.9656C18.9246 16.52 15.6786 13.343 11.6946 13.343Z" fill="white"/>
</g>
<defs>
<clipPath id="clip0_519_2">
<rect width="22" height="23" fill="white"/>
</clipPath>
</defs>
</svg>
