<svg width="135" height="238" viewBox="0 0 135 238" fill="none" xmlns="http://www.w3.org/2000/svg">
<path d="M47.5455 170.545V169.182C47.697 154.712 49.2121 143.197 52.0909 134.636C54.9697 126.076 59.0606 119.144 64.3636 113.841C69.6667 108.538 76.0303 103.652 83.4545 99.1818C87.9242 96.4545 91.9394 93.2348 95.5 89.5227C99.0606 85.7348 101.864 81.3788 103.909 76.4545C106.03 71.5303 107.091 66.0758 107.091 60.0909C107.091 52.6667 105.348 46.2273 101.864 40.7727C98.3788 35.3182 93.7197 31.1136 87.8864 28.1591C82.053 25.2045 75.5758 23.7273 68.4545 23.7273C62.2424 23.7273 56.2576 25.0151 50.5 27.5909C44.7424 30.1667 39.9318 34.2197 36.0682 39.75C32.2045 45.2803 29.9697 52.5151 29.3636 61.4545H0.727273C1.33333 48.5758 4.66667 37.553 10.7273 28.3864C16.8636 19.2197 24.9318 12.2121 34.9318 7.36362C45.0076 2.51514 56.1818 0.0909004 68.4545 0.0909004C81.7879 0.0909004 93.3788 2.74241 103.227 8.04544C113.152 13.3485 120.803 20.6212 126.182 29.8636C131.636 39.106 134.364 49.6364 134.364 61.4545C134.364 69.7879 133.076 77.3258 130.5 84.0682C128 90.8106 124.364 96.8333 119.591 102.136C114.894 107.439 109.212 112.136 102.545 116.227C95.8788 120.394 90.5379 124.788 86.5227 129.409C82.5076 133.955 79.5909 139.371 77.7727 145.659C75.9545 151.947 74.9697 159.788 74.8182 169.182V170.545H47.5455ZM62.0909 237.818C56.4848 237.818 51.6742 235.811 47.6591 231.795C43.6439 227.78 41.6364 222.97 41.6364 217.364C41.6364 211.758 43.6439 206.947 47.6591 202.932C51.6742 198.917 56.4848 196.909 62.0909 196.909C67.697 196.909 72.5076 198.917 76.5227 202.932C80.5379 206.947 82.5455 211.758 82.5455 217.364C82.5455 221.076 81.5985 224.485 79.7045 227.591C77.8864 230.697 75.4242 233.197 72.3182 235.091C69.2879 236.909 65.8788 237.818 62.0909 237.818Z" fill="#6F31C1"/>
</svg>
