<svg width="14" height="13" viewBox="0 0 14 13" fill="none" xmlns="http://www.w3.org/2000/svg">
<g clip-path="url(#clip0_587_9)">
<path fill-rule="evenodd" clip-rule="evenodd" d="M10.8752 12.996C10.7572 12.996 10.6392 12.968 10.5312 12.913L7.00315 11.114L3.47615 12.913C3.22715 13.04 2.92515 13.019 2.69715 12.859C2.47015 12.698 2.35615 12.426 2.40315 12.157L3.07715 8.34602L0.223151 5.64602C0.0221505 5.45502 -0.0508495 5.17102 0.0361505 4.91102C0.123151 4.65202 0.354151 4.46202 0.633151 4.42302L4.57715 3.86702L6.34115 0.399023C6.46515 0.154023 6.72215 -0.000976562 7.00315 -0.000976562C7.28515 -0.000976562 7.54115 0.154023 7.66615 0.399023L9.43015 3.86702L13.3742 4.42302C13.6522 4.46202 13.8832 4.65202 13.9702 4.91102C14.0572 5.17102 13.9852 5.45502 13.7832 5.64602L10.9302 8.34602L11.6032 12.157C11.6512 12.426 11.5372 12.698 11.3092 12.859C11.1802 12.949 11.0282 12.996 10.8752 12.996ZM7.00315 9.58602C7.12215 9.58602 7.24015 9.61402 7.34715 9.66902L9.89315 10.968L9.40715 8.21602C9.36615 7.98402 9.44615 7.74602 9.62015 7.58102L11.6792 5.63302L8.83315 5.23202C8.59215 5.19802 8.38415 5.05102 8.27615 4.84002L7.00315 2.33602L5.73015 4.84002C5.62215 5.05102 5.41515 5.19802 5.17415 5.23202L2.32715 5.63302L4.38715 7.58102C4.56115 7.74602 4.64115 7.98402 4.60015 8.21602L4.11315 10.968L6.65915 9.66902C6.76715 9.61402 6.88515 9.58602 7.00315 9.58602Z" fill="#BEA0E5"/>
</g>
<defs>
<clipPath id="clip0_587_9">
<rect width="14" height="13" fill="white"/>
</clipPath>
</defs>
</svg>
