<svg width="14" height="13" viewBox="0 0 14 13" fill="none" xmlns="http://www.w3.org/2000/svg">
<g clip-path="url(#clip0_587_13)">
<path fill-rule="evenodd" clip-rule="evenodd" d="M6.958 12.1C3.397 12.1 0.5 10.103 0.5 6.54201C0.5 2.98001 3.397 0.0830078 6.958 0.0830078C10.519 0.0830078 13.417 2.98001 13.417 6.54201C13.417 10.103 10.519 12.1 6.958 12.1ZM6.958 1.37501C4.109 1.37501 1.792 3.69301 1.792 6.54201C1.792 9.39001 4.109 11.708 6.958 11.708C9.807 11.708 12.125 9.39001 12.125 6.54201C12.125 3.69301 9.807 1.37501 6.958 1.37501ZM8.851 6.63301L7.304 7.61501C7.199 7.68201 7.079 7.71601 6.958 7.71601C6.851 7.71601 6.744 7.68901 6.647 7.63601C6.441 7.52301 6.312 7.30601 6.312 7.07001V3.42201C6.312 3.06601 6.602 2.77701 6.958 2.77701C7.315 2.77701 7.604 3.06601 7.604 3.42201V5.89501L8.158 5.54301C8.459 5.35101 8.858 5.44001 9.049 5.74101C9.241 6.04201 9.152 6.44201 8.851 6.63301Z" fill="#BEA0E5"/>
</g>
<defs>
<clipPath id="clip0_587_13">
<rect width="14" height="13" fill="white"/>
</clipPath>
</defs>
</svg>
