<svg width="187" height="188" viewBox="0 0 187 188" fill="none" xmlns="http://www.w3.org/2000/svg">
<path fill-rule="evenodd" clip-rule="evenodd" d="M56.8169 105.477V83.5567H59.6371L73.043 101.198V83.5567H75.7238V105.477H72.9036L59.4982 87.6624V105.477H56.8169ZM97.556 104.608C95.7803 105.268 93.8651 105.617 91.8455 105.617C83.9066 105.617 79.9374 101.824 79.9374 94.2041C79.9374 87.0012 83.7672 83.3828 91.4277 83.3828C93.6212 83.3828 95.6758 83.6961 97.556 84.2874V86.7233C95.6758 85.9926 93.7257 85.6443 91.7411 85.6443C85.7523 85.6443 82.7577 88.4976 82.7577 94.1341C82.7577 100.224 85.7173 103.251 91.6017 103.251C92.5417 103.251 93.5868 103.111 94.7357 102.868V95.526H97.556V104.608ZM102.082 97.0224V83.5567H104.903V97.0224C104.903 101.233 106.992 103.355 111.205 103.355C115.384 103.355 117.508 101.233 117.508 97.0224V83.5567H120.328V97.0224C120.328 102.763 117.299 105.651 111.205 105.651C105.112 105.651 102.082 102.763 102.082 97.0224ZM128.198 83.5567V103.181H139.688V105.477H125.377V83.5567H128.198ZM143.762 105.477H140.802L151.7 80.6689L162.599 105.477H159.465L156.645 98.5882H149.403L150.169 96.2917H155.705L151.596 86.375L143.762 105.477ZM165.629 105.477V83.5567H174.995C179.174 83.5567 181.263 85.2965 181.263 88.8109C181.263 91.6637 179.208 93.7863 175.134 95.1432L182.655 105.477H178.93L171.966 95.6305V93.7863C176.144 93.1251 178.268 91.5248 178.268 88.9499C178.268 86.9317 177.119 85.9227 174.786 85.9227H168.518V105.477H165.629Z" fill="#B52E31"/>
<mask id="mask0_201_232" style="mask-type:luminance" maskUnits="userSpaceOnUse" x="4" y="69" width="46" height="49">
<path d="M4.33521 69.71H49.9797V117.935H4.33521V69.71Z" fill="white"/>
</mask>
<g mask="url(#mask0_201_232)">
<path fill-rule="evenodd" clip-rule="evenodd" d="M4.37866 77.7125L26.837 69.71L49.8881 77.5736L46.1623 107.253L26.837 117.935L7.82561 107.392L4.37866 77.7125Z" fill="#E23237"/>
</g>
<mask id="mask1_201_232" style="mask-type:luminance" maskUnits="userSpaceOnUse" x="26" y="69" width="24" height="49">
<path d="M26.7205 69.71H49.978V117.935H26.7205V69.71Z" fill="white"/>
</mask>
<g mask="url(#mask1_201_232)">
<path fill-rule="evenodd" clip-rule="evenodd" d="M49.8865 77.5736L26.8354 69.71V117.935L46.1607 107.253L49.8865 77.5736Z" fill="#B52E31"/>
</g>
<path fill-rule="evenodd" clip-rule="evenodd" d="M26.8722 75.3447L12.8745 106.451L18.0976 106.347L20.9179 99.3184H33.4182L36.4823 106.416L41.4616 106.521L26.8722 75.3447ZM26.9072 85.3309L31.6425 95.2126H22.7635L26.9072 85.3309Z" fill="white"/>
</svg>
