<svg width="50" height="50" viewBox="0 0 50 50" fill="none" xmlns="http://www.w3.org/2000/svg">
<path fill-rule="evenodd" clip-rule="evenodd" d="M15.1919 28.053V22.2231H15.946L19.5304 26.9149V22.2231H20.2472V28.053H19.4932L15.9088 23.3151V28.053H15.1919ZM26.0847 27.8219C25.6099 27.9974 25.0978 28.0902 24.5578 28.0902C22.4351 28.0902 21.3738 27.0814 21.3738 25.0549C21.3738 23.1392 22.3979 22.1769 24.4461 22.1769C25.0326 22.1769 25.582 22.2602 26.0847 22.4174V23.0653C25.582 22.871 25.0606 22.7783 24.5299 22.7783C22.9286 22.7783 22.1279 23.5372 22.1279 25.0362C22.1279 26.6559 22.9193 27.461 24.4926 27.461C24.744 27.461 25.0234 27.4237 25.3306 27.3591V25.4064H26.0847V27.8219ZM27.2949 25.8044V22.2231H28.0491V25.8044C28.0491 26.9243 28.6077 27.4886 29.7342 27.4886C30.8515 27.4886 31.4195 26.9243 31.4195 25.8044V22.2231H32.1735V25.8044C32.1735 27.3312 31.3636 28.0993 29.7342 28.0993C28.105 28.0993 27.2949 27.3312 27.2949 25.8044ZM34.2778 22.2231V27.4423H37.3499V28.053H33.5235V22.2231H34.2778ZM38.4392 28.053H37.6478L40.5617 21.4551L43.4759 28.053H42.6379L41.8839 26.2209H39.9475L40.1524 25.6101H41.6326L40.5339 22.9727L38.4392 28.053ZM44.286 28.053V22.2231H46.7903C47.9077 22.2231 48.4663 22.6858 48.4663 23.6205C48.4663 24.3792 47.9168 24.9437 46.8275 25.3046L48.8384 28.053H47.8425L45.9804 25.4342V24.9437C47.0975 24.7679 47.6655 24.3423 47.6655 23.6575C47.6655 23.1207 47.3582 22.8524 46.7344 22.8524H45.0585V28.053H44.286Z" fill="#B52E31"/>
<mask id="mask0_693_206" style="mask-type:luminance" maskUnits="userSpaceOnUse" x="1" y="18" width="13" height="14">
<path d="M1.15918 18.5391H13.3636V31.3649H1.15918V18.5391Z" fill="white"/>
</mask>
<g mask="url(#mask0_693_206)">
<path fill-rule="evenodd" clip-rule="evenodd" d="M1.1709 20.6674L7.1758 18.5391L13.3392 20.6304L12.343 28.5239L7.1758 31.3649L2.09254 28.5609L1.1709 20.6674Z" fill="#E23237"/>
</g>
<mask id="mask1_693_206" style="mask-type:luminance" maskUnits="userSpaceOnUse" x="7" y="18" width="7" height="14">
<path d="M7.14453 18.5391H13.3631V31.3649H7.14453V18.5391Z" fill="white"/>
</mask>
<g mask="url(#mask1_693_206)">
<path fill-rule="evenodd" clip-rule="evenodd" d="M13.3387 20.6304L7.17529 18.5391V31.3649L12.3425 28.5239L13.3387 20.6304Z" fill="#B52E31"/>
</g>
<path fill-rule="evenodd" clip-rule="evenodd" d="M7.18508 20.0391L3.44238 28.312L4.83893 28.2844L5.59302 26.415H8.93535L9.75463 28.3027L11.086 28.3306L7.18508 20.0391ZM7.19444 22.695L8.46056 25.3231H6.0865L7.19444 22.695Z" fill="white"/>
</svg>
