<svg width="50" height="50" viewBox="0 0 50 50" fill="none" xmlns="http://www.w3.org/2000/svg">
<mask id="mask0_693_187" style="mask-type:luminance" maskUnits="userSpaceOnUse" x="17" y="12" width="16" height="16">
<path d="M17.4541 12.6719H32.0862V27.3313H17.4541V12.6719Z" fill="white"/>
</mask>
<g mask="url(#mask0_693_187)">
<mask id="mask1_693_187" style="mask-type:luminance" maskUnits="userSpaceOnUse" x="17" y="12" width="16" height="16">
<path d="M19.8312 12.6543H29.711C29.7495 12.6543 29.788 12.6552 29.8265 12.6571C29.865 12.6591 29.9035 12.6619 29.942 12.6657C29.9803 12.6695 30.0188 12.6742 30.0567 12.6799C30.095 12.6855 30.1329 12.6921 30.1706 12.6996C30.2086 12.7072 30.2463 12.7156 30.2837 12.7249C30.3212 12.7344 30.3583 12.7447 30.3952 12.7559C30.4321 12.7671 30.4688 12.7791 30.5051 12.7922C30.5415 12.8052 30.5776 12.8191 30.6132 12.8338C30.6487 12.8486 30.684 12.8642 30.7188 12.8807C30.7538 12.8972 30.7883 12.9146 30.8222 12.9328C30.8562 12.951 30.8899 12.9699 30.9228 12.9898C30.9559 13.0097 30.9886 13.0303 31.0206 13.0518C31.0527 13.0732 31.0843 13.0954 31.1153 13.1184C31.1463 13.1414 31.1768 13.1652 31.2065 13.1896C31.2364 13.2142 31.2656 13.2394 31.2942 13.2653C31.3228 13.2912 31.3506 13.3178 31.3779 13.3451C31.4051 13.3724 31.4319 13.4003 31.4578 13.4289C31.4837 13.4576 31.5089 13.4868 31.5332 13.5166C31.5578 13.5464 31.5816 13.5768 31.6046 13.6079C31.6276 13.6388 31.6498 13.6704 31.6712 13.7025C31.6926 13.7345 31.7131 13.7671 31.7332 13.8003C31.7527 13.8334 31.772 13.867 31.7902 13.9011C31.8083 13.9351 31.8255 13.9695 31.842 14.0045C31.8586 14.0393 31.8744 14.0746 31.8891 14.1102C31.9038 14.1459 31.9177 14.1819 31.9305 14.2183C31.9436 14.2546 31.9557 14.2913 31.9669 14.3282C31.9781 14.3651 31.9886 14.4023 31.9979 14.4398C32.0073 14.4772 32.0156 14.5149 32.023 14.5526C32.0308 14.5906 32.0372 14.6285 32.0428 14.6667C32.0487 14.7049 32.0533 14.7432 32.0573 14.7817C32.061 14.8201 32.0637 14.8586 32.0656 14.8972C32.0677 14.9356 32.0685 14.9742 32.0685 15.0127V24.9566C32.0685 24.9952 32.0677 25.0338 32.0656 25.0724C32.0637 25.111 32.061 25.1494 32.0573 25.1879C32.0533 25.2263 32.0487 25.2645 32.0428 25.3027C32.0372 25.3409 32.0308 25.3789 32.023 25.4167C32.0156 25.4547 32.0073 25.4923 31.9979 25.5298C31.9886 25.5672 31.9781 25.6043 31.9669 25.6413C31.9557 25.6782 31.9436 25.7149 31.9305 25.7512C31.9177 25.7876 31.9038 25.8236 31.8891 25.8592C31.8744 25.8949 31.8586 25.9301 31.842 25.965C31.8255 26 31.8083 26.0344 31.7902 26.0684C31.772 26.1025 31.7527 26.1361 31.7332 26.1691C31.7131 26.2022 31.6926 26.2349 31.6712 26.2669C31.6498 26.299 31.6276 26.3306 31.6046 26.3616C31.5816 26.3927 31.5578 26.4231 31.5332 26.453C31.5089 26.4827 31.4837 26.5119 31.4578 26.5405C31.4319 26.5692 31.4051 26.5971 31.3779 26.6244C31.3506 26.6517 31.3228 26.6783 31.2942 26.7042C31.2656 26.7302 31.2364 26.7553 31.2065 26.7797C31.1768 26.8043 31.1463 26.8281 31.1153 26.8511C31.0843 26.8741 31.0527 26.8962 31.0206 26.9176C30.9886 26.9393 30.9559 26.9599 30.9228 26.9797C30.8899 26.9995 30.8562 27.0184 30.8222 27.0366C30.7883 27.0548 30.7538 27.0722 30.7188 27.0888C30.684 27.1051 30.6487 27.1208 30.6132 27.1356C30.5776 27.1503 30.5415 27.1642 30.5051 27.1773C30.4688 27.1904 30.4321 27.2024 30.3952 27.2136C30.3583 27.2249 30.3212 27.235 30.2837 27.2444C30.2463 27.254 30.2086 27.2623 30.1706 27.2698C30.1329 27.2775 30.095 27.2839 30.0567 27.2896C30.0188 27.2954 29.9803 27.3 29.9418 27.3037C29.9035 27.3075 29.865 27.3104 29.8265 27.3123C29.788 27.3142 29.7495 27.3152 29.711 27.3152H19.8312C19.7926 27.3152 19.7541 27.3142 19.7156 27.3123C19.677 27.3104 19.6386 27.3075 19.6001 27.3037C19.5618 27.3 19.5235 27.2954 19.4853 27.2896C19.4471 27.2839 19.4092 27.2775 19.3712 27.2698C19.3334 27.2623 19.2958 27.254 19.2583 27.2444C19.2209 27.235 19.1838 27.2249 19.1469 27.2136C19.1099 27.2024 19.0734 27.1904 19.037 27.1773C19.0006 27.1642 18.9646 27.1503 18.9291 27.1358C18.8933 27.1208 18.8581 27.1053 18.8232 27.0888C18.7884 27.0722 18.754 27.0548 18.7199 27.0366C18.6859 27.0184 18.6522 26.9995 18.6191 26.9797C18.5861 26.9599 18.5535 26.9393 18.5214 26.9176C18.4893 26.8962 18.4578 26.8741 18.4269 26.8511C18.3958 26.8281 18.3654 26.8043 18.3355 26.7797C18.3058 26.7553 18.2765 26.7302 18.248 26.7042C18.2194 26.6783 18.1915 26.6517 18.1642 26.6244C18.1369 26.5971 18.1103 26.5692 18.0843 26.5405C18.0584 26.5119 18.0333 26.4827 18.0088 26.453C17.9843 26.4231 17.9605 26.3927 17.9375 26.3616C17.9145 26.3306 17.8925 26.299 17.8709 26.2669C17.8494 26.2349 17.8289 26.2022 17.8091 26.1691C17.7892 26.1361 17.7702 26.1025 17.752 26.0684C17.7338 26.0344 17.7164 26 17.6999 25.965C17.6834 25.9301 17.6679 25.8949 17.653 25.8592C17.6384 25.8236 17.6245 25.7876 17.6115 25.7512C17.5985 25.7149 17.5864 25.6782 17.5751 25.6413C17.5639 25.6043 17.5537 25.5672 17.5443 25.5298C17.535 25.4923 17.5264 25.4547 17.519 25.4167C17.5114 25.3789 17.5048 25.3409 17.4991 25.3027C17.4935 25.2645 17.4887 25.2263 17.4849 25.1879C17.4812 25.1494 17.4783 25.111 17.4765 25.0724C17.4745 25.0338 17.4736 24.9952 17.4736 24.9566V15.0127C17.4736 14.9742 17.4745 14.9356 17.4765 14.8972C17.4783 14.8586 17.4812 14.8201 17.4849 14.7817C17.4887 14.7432 17.4935 14.7049 17.4991 14.6667C17.5048 14.6285 17.5114 14.5906 17.519 14.5526C17.5264 14.5149 17.535 14.4772 17.5443 14.4398C17.5537 14.4023 17.5639 14.3651 17.5751 14.3282C17.5864 14.2913 17.5985 14.2546 17.6115 14.2183C17.6245 14.1819 17.6384 14.1459 17.653 14.1102C17.6679 14.0746 17.6834 14.0393 17.6999 14.0045C17.7164 13.9695 17.7338 13.9351 17.752 13.9011C17.7702 13.867 17.7892 13.8334 17.8091 13.8003C17.8289 13.7671 17.8494 13.7345 17.871 13.7025C17.8925 13.6704 17.9146 13.6388 17.9375 13.6079C17.9605 13.5768 17.9843 13.5464 18.0088 13.5166C18.0333 13.4868 18.0584 13.4576 18.0843 13.4289C18.1103 13.4003 18.1369 13.3724 18.1642 13.3451C18.1915 13.3178 18.2194 13.2912 18.248 13.2653C18.2765 13.2394 18.3058 13.2142 18.3355 13.1896C18.3654 13.1652 18.3958 13.1414 18.4269 13.1184C18.4578 13.0954 18.4893 13.0732 18.5214 13.0518C18.5535 13.0303 18.5861 13.0097 18.6191 12.9898C18.6522 12.9699 18.6859 12.951 18.7199 12.9328C18.754 12.9146 18.7884 12.8972 18.8232 12.8807C18.8581 12.8642 18.8933 12.8486 18.9291 12.8338C18.9646 12.8191 19.0006 12.8052 19.037 12.7921C19.0734 12.7791 19.1099 12.7671 19.1469 12.7559C19.1838 12.7447 19.2209 12.7344 19.2583 12.7249C19.2958 12.7156 19.3334 12.7072 19.3712 12.6996C19.4092 12.6921 19.4471 12.6855 19.4853 12.6799C19.5235 12.6742 19.5618 12.6695 19.6001 12.6657C19.6386 12.6619 19.677 12.6591 19.7156 12.6571C19.7541 12.6552 19.7926 12.6543 19.8312 12.6543Z" fill="white"/>
</mask>
<g mask="url(#mask1_693_187)">
<path d="M17.4736 12.6719V27.3161H32.0683V12.6719H17.4736Z" fill="url(#paint0_linear_693_187)"/>
</g>
</g>
<path d="M24.8807 18.9646C25.2536 18.9646 25.5361 18.8847 25.7286 18.7213C25.9212 18.5579 26.0174 18.3199 26.0174 18.0036C26.0174 17.6913 25.9212 17.4541 25.7286 17.292C25.5348 17.1257 25.2534 17.0426 24.8807 17.0426H23.572V18.9647L24.8807 18.9646ZM24.9606 22.9367C25.4357 22.9367 25.792 22.8374 26.0296 22.6387C26.2713 22.4399 26.3921 22.1399 26.3921 21.7385C26.3921 21.345 26.2734 21.051 26.0358 20.8566C25.7982 20.6578 25.4398 20.5585 24.9607 20.5585H23.5721V22.9369H24.9607M27.1601 19.6706C27.6681 19.8165 28.0612 20.0863 28.3398 20.4795C28.6184 20.8727 28.7574 21.3554 28.7577 21.9272C28.7577 22.8032 28.4585 23.456 27.8606 23.8859C27.2628 24.3157 26.3536 24.5306 25.1329 24.5306H21.207V15.4512H24.7582C26.032 15.4512 26.9534 15.6417 27.5227 16.023C28.0962 16.4041 28.3831 17.0145 28.3831 17.8539C28.3831 18.296 28.2786 18.673 28.0697 18.9852C27.8609 19.2934 27.5566 19.5212 27.1604 19.6725" fill="white"/>
<path d="M4.30043 32.1917V34.6585H5.76142C6.25089 34.6585 6.61383 34.5577 6.8483 34.3564C7.08562 34.1518 7.20383 33.8403 7.20383 33.4232C7.20383 33.0074 7.08522 32.6925 6.8483 32.4938C6.61383 32.2925 6.2518 32.1917 5.76142 32.1917H4.30043ZM4.30043 29.4221V31.4524H5.6488C6.09383 31.4524 6.42442 31.3692 6.64059 31.2042C6.85985 31.0355 6.96974 30.7802 6.96974 30.4374C6.96974 30.0973 6.85985 29.8433 6.64059 29.6751C6.42118 29.5072 6.09346 29.4224 5.6488 29.4224L4.30043 29.4221ZM3.38944 28.6743H5.71661C6.41105 28.6743 6.94624 28.8187 7.32204 29.1074C7.69797 29.3962 7.88541 29.8069 7.88541 30.339C7.88541 30.751 7.78942 31.0791 7.59677 31.3229C7.40426 31.5668 7.12121 31.7184 6.74904 31.7783C7.19696 31.8743 7.54418 32.0762 7.79073 32.3788C8.04014 32.6828 8.16017 33.0625 8.16017 33.5197C8.16017 34.1211 7.95557 34.5858 7.5469 34.9139C7.13838 35.2419 6.55653 35.4053 5.80156 35.4053H3.38477V28.6719" fill="#484C89"/>
<path d="M11.5951 30.9379C11.5439 30.9362 11.4929 30.9376 11.4419 30.9421C11.3909 30.9469 11.3404 30.9547 11.2904 30.9654C11.2404 30.9764 11.1911 30.9903 11.1428 31.0071C11.0945 31.0239 11.0475 31.0437 11.0016 31.0665C10.9558 31.0892 10.9115 31.1149 10.8687 31.1432C10.826 31.1713 10.7852 31.202 10.7464 31.2354C10.7074 31.2686 10.6706 31.3042 10.6362 31.3419C10.6016 31.3798 10.5696 31.4194 10.54 31.4614C10.2815 31.8079 10.1521 32.2822 10.1521 32.8868C10.1521 33.4913 10.28 33.9675 10.5354 34.317C10.7939 34.6635 11.1472 34.8357 11.5951 34.8357C11.6461 34.8373 11.697 34.8357 11.7478 34.8312C11.7986 34.8264 11.8488 34.8186 11.8987 34.8076C11.9485 34.7969 11.9976 34.7828 12.0456 34.7659C12.0937 34.7491 12.1406 34.7293 12.1863 34.7066C12.2319 34.6838 12.2761 34.6582 12.3185 34.6301C12.361 34.6018 12.4017 34.5713 12.4404 34.5379C12.4791 34.5047 12.5156 34.4691 12.5499 34.4314C12.5842 34.3937 12.6162 34.3539 12.6455 34.3122C12.9041 33.9635 13.0334 33.4881 13.0334 32.8868C13.0334 32.2881 12.9041 31.8151 12.6455 31.4659C12.387 31.1141 12.0369 30.9379 11.5951 30.9379ZM11.5951 30.2344C12.3164 30.2344 12.8879 30.4691 13.2953 30.9379C13.7025 31.4068 13.9131 32.0568 13.9131 32.8873C13.9131 33.7178 13.707 34.3641 13.2953 34.8365C12.8834 35.3058 12.3164 35.54 11.5951 35.54C10.8702 35.54 10.3022 35.3055 9.8867 34.8365C9.47801 34.3646 9.27344 33.7149 9.27344 32.8873C9.27344 32.0571 9.47801 31.4076 9.8867 30.9379C10.2985 30.4686 10.8664 30.2344 11.5951 30.2344Z" fill="#484C89"/>
<path d="M17.1946 30.9379C17.1434 30.9362 17.0924 30.9376 17.0415 30.9421C16.9904 30.9469 16.9399 30.9547 16.8899 30.9654C16.8399 30.9764 16.7908 30.9903 16.7424 31.0071C16.6941 31.0239 16.647 31.0437 16.6011 31.0665C16.5553 31.0892 16.511 31.1149 16.4683 31.1432C16.4256 31.1713 16.3848 31.202 16.3459 31.2354C16.307 31.2686 16.2702 31.3042 16.2357 31.3419C16.2013 31.3798 16.1692 31.4194 16.1396 31.4614C15.8809 31.8079 15.7517 32.2822 15.7517 32.8868C15.7517 33.4913 15.8797 33.9675 16.1349 34.317C16.3935 34.6635 16.7467 34.8357 17.1946 34.8357C17.2457 34.8373 17.2965 34.8357 17.3472 34.8312C17.398 34.8264 17.4484 34.8186 17.4982 34.8076C17.5481 34.7969 17.5971 34.7828 17.6451 34.7659C17.6933 34.7491 17.7402 34.7293 17.7858 34.7066C17.8315 34.6838 17.8756 34.6582 17.918 34.6301C17.9606 34.6018 18.0012 34.5713 18.0399 34.5379C18.0786 34.5047 18.1152 34.4691 18.1495 34.4314C18.1838 34.3937 18.2156 34.3539 18.2451 34.3122C18.5036 33.9635 18.633 33.4881 18.633 32.8868C18.633 32.2881 18.5036 31.8151 18.2451 31.4659C17.9865 31.1141 17.6365 30.9379 17.1946 30.9379ZM17.1946 30.2344C17.9158 30.2344 18.4875 30.4691 18.8948 30.9379C19.302 31.4068 19.5126 32.0568 19.5126 32.8873C19.5126 33.7178 19.3067 34.3641 18.8948 34.8365C18.4828 35.3058 17.9158 35.54 17.1946 35.54C16.4697 35.54 15.9017 35.3055 15.4862 34.8365C15.0775 34.3646 14.873 33.7149 14.873 32.8873C14.873 32.0571 15.0775 31.4076 15.4862 30.9379C15.8981 30.4686 16.466 30.2344 17.1946 30.2344Z" fill="#484C89"/>
<mask id="mask2_693_187" style="mask-type:luminance" maskUnits="userSpaceOnUse" x="20" y="28" width="27" height="10">
<path d="M20.1816 28.8926H46.6523V37.3367H20.1816V28.8926Z" fill="white"/>
</mask>
<g mask="url(#mask2_693_187)">
<path d="M21.6584 28.9205V30.3547H23.3669V30.9996H21.6584V33.7424C21.6584 34.1544 21.7139 34.4191 21.8247 34.537C21.9387 34.6544 22.1687 34.7124 22.5146 34.7124H23.3669V35.4071H22.5141C21.8737 35.4071 21.4317 35.2884 21.1888 35.0515C20.9455 34.8114 20.8195 34.3747 20.8195 33.7432V30.9996H20.2109V30.3547H20.8195V28.9215H21.6539M27.6316 30.5044V31.2897C27.3989 31.1699 27.1556 31.0798 26.9011 31.0189C26.6486 30.959 26.3872 30.9287 26.1161 30.9287C25.7043 30.9287 25.3945 30.9921 25.1872 31.1135C24.9826 31.2397 24.8805 31.4295 24.8805 31.6817C24.8805 31.8745 24.9544 32.0258 25.1021 32.1373C25.2499 32.2453 25.5454 32.3496 25.9906 32.4485L26.2746 32.5119C26.8636 32.6381 27.2813 32.8167 27.5281 33.0485C27.7775 33.2771 27.8976 33.5975 27.8976 34.0095C27.8992 34.0635 27.8976 34.1175 27.8925 34.1713C27.8874 34.225 27.8791 34.2785 27.8676 34.3311C27.8562 34.3841 27.8414 34.436 27.8235 34.487C27.8053 34.5381 27.7845 34.5876 27.7604 34.6362C27.7364 34.6846 27.7094 34.7314 27.6797 34.7763C27.6497 34.8215 27.6171 34.8646 27.5821 34.9057C27.5471 34.9467 27.5094 34.9854 27.4695 35.0218C27.4294 35.0584 27.3874 35.0924 27.3433 35.1237C26.9741 35.3969 26.4644 35.5392 25.8197 35.5392C25.5491 35.5392 25.2666 35.5116 24.9719 35.4579C24.6802 35.4119 24.3717 35.3285 24.0476 35.2234V34.3664C24.3541 34.5258 24.6562 34.6459 24.9539 34.7269C25.2434 34.8041 25.538 34.8432 25.8377 34.844C26.2283 34.844 26.5289 34.7782 26.7396 34.6453C26.95 34.51 27.0553 34.3207 27.0553 34.0771C27.0553 33.852 26.9786 33.6787 26.8254 33.5587C26.6748 33.4386 26.3429 33.3277 25.8289 33.2111L25.5404 33.1437C25.0265 33.0357 24.6552 32.8705 24.4266 32.6477C24.1981 32.4223 24.0841 32.1138 24.0841 31.7229C24.0841 31.2472 24.2525 30.8809 24.5891 30.6221C24.9258 30.3635 25.4037 30.2341 26.0228 30.2341C26.3133 30.2328 26.6019 30.2552 26.8885 30.3015C27.1452 30.3426 27.3949 30.4103 27.6372 30.5044M30.0072 28.9199V30.3541H31.7158V30.9991H30.0072V33.7421C30.0072 34.1541 30.0628 34.4186 30.1735 34.5365C30.2877 34.6539 30.5174 34.7119 30.8634 34.7119H31.7166V35.4066H30.8642C30.2238 35.4066 29.7818 35.2881 29.539 35.0509C29.2957 34.8108 29.1698 34.3745 29.1698 33.7429V30.9991H28.561V30.3541H29.1698V28.9215H30.0083M35.6877 31.1317C35.5917 31.0763 35.4896 31.0373 35.381 31.0143C35.2626 30.9857 35.1425 30.9721 35.0209 30.9737C34.5516 30.9737 34.1912 31.1271 33.9385 31.4338C33.689 31.7376 33.5693 32.1753 33.5693 32.7467V35.4082H32.7348V30.3547H33.5693V31.14C33.7436 30.8333 33.9709 30.606 34.2503 30.4587C34.5297 30.3082 34.869 30.2333 35.2693 30.2333C35.3326 30.2336 35.3957 30.2381 35.4586 30.2467L35.6885 30.2779L35.693 31.1306M38.8211 32.8675C38.1505 32.8675 37.6861 32.9443 37.4275 33.0975C37.169 33.2509 37.0396 33.5124 37.0396 33.8828C37.0396 34.1777 37.1356 34.4122 37.3281 34.5862C37.5235 34.7574 37.788 34.8437 38.1225 34.8437C38.5824 34.8437 38.9508 34.6812 39.2273 34.3563C39.5067 34.033 39.6465 33.5943 39.6465 33.0528V32.868H38.8214M40.4762 32.5253V35.4076H39.6465V34.6408C39.462 34.9477 39.2219 35.1747 38.9388 35.3223C38.6562 35.4662 38.3107 35.5392 37.9016 35.5392C37.3845 35.5392 36.9727 35.3953 36.666 35.1066C36.3623 34.8146 36.2107 34.4253 36.2107 33.9378C36.2107 33.3697 36.3955 32.941 36.7786 32.6523C37.162 32.3635 37.7286 32.2194 38.4872 32.2194H39.6508V32.1381C39.6508 31.7563 39.5246 31.4614 39.2722 31.2541C39.0227 31.0435 38.6709 30.9381 38.2171 30.9381C37.9283 30.9381 37.6473 30.9729 37.3738 31.0421C37.0976 31.1122 36.8345 31.2159 36.5848 31.3533V30.5865C36.8885 30.4694 37.1832 30.382 37.4687 30.325C37.7436 30.2662 38.0217 30.2362 38.3029 30.2352C39.0334 30.2352 39.5791 30.4199 39.9398 30.8033C40.3005 31.1865 40.481 31.7566 40.481 32.5261M42.9513 34.6493V37.3282H42.1168V30.3552H42.9513V31.1218C43.1259 30.8218 43.3452 30.5985 43.6099 30.4544C43.8775 30.3066 44.1963 30.2328 44.5655 30.2328C44.6374 30.2312 44.7094 30.2338 44.781 30.2408C44.8527 30.2477 44.9238 30.259 44.9941 30.2742C45.0644 30.2897 45.1337 30.3095 45.2016 30.333C45.2698 30.3568 45.3361 30.3844 45.4008 30.4162C45.4655 30.4477 45.5281 30.4833 45.5885 30.5223C45.6489 30.5616 45.707 30.6041 45.7623 30.6504C45.8176 30.6964 45.8698 30.7456 45.9195 30.798C45.969 30.8504 46.015 30.9058 46.0578 30.9635C46.4425 31.4509 46.635 32.0905 46.635 32.8852C46.635 33.6795 46.4425 34.3194 46.0578 34.8066C46.015 34.8646 45.969 34.9197 45.9195 34.9721C45.8698 35.0245 45.8176 35.0737 45.7623 35.1199C45.707 35.1659 45.6489 35.2087 45.5885 35.2477C45.5281 35.287 45.4655 35.3223 45.4008 35.3541C45.3361 35.3857 45.2698 35.4135 45.2016 35.4373C45.1337 35.4608 45.0644 35.4803 44.9941 35.4959C44.9238 35.5114 44.8527 35.5226 44.781 35.5295C44.7094 35.5365 44.6374 35.5389 44.5655 35.5376C44.1963 35.5376 43.873 35.4654 43.6099 35.3202C43.3452 35.1726 43.1259 34.9488 42.9513 34.6483M45.7738 32.8846C45.7738 32.2739 45.6479 31.7959 45.3952 31.4504C45.146 31.1017 44.8016 30.9271 44.3628 30.9271C44.3123 30.9253 44.2618 30.9269 44.2115 30.9314C44.1612 30.936 44.1112 30.9437 44.062 30.9547C44.0126 30.9654 43.9642 30.9795 43.9166 30.9964C43.869 31.0135 43.8225 31.0333 43.7775 31.056C43.7324 31.0787 43.6888 31.1044 43.6468 31.1325C43.6048 31.1608 43.5647 31.1916 43.5267 31.2247C43.4888 31.2582 43.4529 31.2935 43.4193 31.3314C43.3856 31.3689 43.3543 31.4087 43.3259 31.4504C43.0765 31.7969 42.9564 32.2745 42.9564 32.8846C42.9564 33.4948 43.081 33.9747 43.3259 34.3237C43.5783 34.6699 43.9241 34.8424 44.3628 34.8424C44.8016 34.8424 45.146 34.6694 45.3952 34.3237C45.6479 33.9747 45.7738 33.4948 45.7738 32.8846Z" fill="#484C89"/>
</g>
<defs>
<linearGradient id="paint0_linear_693_187" x1="17.5214" y1="27.3632" x2="32.0162" y2="12.6207" gradientUnits="userSpaceOnUse">
<stop stop-color="#283593"/>
<stop offset="0.0625" stop-color="#283593"/>
<stop offset="0.0703125" stop-color="#293593"/>
<stop offset="0.078125" stop-color="#293594"/>
<stop offset="0.0859375" stop-color="#2A3594"/>
<stop offset="0.09375" stop-color="#2B3594"/>
<stop offset="0.101563" stop-color="#2B3595"/>
<stop offset="0.109375" stop-color="#2C3595"/>
<stop offset="0.117188" stop-color="#2C3595"/>
<stop offset="0.125" stop-color="#2D3596"/>
<stop offset="0.132812" stop-color="#2D3596"/>
<stop offset="0.140625" stop-color="#2E3596"/>
<stop offset="0.148438" stop-color="#2E3697"/>
<stop offset="0.15625" stop-color="#2F3697"/>
<stop offset="0.164062" stop-color="#303697"/>
<stop offset="0.171875" stop-color="#303697"/>
<stop offset="0.179688" stop-color="#313698"/>
<stop offset="0.1875" stop-color="#313698"/>
<stop offset="0.195312" stop-color="#323698"/>
<stop offset="0.203125" stop-color="#323699"/>
<stop offset="0.210938" stop-color="#333699"/>
<stop offset="0.21875" stop-color="#333699"/>
<stop offset="0.226563" stop-color="#34369A"/>
<stop offset="0.234375" stop-color="#35369A"/>
<stop offset="0.242188" stop-color="#35369A"/>
<stop offset="0.25" stop-color="#36369B"/>
<stop offset="0.257812" stop-color="#36369B"/>
<stop offset="0.265625" stop-color="#37369B"/>
<stop offset="0.273438" stop-color="#37369C"/>
<stop offset="0.28125" stop-color="#38369C"/>
<stop offset="0.289062" stop-color="#38369C"/>
<stop offset="0.296875" stop-color="#39369D"/>
<stop offset="0.304688" stop-color="#39369D"/>
<stop offset="0.3125" stop-color="#3A369D"/>
<stop offset="0.320312" stop-color="#3B369E"/>
<stop offset="0.328125" stop-color="#3B379E"/>
<stop offset="0.335938" stop-color="#3C379E"/>
<stop offset="0.34375" stop-color="#3C379F"/>
<stop offset="0.351562" stop-color="#3D379F"/>
<stop offset="0.359375" stop-color="#3D379F"/>
<stop offset="0.367188" stop-color="#3E379F"/>
<stop offset="0.375" stop-color="#3E37A0"/>
<stop offset="0.382812" stop-color="#3F37A0"/>
<stop offset="0.390625" stop-color="#4037A0"/>
<stop offset="0.398438" stop-color="#4037A1"/>
<stop offset="0.40625" stop-color="#4137A1"/>
<stop offset="0.414062" stop-color="#4137A1"/>
<stop offset="0.421875" stop-color="#4237A2"/>
<stop offset="0.429688" stop-color="#4237A2"/>
<stop offset="0.4375" stop-color="#4337A2"/>
<stop offset="0.445312" stop-color="#4337A3"/>
<stop offset="0.453125" stop-color="#4437A3"/>
<stop offset="0.460938" stop-color="#4537A3"/>
<stop offset="0.46875" stop-color="#4537A4"/>
<stop offset="0.476562" stop-color="#4637A4"/>
<stop offset="0.484375" stop-color="#4637A4"/>
<stop offset="0.492188" stop-color="#4737A5"/>
<stop offset="0.494921" stop-color="#4737A5"/>
<stop offset="0.5" stop-color="#4837A5"/>
<stop offset="0.505079" stop-color="#4837A5"/>
<stop offset="0.507812" stop-color="#4838A5"/>
<stop offset="0.515625" stop-color="#4838A6"/>
<stop offset="0.523438" stop-color="#4938A6"/>
<stop offset="0.53125" stop-color="#4A38A6"/>
<stop offset="0.539062" stop-color="#4A38A6"/>
<stop offset="0.546875" stop-color="#4B38A7"/>
<stop offset="0.554687" stop-color="#4B38A7"/>
<stop offset="0.5625" stop-color="#4C38A7"/>
<stop offset="0.570312" stop-color="#4C38A8"/>
<stop offset="0.578125" stop-color="#4D38A8"/>
<stop offset="0.585937" stop-color="#4D38A8"/>
<stop offset="0.59375" stop-color="#4E38A9"/>
<stop offset="0.601562" stop-color="#4F38A9"/>
<stop offset="0.609375" stop-color="#4F38A9"/>
<stop offset="0.617188" stop-color="#5038AA"/>
<stop offset="0.625" stop-color="#5038AA"/>
<stop offset="0.632812" stop-color="#5138AA"/>
<stop offset="0.640625" stop-color="#5138AB"/>
<stop offset="0.648438" stop-color="#5238AB"/>
<stop offset="0.65625" stop-color="#5238AB"/>
<stop offset="0.664062" stop-color="#5338AC"/>
<stop offset="0.671875" stop-color="#5438AC"/>
<stop offset="0.679688" stop-color="#5438AC"/>
<stop offset="0.6875" stop-color="#5538AD"/>
<stop offset="0.695312" stop-color="#5539AD"/>
<stop offset="0.703125" stop-color="#5639AD"/>
<stop offset="0.710938" stop-color="#5639AD"/>
<stop offset="0.71875" stop-color="#5739AE"/>
<stop offset="0.726562" stop-color="#5739AE"/>
<stop offset="0.734375" stop-color="#5839AE"/>
<stop offset="0.742188" stop-color="#5939AF"/>
<stop offset="0.75" stop-color="#5939AF"/>
<stop offset="0.757812" stop-color="#5A39AF"/>
<stop offset="0.765625" stop-color="#5A39B0"/>
<stop offset="0.773438" stop-color="#5B39B0"/>
<stop offset="0.78125" stop-color="#5B39B0"/>
<stop offset="0.789062" stop-color="#5C39B1"/>
<stop offset="0.796875" stop-color="#5C39B1"/>
<stop offset="0.804688" stop-color="#5D39B1"/>
<stop offset="0.8125" stop-color="#5E39B2"/>
<stop offset="0.820312" stop-color="#5E39B2"/>
<stop offset="0.828125" stop-color="#5F39B2"/>
<stop offset="0.835938" stop-color="#5F39B3"/>
<stop offset="0.84375" stop-color="#6039B3"/>
<stop offset="0.851562" stop-color="#6039B3"/>
<stop offset="0.859375" stop-color="#6139B4"/>
<stop offset="0.867188" stop-color="#6139B4"/>
<stop offset="0.875" stop-color="#6239B4"/>
<stop offset="0.882812" stop-color="#633AB5"/>
<stop offset="0.890625" stop-color="#633AB5"/>
<stop offset="0.898438" stop-color="#643AB5"/>
<stop offset="0.90625" stop-color="#643AB5"/>
<stop offset="0.914062" stop-color="#653AB6"/>
<stop offset="0.921875" stop-color="#653AB6"/>
<stop offset="0.929688" stop-color="#663AB6"/>
<stop offset="0.9375" stop-color="#663AB7"/>
<stop offset="1" stop-color="#673AB7"/>
</linearGradient>
</defs>
</svg>
