<svg width="50" height="50" viewBox="0 0 50 50" fill="none" xmlns="http://www.w3.org/2000/svg">
<path fill-rule="evenodd" clip-rule="evenodd" d="M24.1862 0.995485C24.9777 0.553588 25.9522 0.553588 26.7427 0.995485C30.6536 3.17951 42.4226 9.75369 46.3346 11.9377C47.1264 12.3784 47.6135 13.1949 47.6135 14.0788C47.6135 18.4469 47.6135 31.5941 47.6135 35.9622C47.6135 36.8459 47.1264 37.6624 46.3346 38.1045C42.4237 40.2885 30.6547 46.8627 26.7427 49.0467C25.951 49.4885 24.9765 49.4885 24.1862 49.0467C20.2752 46.8627 8.50619 40.2885 4.59411 38.1045C3.80381 37.6624 3.31641 36.847 3.31641 35.9632C3.31641 31.5951 3.31641 18.4481 3.31641 14.08C3.31641 13.1961 3.80381 12.3796 4.59528 11.9377C8.50502 9.75369 20.2764 3.17951 24.1862 0.995485Z" fill="#283593"/>
<path fill-rule="evenodd" clip-rule="evenodd" d="M3.67092 37.0871C3.36084 36.674 3.31641 36.282 3.31641 35.7544C3.31641 31.4118 3.31641 18.34 3.31641 13.9963C3.31641 13.1171 3.80264 12.3052 4.59178 11.8668C8.48879 9.69555 20.2181 3.15962 24.115 0.98722C24.9043 0.547651 25.9733 0.556824 26.7624 0.996523C30.6595 3.16776 42.3491 9.648 46.2461 11.8192C46.5608 11.9956 46.801 12.2078 47.0154 12.4874L3.67092 37.0871Z" fill="#5C6BC0"/>
<path fill-rule="evenodd" clip-rule="evenodd" d="M25.4649 8.7832C34.4724 8.7832 41.7849 16.0591 41.7849 25.0215C41.7849 33.9836 34.4724 41.2597 25.4649 41.2597C16.4575 41.2597 9.14502 33.9836 9.14502 25.0215C9.14502 16.0591 16.4575 8.7832 25.4649 8.7832ZM25.4649 16.9023C29.9681 16.9023 33.6248 20.5397 33.6248 25.0215C33.6248 29.502 29.9681 33.1405 25.4649 33.1405C20.9618 33.1405 17.305 29.502 17.305 25.0215C17.305 20.5397 20.9606 16.9023 25.4649 16.9023Z" fill="white"/>
<path fill-rule="evenodd" clip-rule="evenodd" d="M47.0127 12.5C47.6143 13.0603 47.6028 13.9047 47.6028 14.5693C47.6028 18.971 47.5653 31.4907 47.6132 35.8923C47.6177 36.3516 47.4651 36.8354 47.2365 37.1995L24.9902 25.0209L47.0127 12.5Z" fill="#3949AB"/>
<path fill-rule="evenodd" clip-rule="evenodd" d="M33.6245 21.541H35.9561V28.5003H33.6245V21.541ZM41.7847 21.541H44.116V28.5003H41.7847V21.541Z" fill="white"/>
<path fill-rule="evenodd" clip-rule="evenodd" d="M31.2935 23.8613H38.2878V26.181H31.2935V23.8613ZM39.4533 23.8613H46.4477V26.181H39.4533V23.8613Z" fill="white"/>
</svg>
