<svg width="50" height="50" viewBox="0 0 50 50" fill="none" xmlns="http://www.w3.org/2000/svg">
<path fill-rule="evenodd" clip-rule="evenodd" d="M23.7757 1.44991C24.5436 1.0167 25.4891 1.0167 26.2559 1.44991C30.0501 3.59107 41.468 10.0363 45.2632 12.1775C46.031 12.6095 46.5039 13.4101 46.5039 14.2765C46.5039 18.559 46.5039 31.4483 46.5039 35.7306C46.5039 36.5972 46.031 37.3975 45.2632 37.8306C41.469 39.9721 30.0512 46.4172 26.2559 48.5584C25.488 48.9916 24.5425 48.9916 23.7757 48.5584C19.9814 46.4172 8.5637 39.9721 4.7683 37.8306C4.00157 37.3975 3.52881 36.598 3.52881 35.7317C3.52881 31.4493 3.52881 18.5601 3.52881 14.2777C3.52881 13.4113 4.00157 12.6107 4.76947 12.1775C8.56256 10.0363 19.9826 3.59107 23.7757 1.44991Z" fill="#283593"/>
<path fill-rule="evenodd" clip-rule="evenodd" d="M3.87264 36.8351C3.57184 36.4306 3.52881 36.0461 3.52881 35.5287C3.52881 31.2712 3.52881 18.456 3.52881 14.1976C3.52881 13.3356 4.00043 12.5397 4.76612 12.1099C8.54679 9.98119 19.9261 3.57346 23.7068 1.44375C24.4724 1.01274 25.5094 1.02183 26.2751 1.45284C30.0557 3.58151 41.3967 9.93456 45.1773 12.0632C45.4826 12.236 45.7156 12.4441 45.9238 12.7182L3.87264 36.8351Z" fill="#5C6BC0"/>
<path fill-rule="evenodd" clip-rule="evenodd" d="M25.0165 9.08398C33.7552 9.08398 40.8493 16.2171 40.8493 25.0035C40.8493 33.79 33.7552 40.9231 25.0165 40.9231C16.278 40.9231 9.18359 33.79 9.18359 25.0035C9.18359 16.2171 16.278 9.08398 25.0165 9.08398ZM25.0165 17.0437C29.3852 17.0437 32.9328 20.6098 32.9328 25.0035C32.9328 29.3961 29.3852 32.9632 25.0165 32.9632C20.6478 32.9632 17.1001 29.3961 17.1001 25.0035C17.1001 20.6098 20.6467 17.0437 25.0165 17.0437Z" fill="white"/>
<path fill-rule="evenodd" clip-rule="evenodd" d="M45.9215 12.7285C46.5051 13.2777 46.4936 14.1054 46.4936 14.757C46.4936 19.0724 46.4575 31.3466 46.504 35.6618C46.5085 36.1121 46.3601 36.5864 46.1386 36.9434L24.5562 25.0036L45.9215 12.7285Z" fill="#3949AB"/>
</svg>
