<svg width="50" height="50" viewBox="0 0 50 50" fill="none" xmlns="http://www.w3.org/2000/svg">
<path fill-rule="evenodd" clip-rule="evenodd" d="M21.8187 1.0251C22.5978 0.587987 23.557 0.587987 24.335 1.0251C28.1847 3.18523 39.7692 9.68726 43.6197 11.8474C44.3989 12.2833 44.8786 13.0909 44.8786 13.9651C44.8786 18.2852 44.8786 31.2884 44.8786 35.6087C44.8786 36.4827 44.3989 37.2902 43.6197 37.7274C39.7703 39.8876 28.1858 46.3897 24.335 48.5496C23.556 48.9868 22.5967 48.9868 21.8187 48.5496C17.9691 46.3897 6.3847 39.8876 2.53393 37.7274C1.75596 37.2902 1.27637 36.4838 1.27637 35.6097C1.27637 31.2894 1.27637 18.2864 1.27637 13.9662C1.27637 13.0921 1.75596 12.2845 2.5351 11.8474C6.38352 9.68726 17.9703 3.18523 21.8187 1.0251Z" fill="#283593"/>
<path fill-rule="evenodd" clip-rule="evenodd" d="M1.62515 36.7231C1.32001 36.3145 1.27637 35.9268 1.27637 35.4049C1.27637 31.11 1.27637 18.1815 1.27637 13.8853C1.27637 13.0157 1.75479 12.2128 2.53159 11.7792C6.36743 9.63168 17.9128 3.16745 21.7487 1.01877C22.5255 0.583996 23.5777 0.59322 24.3545 1.028C28.1903 3.17537 39.6967 9.58467 43.5326 11.7321C43.8425 11.9065 44.0788 12.1164 44.2898 12.3929L1.62515 36.7231Z" fill="#5C6BC0"/>
<path fill-rule="evenodd" clip-rule="evenodd" d="M23.0775 8.72852C31.9439 8.72852 39.1415 15.9246 39.1415 24.7887C39.1415 33.653 31.9439 40.8489 23.0775 40.8489C14.2115 40.8489 7.01367 33.653 7.01367 24.7887C7.01367 15.9246 14.2115 8.72852 23.0775 8.72852ZM23.0775 16.7586C27.5099 16.7586 31.1097 20.3561 31.1097 24.7887C31.1097 29.2203 27.5099 32.819 23.0775 32.819C18.6451 32.819 15.0455 29.2203 15.0455 24.7887C15.0455 20.3561 18.6439 16.7586 23.0775 16.7586Z" fill="white"/>
<path fill-rule="evenodd" clip-rule="evenodd" d="M44.2875 12.4043C44.8795 12.9584 44.868 13.7936 44.868 14.4509C44.868 18.8043 44.8314 31.1868 44.8784 35.5402C44.883 35.9945 44.7327 36.4731 44.5078 36.8333L22.6104 24.788L44.2875 12.4043Z" fill="#3949AB"/>
<path fill-rule="evenodd" clip-rule="evenodd" d="M34.5518 20.1992H35.6994V29.3765H34.5518V20.1992ZM37.9943 20.1992H39.1416V29.3765H37.9943V20.1992Z" fill="white"/>
<path fill-rule="evenodd" clip-rule="evenodd" d="M32.2568 25.9356H41.4362V27.0826H32.2568V25.9356ZM32.2568 22.4941H41.4362V23.6413H32.2568V22.4941Z" fill="white"/>
</svg>
