<svg width="50" height="50" viewBox="0 0 50 50" fill="none" xmlns="http://www.w3.org/2000/svg">
<mask id="mask0_693_162" style="mask-type:luminance" maskUnits="userSpaceOnUse" x="1" y="1" width="48" height="48">
<path d="M1.37207 1.86523H48.6352V48.1738H1.37207V1.86523Z" fill="white"/>
</mask>
<g mask="url(#mask0_693_162)">
<path d="M25.0036 1.87305C11.9531 1.87305 1.37207 12.3978 1.37207 25.3788C1.37207 36.3933 8.99722 45.6095 19.2769 48.1598C19.1666 47.8425 19.0957 47.4744 19.0957 47.018V43.0002C18.1366 43.0002 16.5298 43.0002 16.126 43.0002C14.5092 43.0002 13.0717 42.309 12.3745 41.0239C11.6006 39.596 11.4666 37.4119 9.54852 36.076C8.97943 35.6313 9.41264 35.1239 10.0685 35.1925C11.2796 35.5335 12.284 36.36 13.2291 37.5861C14.1705 38.8143 14.6136 39.0925 16.3722 39.0925C17.2249 39.0925 18.501 39.0436 19.7022 38.8555C20.3482 37.2239 21.4648 35.7215 22.8294 35.0122C14.9602 34.2071 11.2048 30.313 11.2048 25.0262C11.2048 22.75 12.1795 20.5485 13.8357 18.6934C13.2922 16.8522 12.6088 13.0971 14.0445 11.6671C17.5852 11.6671 19.7258 13.9512 20.2398 14.5681C22.0043 13.9668 23.9421 13.6259 25.9783 13.6259C28.0186 13.6259 29.9643 13.9668 31.7327 14.572C32.2408 13.9589 34.3833 11.6671 37.9319 11.6671C39.3734 13.099 38.6822 16.8697 38.1327 18.7071C39.7793 20.5582 40.748 22.7541 40.748 25.0262C40.748 30.3092 36.9985 34.2013 29.141 35.0103C31.3033 36.1327 32.8806 39.2864 32.8806 41.6624V47.018C32.8806 47.2215 32.8354 47.3686 32.8116 47.5428C42.0202 44.3324 48.6352 35.6353 48.6352 25.3788C48.6352 12.3978 38.0539 1.87305 25.0036 1.87305Z" fill="black"/>
</g>
</svg>
