<svg width="50" height="50" viewBox="0 0 50 50" fill="none" xmlns="http://www.w3.org/2000/svg">
<mask id="mask0_693_129" style="mask-type:luminance" maskUnits="userSpaceOnUse" x="8" y="10" width="34" height="39">
<path d="M8.11133 10.6289H41.8498V48.6675H8.11133V10.6289Z" fill="white"/>
</mask>
<g mask="url(#mask0_693_129)">
<path d="M41.8409 10.6548L38.7695 44.8605L24.9633 48.6651L11.1954 44.8659L8.12744 10.6548L41.8404 10.6543H41.8414L41.8409 10.6548Z" fill="#E44D26"/>
</g>
<path d="M24.9844 45.7582L36.141 42.6837L38.7655 13.4535L24.9844 13.4531V45.7582Z" fill="#F16529"/>
<path d="M19.014 21.8446H24.9847V17.6484H14.4014L14.5023 18.7744L15.5397 30.3369H24.9847V26.142H19.3997L19.014 21.8446Z" fill="#EBEBEB"/>
<path d="M19.965 32.4355H15.728L16.3193 39.0241L24.9646 41.41L24.9845 41.4047V37.039L24.966 37.0443L20.2654 35.7818L19.965 32.4355Z" fill="#EBEBEB"/>
<mask id="mask1_693_129" style="mask-type:luminance" maskUnits="userSpaceOnUse" x="11" y="1" width="7" height="7">
<path d="M11.2383 1.35938H17.5234V7.75241H11.2383V1.35938Z" fill="white"/>
</mask>
<g mask="url(#mask1_693_129)">
<path d="M11.2642 1.35938H13.4091V3.466H15.371V1.35938H17.516V7.73882H15.3711V5.60262H13.4091V7.73882H11.2642V1.35938Z" fill="black"/>
</g>
<mask id="mask2_693_129" style="mask-type:luminance" maskUnits="userSpaceOnUse" x="18" y="1" width="7" height="7">
<path d="M18.4214 1.35938H24.374V7.75241H18.4214V1.35938Z" fill="white"/>
</mask>
<g mask="url(#mask2_693_129)">
<path d="M20.337 3.47491H18.4487V1.35938H24.3714V3.47491H22.4816V7.73882H20.3371L20.337 3.47491Z" fill="black"/>
</g>
<mask id="mask3_693_129" style="mask-type:luminance" maskUnits="userSpaceOnUse" x="25" y="1" width="8" height="7">
<path d="M25.3047 1.35938H32.554V7.75241H25.3047V1.35938Z" fill="white"/>
</mask>
<g mask="url(#mask3_693_129)">
<path d="M25.311 1.35938H27.547L28.9226 3.6009L30.2972 1.35938H32.5347V7.73882H30.3988V4.57683L28.9226 6.84497H28.8857L27.4095 4.57683V7.73882H25.311V1.35938Z" fill="black"/>
</g>
<mask id="mask4_693_129" style="mask-type:luminance" maskUnits="userSpaceOnUse" x="33" y="1" width="6" height="7">
<path d="M33.5854 1.35938H38.7731V7.75241H33.5854V1.35938Z" fill="white"/>
</mask>
<g mask="url(#mask4_693_129)">
<path d="M33.6025 1.35938H35.7475V5.63013H38.7646V7.73882H33.6025V1.35938Z" fill="black"/>
</g>
<path d="M24.9702 30.3356H30.168L29.6776 35.7771L24.9702 37.0409V41.4055L33.6223 39.0223L33.6859 38.3127L34.6785 27.2664L34.7814 26.1406H24.9702V30.3356Z" fill="white"/>
<path d="M24.9702 21.834V21.8446H35.1645L35.2493 20.9013L35.4421 18.7744L35.5426 17.6484H24.9702V21.834Z" fill="white"/>
</svg>
