<svg width="50" height="50" viewBox="0 0 50 50" fill="none" xmlns="http://www.w3.org/2000/svg">
<path d="M18.8809 37.6855C18.8809 37.6855 17.0751 38.7366 20.1662 39.0922C23.9117 39.5192 25.8246 39.4577 29.9515 38.6762C29.9515 38.6762 31.0365 39.3564 32.5526 39.9462C23.3015 43.912 11.6147 39.7163 18.8809 37.6855Z" fill="#5382A1"/>
<path d="M17.7507 32.5117C17.7507 32.5117 15.7251 34.0114 18.8187 34.3318C22.8187 34.7435 25.9782 34.7778 31.4446 33.724C31.4446 33.724 32.2013 34.4917 33.3903 34.9106C22.2043 38.181 9.7458 35.1692 17.7504 32.5117" fill="#5382A1"/>
<path d="M27.2806 23.7338C29.56 26.3598 26.6812 28.7218 26.6812 28.7218C26.6812 28.7218 32.4705 25.733 29.8119 21.9904C27.3282 18.501 25.425 16.7672 35.7325 10.7891C35.7325 10.7891 19.5537 14.8295 27.2806 23.7338Z" fill="#E76F00"/>
<path d="M39.516 41.5145C39.516 41.5145 40.8529 42.6161 38.0452 43.4685C32.7045 45.0862 15.8182 45.5747 11.1276 43.533C9.44181 42.7996 12.604 41.7814 13.5986 41.5667C14.636 41.3421 15.2289 41.3846 15.2289 41.3846C13.3536 40.0627 3.10785 43.9776 10.0247 45.0998C28.8869 48.1584 44.4091 43.7217 39.516 41.5145Z" fill="#5382A1"/>
<path d="M19.7496 27.1502C19.7496 27.1502 11.1603 29.1906 16.708 29.931C19.0502 30.2457 23.7202 30.1745 28.0688 29.8093C31.6236 29.5096 35.1937 28.8719 35.1937 28.8719C35.1937 28.8719 33.9402 29.4096 33.033 30.028C24.31 32.3229 7.46061 31.2556 12.3112 28.9088C16.414 26.9259 19.7496 27.1502 19.7496 27.1502Z" fill="#5382A1"/>
<path d="M35.1577 35.7629C44.0245 31.1554 39.9237 26.7271 37.0625 27.3239C36.3619 27.4704 36.0486 27.5961 36.0486 27.5961C36.0486 27.5961 36.3085 27.1883 36.8066 27.0118C42.4673 25.0222 46.8213 32.8824 34.9785 35.9955C34.9785 35.9955 35.1168 35.8723 35.1577 35.7629Z" fill="#5382A1"/>
<mask id="mask0_693_116" style="mask-type:luminance" maskUnits="userSpaceOnUse" x="18" y="1" width="14" height="27">
<path d="M18.8862 1.14062H31.0905V27.0677H18.8862V1.14062Z" fill="white"/>
</mask>
<g mask="url(#mask0_693_116)">
<path d="M29.8118 1.13685C29.8118 1.13685 34.7225 6.04929 25.1539 13.6033C17.4819 19.6623 23.4053 23.1177 25.1511 27.0656C20.6726 23.0246 17.3859 19.4667 19.5909 16.1565C22.8277 11.2962 31.7928 8.94009 29.8118 1.13685Z" fill="#E76F00"/>
</g>
<path d="M20.6205 48.2496C29.1316 48.7943 42.2003 47.9472 42.5094 43.9199C42.5094 43.9199 41.9142 45.4456 35.4762 46.6579C28.2118 48.025 19.2521 47.8664 13.939 46.9892C13.939 46.9892 15.0266 47.8897 20.6201 48.2496" fill="#5382A1"/>
</svg>
