<svg width="50" height="50" viewBox="0 0 50 50" fill="none" xmlns="http://www.w3.org/2000/svg">
<mask id="mask0_693_109" style="mask-type:luminance" maskUnits="userSpaceOnUse" x="1" y="1" width="48" height="48">
<path d="M1.69824 1.52734H48.288V48.3664H1.69824V1.52734Z" fill="white"/>
</mask>
<g mask="url(#mask0_693_109)">
<path d="M1.69824 1.52734H48.288V48.3664H1.69824V1.52734Z" fill="#FFD600"/>
</g>
<path d="M32.1605 36.5867C33.056 38.049 34.0294 39.4503 36.0908 39.4503C37.8225 39.4503 38.731 38.5851 38.731 37.388C38.731 35.9557 37.7914 35.4469 35.8863 34.6129L34.8419 34.1653C31.8278 32.88 29.8233 31.2693 29.8233 27.8669C29.8233 24.7312 32.211 22.345 35.9419 22.345C38.5988 22.345 40.5078 23.2701 41.8847 25.6927L38.6312 27.7835C37.9156 26.4981 37.1416 25.992 35.9419 25.992C34.7177 25.992 33.9427 26.7688 33.9427 27.7835C33.9427 29.0378 34.719 29.5452 36.5113 30.322L37.5557 30.7696C41.1084 32.2904 43.1116 33.8439 43.1116 37.3362C43.1116 41.099 40.1557 43.161 36.1879 43.161C32.3068 43.161 30.1028 41.203 28.8759 38.7789L32.1605 36.5867ZM17.1663 36.6934C17.8211 37.8723 18.8164 38.7789 20.2477 38.7789C21.6169 38.7789 22.4051 38.2351 22.4051 36.1209V22.3438H26.7185V36.7872C26.7185 41.1677 24.191 43.161 20.5 43.161C17.165 43.161 14.7578 40.8894 13.7769 38.7789L17.1663 36.6934Z" fill="#000001"/>
</svg>
