<svg width="187" height="188" viewBox="0 0 187 188" fill="none" xmlns="http://www.w3.org/2000/svg">
<mask id="mask0_201_401" style="mask-type:luminance" maskUnits="userSpaceOnUse" x="3" y="105" width="75" height="37">
<path d="M3.85645 105.271H77.7333V141.267H3.85645V105.271Z" fill="white"/>
</mask>
<g mask="url(#mask0_201_401)">
<path d="M3.96875 133.094H9.85358V109.855L18.9638 130.121C20.0385 132.565 21.5105 133.442 24.3959 133.442C27.2812 133.442 28.6959 132.574 29.772 130.121L38.8832 109.855V133.103H44.769V109.893C44.769 107.629 43.8615 106.534 41.995 105.968C37.5253 104.572 34.5258 105.78 33.1684 108.799L24.2282 128.8L15.5693 108.79C14.2678 105.771 11.2124 104.563 6.74234 105.96C4.87433 106.526 3.96875 107.621 3.96875 109.884V133.094ZM49.6603 114.172H55.5432V126.981C55.4883 127.678 55.7662 129.311 58.9902 129.36C60.6352 129.387 71.6844 129.36 71.7874 129.36V114.108H77.6834C77.7096 114.108 77.677 134.905 77.678 134.994C77.7101 140.123 71.3161 141.237 68.37 141.323H49.7886V137.362L68.4031 137.361C72.1901 136.96 71.7436 135.078 71.7436 134.443V132.899H59.236C53.4168 132.846 49.7118 130.304 49.6652 127.382C49.6608 127.12 49.791 114.297 49.6618 114.171L49.6603 114.172Z" fill="#00618A"/>
</g>
<path d="M82.22 133.096H99.1389C101.119 133.096 103.044 132.681 104.573 131.963C107.12 130.794 108.364 129.209 108.364 127.133V122.831C108.364 121.132 106.95 119.548 104.178 118.491C102.706 117.924 100.896 117.623 99.1418 117.623H92.0113C89.6356 117.623 88.5032 116.905 88.2209 115.321C88.1641 115.133 88.1641 114.972 88.1641 114.792V112.113C88.1641 111.963 88.1641 111.811 88.2209 111.622C88.5032 110.415 89.126 110.074 91.2194 109.877C91.3895 109.877 91.6154 109.839 91.7864 109.839H108.592V105.915H92.0691C89.692 105.915 88.4478 106.066 87.3153 106.405C83.8023 107.5 82.2739 109.245 82.2739 112.264V115.699C82.2739 118.341 85.2744 120.605 90.309 121.133C90.876 121.171 91.441 121.208 92.006 121.208H98.1177C98.3446 121.208 98.5715 121.208 98.7405 121.246C100.607 121.397 101.401 121.737 101.966 122.416C102.315 122.765 102.419 123.096 102.419 123.463V126.897C102.419 127.312 102.137 127.841 101.571 128.293C101.061 128.747 100.213 129.048 99.0806 129.124C98.8537 129.124 98.6847 129.161 98.4587 129.161H82.2185V133.086L82.22 133.096ZM145.075 126.265C145.075 130.304 148.073 132.568 154.128 133.021C154.693 133.065 155.259 133.089 155.825 133.096H171.16V129.171H155.712C152.261 129.171 150.959 128.303 150.959 126.227V105.923H145.074V126.263L145.075 126.265ZM112.118 126.469V112.478C112.118 108.923 114.613 106.767 119.546 106.087C120.073 106.011 120.602 105.974 121.134 105.973H132.305C132.856 105.974 133.404 106.011 133.95 106.087C138.883 106.767 141.377 108.922 141.377 112.478V126.469C141.377 129.353 140.318 130.897 137.875 131.903L143.672 137.138H136.839L132.149 132.903L127.428 133.202H121.134C120.057 133.202 118.923 133.05 117.675 132.71C113.925 131.689 112.119 129.723 112.119 126.469H112.118ZM118.47 126.121C118.47 126.31 118.527 126.499 118.584 126.726C118.933 128.352 120.455 129.26 122.771 129.26H128.117L123.207 124.825H130.039L134.313 128.693C135.103 128.272 135.622 127.628 135.796 126.802C135.853 126.614 135.853 126.424 135.853 126.235V112.819C135.853 112.669 135.853 112.47 135.796 112.29C135.447 110.778 133.924 109.908 131.657 109.908H122.786C120.17 109.908 118.478 111.042 118.478 112.819V126.131L118.47 126.121Z" fill="#E48E00"/>
<path d="M176.334 99.4099C172.717 99.3123 169.953 99.648 167.591 100.644C166.92 100.928 165.85 100.935 165.74 101.777C166.109 102.164 166.167 102.741 166.459 103.217C167.023 104.13 167.977 105.355 168.825 105.995C169.753 106.696 170.709 107.446 171.706 108.054C173.477 109.134 175.454 109.751 177.158 110.833C178.163 111.47 179.16 112.272 180.141 112.993C180.625 113.349 180.952 113.902 181.58 114.125V114.022C181.249 113.6 181.164 113.021 180.86 112.582L179.523 111.244C178.215 109.499 176.556 107.984 174.791 106.716C173.384 105.705 170.235 104.341 169.648 102.702L169.545 102.599C170.543 102.486 171.711 102.125 172.633 101.879C174.179 101.464 175.561 101.571 177.159 101.159L179.32 100.541V100.13C178.512 99.3006 177.937 98.2041 177.057 97.4545C174.754 95.4912 172.239 93.5324 169.651 91.8961C168.216 90.9891 166.442 90.4007 164.92 89.6322C164.408 89.3737 163.509 89.2396 163.171 88.8082C162.372 87.7894 161.937 86.4962 161.32 85.318C160.03 82.8316 158.761 80.1143 157.617 77.4977C156.836 75.7132 156.326 73.9531 155.354 72.3518C150.684 64.6699 145.655 60.0331 137.868 55.477C136.211 54.5083 134.217 54.1245 132.108 53.6246L128.713 53.4186C128.022 53.1305 127.303 52.2842 126.655 51.8741C124.074 50.2422 117.457 46.6972 115.546 51.3504C114.34 54.2936 117.349 57.1653 118.426 58.6573C119.181 59.7042 120.149 60.876 120.689 62.0532C121.043 62.8261 121.105 63.602 121.409 64.4206C122.156 66.4276 122.807 68.6289 123.774 70.4915C124.263 71.434 124.802 72.4271 125.42 73.27C125.8 73.7874 126.45 74.0152 126.552 74.8144C125.917 75.7045 125.88 77.0828 125.522 78.2104C123.915 83.2814 124.521 89.5841 126.859 93.3376C127.577 94.4895 129.266 96.9604 131.591 96.013C133.623 95.1842 133.161 92.6185 133.752 90.3536C133.882 89.8386 133.802 89.4636 134.06 89.1191V89.2221L135.912 92.9261C137.282 95.1337 139.715 97.4414 141.775 98.9989C142.843 99.8059 143.694 101.202 145.066 101.674V101.571H144.964C144.696 101.153 144.278 100.981 143.935 100.646C143.13 99.8564 142.234 98.875 141.568 97.9709C139.693 95.4247 138.038 92.6399 136.529 89.7386C135.808 88.354 135.181 86.826 134.575 85.4166C134.341 84.873 134.344 84.052 133.856 83.7702C133.19 84.8035 132.21 85.6377 131.695 86.8571C130.872 88.8067 130.765 91.1834 130.461 93.6495C130.28 93.7136 130.361 93.6694 130.255 93.7525C128.823 93.4066 128.319 91.9311 127.787 90.665C126.44 87.4629 126.191 82.3098 127.375 78.6257C127.68 77.673 129.067 74.6697 128.506 73.7888C128.238 72.9105 127.355 72.3931 126.86 71.7299C126.25 70.9011 125.637 69.8065 125.215 68.8485C124.112 66.3533 123.597 63.5525 122.437 61.0281C121.883 59.8223 120.946 58.6024 120.175 57.5379C119.322 56.351 118.367 55.4751 117.707 54.0477C117.471 53.5371 117.152 52.7214 117.501 52.1953C117.517 52.1195 117.544 52.0476 117.581 51.9801C117.619 51.912 117.664 51.8508 117.719 51.7959C117.774 51.7415 117.835 51.6954 117.903 51.6579C117.971 51.621 118.043 51.5938 118.118 51.5773C118.715 51.1177 120.377 51.7298 120.998 51.9893C122.647 52.6753 124.025 53.3277 125.422 54.2537C126.093 54.69 126.771 55.5587 127.582 55.7977H128.506C129.954 56.1314 131.577 55.9026 132.928 56.3127C135.32 57.0395 137.462 58.1714 139.409 59.3996C145.338 63.1449 150.185 68.4763 153.501 74.8441C154.035 75.8677 154.265 76.8457 154.735 77.931C155.683 80.1124 156.877 82.3749 157.821 84.5164C158.763 86.654 159.679 88.8092 161.01 90.5873C161.709 91.5211 164.411 92.0239 165.638 92.5418C166.499 92.9057 167.909 93.2856 168.724 93.7768C170.281 94.7164 171.79 95.8357 173.251 96.8657C173.981 97.3801 176.226 98.5087 176.337 99.4376L176.334 99.4099Z" fill="#00618A"/>
<path fill-rule="evenodd" clip-rule="evenodd" d="M130.361 60.2056C129.606 60.192 129.073 60.2877 128.509 60.4115V60.5145H128.612C128.971 61.2545 129.606 61.7301 130.051 62.367L131.08 64.5275L131.183 64.4245C131.819 63.9751 132.112 63.257 132.108 62.16C131.852 61.8914 131.815 61.5547 131.593 61.2336C131.299 60.806 130.721 60.5636 130.359 60.2041L130.361 60.2056Z" fill="#00618A"/>
<path fill-rule="evenodd" clip-rule="evenodd" d="M173.927 129.06C173.927 131.652 175.975 133.399 178.264 133.399C180.553 133.399 182.6 131.652 182.6 129.06C182.6 126.469 180.553 124.722 178.264 124.722C175.975 124.722 173.927 126.469 173.927 129.06ZM181.629 129.06C181.629 131.027 180.126 132.496 178.262 132.496C176.378 132.496 174.896 131.027 174.896 129.06C174.896 127.093 176.376 125.624 178.262 125.624C180.124 125.624 181.629 127.093 181.629 129.06ZM179.431 131.536H180.402L178.98 129.362C179.743 129.281 180.321 128.91 180.321 128.008C180.321 127.001 179.684 126.585 178.459 126.585H176.527V131.537H177.36V129.397H178.135L179.43 131.537L179.431 131.536ZM177.36 128.701V127.278H178.32C178.817 127.278 179.419 127.371 179.419 127.95C179.419 128.644 178.875 128.703 178.25 128.703H177.36V128.701Z" fill="#E48E00"/>
</svg>
