<svg width="50" height="50" viewBox="0 0 50 50" fill="none" xmlns="http://www.w3.org/2000/svg">
<mask id="mask0_693_99" style="mask-type:luminance" maskUnits="userSpaceOnUse" x="1" y="27" width="20" height="11">
<path d="M1.03125 27.998H20.7844V37.5714H1.03125V27.998Z" fill="white"/>
</mask>
<g mask="url(#mask0_693_99)">
<path d="M1.06152 35.3976H2.63501V29.217L5.0709 34.6069C5.35825 35.2569 5.75183 35.4902 6.52333 35.4902C7.2948 35.4902 7.67306 35.2593 7.96079 34.6069L10.3969 29.217V35.4H11.9707V29.2271C11.9707 28.625 11.728 28.3338 11.229 28.1833C10.0339 27.812 9.23186 28.1333 8.86892 28.9362L6.47849 34.2556L4.16327 28.9338C3.81528 28.1309 2.99833 27.8096 1.80313 28.1811C1.30366 28.3317 1.06152 28.6229 1.06152 29.2247V35.3976ZM13.2785 30.3652H14.8515V33.7718C14.8368 33.9572 14.9111 34.3915 15.7731 34.4045C16.213 34.4117 19.1673 34.4045 19.1949 34.4045V30.3481H20.7713C20.7783 30.3481 20.7696 35.8793 20.7699 35.9029C20.7785 37.267 19.0688 37.5633 18.2811 37.5862H13.3128V36.5327L18.29 36.5325C19.3025 36.4258 19.1831 35.9253 19.1831 35.7564V35.3458H15.8389C14.2829 35.3317 13.2923 34.6556 13.2798 33.8785C13.2786 33.8088 13.3135 30.3984 13.2789 30.3649L13.2785 30.3652Z" fill="#00618A"/>
</g>
<path d="M21.9838 35.397H26.5076C27.037 35.397 27.5517 35.2866 27.9605 35.0956C28.6416 34.7847 28.9742 34.3632 28.9742 33.8111V32.6669C28.9742 32.215 28.5961 31.7938 27.8549 31.5126C27.4613 31.3619 26.9774 31.2818 26.5083 31.2818H24.6018C23.9666 31.2818 23.6638 31.0908 23.5883 30.6696C23.5731 30.6196 23.5731 30.5767 23.5731 30.5289V29.8164C23.5731 29.7765 23.5731 29.7361 23.5883 29.6858C23.6638 29.3648 23.8303 29.2741 24.3901 29.2217C24.4355 29.2217 24.4959 29.2116 24.5417 29.2116H29.0351V28.168H24.6172C23.9817 28.168 23.649 28.2081 23.3462 28.2983C22.4069 28.5895 21.9982 29.0536 21.9982 29.8565V30.7701C21.9982 31.4728 22.8005 32.0749 24.1466 32.2153C24.2982 32.2254 24.4493 32.2353 24.6004 32.2353H26.2345C26.2952 32.2353 26.3559 32.2353 26.401 32.2454C26.9001 32.2855 27.1124 32.3759 27.2635 32.5565C27.3568 32.6494 27.3846 32.7374 27.3846 32.835V33.7483C27.3846 33.8587 27.3092 33.9994 27.1579 34.1196C27.0215 34.2403 26.7948 34.3204 26.492 34.3406C26.4313 34.3406 26.3861 34.3504 26.3257 34.3504H21.9834V35.3943L21.9838 35.397ZM38.7899 33.5802C38.7899 34.6544 39.5916 35.2565 41.2105 35.377C41.3616 35.3887 41.5129 35.3951 41.6643 35.397H45.7645V34.3531H41.6341C40.7113 34.3531 40.3632 34.1222 40.3632 33.5701V28.1701H38.7897V33.5797L38.7899 33.5802ZM29.9779 33.6345V29.9134C29.9779 28.968 30.645 28.3946 31.964 28.2137C32.1049 28.1935 32.2464 28.1837 32.3886 28.1834H35.3755C35.5228 28.1837 35.6694 28.1935 35.8153 28.2137C37.1343 28.3946 37.8012 28.9677 37.8012 29.9134V33.6345C37.8012 34.4015 37.518 34.8121 36.8648 35.0797L38.4148 36.472H36.5878L35.3338 35.3456L34.0715 35.4251H32.3886C32.1006 35.4251 31.7974 35.3847 31.4637 35.2943C30.4611 35.0228 29.9782 34.4999 29.9782 33.6345H29.9779ZM31.6763 33.5419C31.6763 33.5922 31.6916 33.6424 31.7068 33.7028C31.8001 34.1353 32.2071 34.3767 32.8263 34.3767H34.2557L32.9429 33.1972H34.7696L35.9124 34.2259C36.1236 34.114 36.2624 33.9427 36.3089 33.723C36.3242 33.673 36.3242 33.6225 36.3242 33.5722V30.0041C36.3242 29.9642 36.3242 29.9113 36.3089 29.8634C36.2156 29.4613 35.8084 29.2299 35.2022 29.2299H32.8303C32.1309 29.2299 31.6785 29.5315 31.6785 30.0041V33.5446L31.6763 33.5419Z" fill="#E48E00"/>
<path d="M47.1478 26.4392C46.1807 26.4133 45.4416 26.5025 44.8101 26.7674C44.6307 26.843 44.3446 26.8448 44.3152 27.0688C44.4138 27.1717 44.4293 27.3251 44.5074 27.4517C44.6582 27.6946 44.9133 28.0204 45.14 28.1906C45.3882 28.377 45.6438 28.5765 45.9103 28.7382C46.3839 29.0254 46.9125 29.1895 47.3681 29.4773C47.6368 29.6467 47.9034 29.86 48.1657 30.0517C48.2951 30.1464 48.3825 30.2935 48.5505 30.3528V30.3254C48.462 30.2132 48.4392 30.0592 48.3579 29.9424L48.0005 29.5866C47.6507 29.1225 47.2071 28.7196 46.7352 28.3823C46.359 28.1134 45.517 27.7507 45.3601 27.3148L45.3325 27.2874C45.5994 27.2573 45.9117 27.1613 46.1582 27.0959C46.5716 26.9855 46.9411 27.014 47.3684 26.9044L47.9462 26.74V26.6307C47.7301 26.4101 47.5764 26.1185 47.3411 25.9192C46.7253 25.397 46.0529 24.876 45.3609 24.4409C44.9772 24.1996 44.5029 24.0431 44.0959 23.8388C43.959 23.77 43.7186 23.7343 43.6283 23.6196C43.4146 23.3486 43.2983 23.0047 43.1333 22.6914C42.7884 22.0301 42.4491 21.3074 42.1432 20.6115C41.9344 20.1369 41.7981 19.6688 41.5382 19.2429C40.2895 17.1998 38.9448 15.9667 36.8628 14.7549C36.4197 14.4973 35.8866 14.3952 35.3227 14.2623L34.4149 14.2075C34.2301 14.1309 34.0379 13.9058 33.8646 13.7967C33.1745 13.3627 31.4053 12.4199 30.8943 13.6574C30.5718 14.4402 31.3764 15.2039 31.6644 15.6008C31.8662 15.8792 32.1251 16.1908 32.2694 16.5039C32.3641 16.7095 32.3807 16.9158 32.462 17.1335C32.6617 17.6673 32.8358 18.2528 33.0943 18.7481C33.2251 18.9988 33.3692 19.2629 33.5344 19.4871C33.636 19.6247 33.8098 19.6853 33.8371 19.8979C33.6673 20.1346 33.6574 20.5012 33.5617 20.801C33.132 22.1497 33.294 23.826 33.9192 24.8242C34.1112 25.1306 34.5628 25.7877 35.1844 25.5358C35.7277 25.3154 35.6042 24.633 35.7622 24.0306C35.797 23.8937 35.7756 23.7939 35.8446 23.7023V23.7297L36.3398 24.7148C36.7061 25.3019 37.3566 25.9157 37.9074 26.3299C38.193 26.5445 38.4205 26.9158 38.7874 27.0414V27.014H38.7601C38.6884 26.9028 38.5767 26.8571 38.4849 26.768C38.2697 26.558 38.0301 26.2969 37.8521 26.0565C37.3507 25.3793 36.9082 24.6387 36.5047 23.8671C36.312 23.4988 36.1443 23.0924 35.9823 22.7176C35.9197 22.573 35.9205 22.3547 35.79 22.2797C35.612 22.5545 35.3499 22.7764 35.2122 23.1007C34.9922 23.6192 34.9636 24.2513 34.8823 24.9072C34.8339 24.9242 34.8555 24.9125 34.8272 24.9346C34.4443 24.8426 34.3095 24.4502 34.1673 24.1134C33.8071 23.2618 33.7406 21.8913 34.0571 20.9115C34.1387 20.6581 34.5095 19.8594 34.3595 19.6251C34.2879 19.3915 34.0518 19.2539 33.9194 19.0775C33.7563 18.8571 33.5924 18.566 33.4796 18.3112C33.1847 17.6476 33.047 16.9027 32.7368 16.2313C32.5887 15.9106 32.3382 15.5862 32.132 15.303C31.9039 14.9874 31.6486 14.7544 31.4721 14.3748C31.409 14.239 31.3237 14.0221 31.417 13.8821C31.4213 13.862 31.4285 13.8429 31.4384 13.8249C31.4486 13.8068 31.4606 13.7905 31.4753 13.7759C31.49 13.7614 31.5063 13.7492 31.5245 13.7392C31.5427 13.7294 31.562 13.7222 31.582 13.7178C31.7416 13.5955 32.186 13.7583 32.3521 13.8273C32.793 14.0098 33.1614 14.1833 33.5349 14.4296C33.7144 14.5456 33.8956 14.7767 34.1125 14.8402H34.3595C34.7467 14.929 35.1807 14.8681 35.5419 14.9772C36.1815 15.1705 36.7542 15.4715 37.2748 15.7982C38.8601 16.7943 40.1561 18.2122 41.0427 19.9058C41.1855 20.178 41.247 20.4381 41.3727 20.7267C41.6261 21.3069 41.9454 21.9086 42.1978 22.4782C42.4497 23.0467 42.6946 23.6199 43.0505 24.0928C43.2374 24.3411 43.9598 24.4748 44.2879 24.6126C44.5181 24.7094 44.8951 24.8104 45.113 24.941C45.5293 25.1909 45.9328 25.4886 46.3235 25.7626C46.5186 25.8994 47.1189 26.1995 47.1486 26.4466L47.1478 26.4392Z" fill="#00618A"/>
<path fill-rule="evenodd" clip-rule="evenodd" d="M34.8555 16.0121C34.6537 16.0085 34.5112 16.034 34.3604 16.0669V16.0943H34.3879C34.4839 16.2911 34.6537 16.4176 34.7726 16.587L35.0478 17.1616L35.0753 17.1342C35.2454 17.0146 35.3237 16.8237 35.3227 16.5319C35.2542 16.4605 35.2443 16.3709 35.185 16.2855C35.1063 16.1718 34.9518 16.1073 34.855 16.0117L34.8555 16.0121Z" fill="#00618A"/>
<path fill-rule="evenodd" clip-rule="evenodd" d="M46.5049 34.3236C46.5049 35.013 47.0525 35.4776 47.6645 35.4776C48.2765 35.4776 48.8239 35.013 48.8239 34.3236C48.8239 33.6345 48.2765 33.1699 47.6645 33.1699C47.0525 33.1699 46.5049 33.6345 46.5049 34.3236ZM48.5642 34.3236C48.5642 34.8468 48.1624 35.2375 47.664 35.2375C47.1602 35.2375 46.764 34.8468 46.764 34.3236C46.764 33.8005 47.1597 33.4098 47.664 33.4098C48.1618 33.4098 48.5642 33.8005 48.5642 34.3236ZM47.9765 34.9822H48.2362L47.856 34.404C48.06 34.3824 48.2145 34.2838 48.2145 34.0439C48.2145 33.776 48.0442 33.6654 47.7166 33.6654H47.2001V34.9824H47.4228V34.4133H47.63L47.9763 34.9824L47.9765 34.9822ZM47.4228 34.2282V33.8497H47.6795C47.8124 33.8497 47.9733 33.8744 47.9733 34.0284C47.9733 34.213 47.8279 34.2287 47.6608 34.2287H47.4228V34.2282Z" fill="#E48E00"/>
</svg>
