<svg width="50" height="50" viewBox="0 0 50 50" fill="none" xmlns="http://www.w3.org/2000/svg">
<mask id="mask0_693_87" style="mask-type:luminance" maskUnits="userSpaceOnUse" x="41" y="22" width="9" height="10">
<path d="M41.3022 22.9727H49.0188V31.6389H41.3022V22.9727Z" fill="white"/>
</mask>
<g mask="url(#mask0_693_87)">
<path d="M45.1651 22.9727C45.0477 22.9727 44.9336 22.9967 44.8327 23.0535L41.6397 24.8886C41.433 25.007 41.3076 25.2308 41.3076 25.4689V29.1325C41.3076 29.3703 41.433 29.5939 41.6397 29.7126L42.4737 30.1907C42.8787 30.3897 43.0282 30.3865 43.2127 30.3865C43.8124 30.3865 44.1547 30.0243 44.1547 29.3947V25.78C44.1547 25.7289 44.1103 25.6924 44.06 25.6924H43.66C43.6087 25.6924 43.5651 25.7298 43.5651 25.78V29.3963C43.5651 29.6753 43.2731 29.9559 42.7991 29.72L41.9322 29.2141C41.9015 29.1977 41.8779 29.1671 41.8779 29.1333V25.4696C41.8779 25.4349 41.9012 25.3995 41.9322 25.3819L45.1186 23.5534C45.1483 23.5364 45.1841 23.5364 45.2135 23.5534L48.3999 25.3819C48.4301 25.4 48.4541 25.4338 48.4541 25.4696V29.1333C48.4541 29.1681 48.4365 29.204 48.4065 29.2211L45.2135 31.0495C45.1852 31.0657 45.1477 31.0657 45.1186 31.0495L44.2983 30.5636C44.2737 30.5495 44.2405 30.5506 44.217 30.5636C43.9905 30.6913 43.948 30.7062 43.7357 30.7796C43.6833 30.7977 43.6036 30.8258 43.763 30.9147L44.8341 31.5429C44.936 31.6014 45.0496 31.6304 45.1662 31.6304C45.2846 31.6304 45.3964 31.6024 45.4985 31.5429L48.6916 29.7141C48.8983 29.5947 49.0239 29.3721 49.0239 29.1341V25.4705C49.0239 25.2325 48.8983 25.0093 48.6916 24.8902L45.4985 23.0552C45.3985 22.9983 45.2836 22.9743 45.1662 22.9743L45.1651 22.9727ZM46.0191 25.5904C45.11 25.5904 44.5686 25.9756 44.5686 26.616C44.5686 27.3099 45.106 27.5016 45.9785 27.5873C47.0226 27.6891 47.1041 27.8418 47.1041 28.0461C47.1041 28.4011 46.8199 28.5522 46.148 28.5522C45.3041 28.5522 45.1188 28.3426 45.0565 27.924C45.0493 27.879 45.0146 27.8431 44.9686 27.8431H44.5539C44.5416 27.8434 44.5295 27.8458 44.518 27.8508C44.5065 27.8556 44.4964 27.8625 44.4876 27.8713C44.4787 27.8801 44.4718 27.8902 44.467 27.9016C44.4619 27.9131 44.4595 27.925 44.4592 27.9375C44.4592 28.4721 44.7515 29.1046 46.1472 29.1046C47.1576 29.1046 47.7405 28.711 47.7405 28.0184C47.7405 27.3338 47.2696 27.1487 46.2894 27.0197C45.3001 26.8883 45.2049 26.8256 45.2049 26.5947C45.2049 26.4041 45.2849 26.1493 46.0186 26.1493C46.6737 26.1493 46.9156 26.29 47.0151 26.7296C47.0237 26.7708 47.0603 26.8046 47.1031 26.8046H47.5178C47.5432 26.8046 47.5678 26.7889 47.5857 26.7708C47.6028 26.7514 47.6151 26.7296 47.6127 26.7032C47.5488 25.9461 47.0413 25.59 46.0194 25.59L46.0191 25.5904Z" fill="#83CD29"/>
</g>
<mask id="mask1_693_87" style="mask-type:luminance" maskUnits="userSpaceOnUse" x="0" y="18" width="39" height="14">
<path d="M0.857422 18.1426H38.8075V31.7043H0.857422V18.1426Z" fill="white"/>
</mask>
<g mask="url(#mask1_693_87)">
<path d="M26.3923 18.1705C26.356 18.1706 26.3221 18.1795 26.2905 18.1975C26.2752 18.2065 26.2612 18.2172 26.2486 18.2298C26.236 18.2424 26.2253 18.2564 26.2164 18.2718C26.2074 18.2871 26.2007 18.3034 26.196 18.3206C26.1914 18.3376 26.1889 18.3552 26.1889 18.3729V23.5342C26.1889 23.5849 26.1652 23.6302 26.121 23.6557C26.0991 23.6684 26.0753 23.6748 26.0498 23.6748C26.0244 23.6748 26.0007 23.6684 25.9787 23.6557L25.1312 23.17C25.1004 23.1521 25.0677 23.1387 25.0331 23.1294C24.9987 23.1202 24.9636 23.1156 24.9279 23.1156C24.8922 23.1156 24.8571 23.1202 24.8225 23.1294C24.7881 23.1387 24.7554 23.1521 24.7245 23.17L21.3419 25.113C21.2153 25.1855 21.1383 25.3253 21.1383 25.4705V29.3565C21.1382 29.3922 21.1428 29.4273 21.1521 29.4616C21.1613 29.4959 21.1748 29.5286 21.1926 29.5592C21.2105 29.59 21.2321 29.618 21.2573 29.643C21.2826 29.6682 21.3107 29.6898 21.3417 29.7073L24.7247 31.6504C24.7555 31.6685 24.7882 31.6818 24.8228 31.6911C24.8572 31.7004 24.8923 31.7049 24.928 31.7049C24.9637 31.7049 24.9988 31.7004 25.0334 31.6911C25.0678 31.6818 25.1005 31.6685 25.1314 31.6504L28.5143 29.7073C28.5453 29.6898 28.5734 29.6682 28.5988 29.643C28.6239 29.618 28.6456 29.59 28.6635 29.5592C28.6814 29.5286 28.6948 29.4959 28.7042 29.4616C28.7132 29.4273 28.7178 29.3922 28.7178 29.3565V19.6683C28.7178 19.5208 28.637 19.3826 28.5076 19.3107L26.4941 18.1902C26.4624 18.1728 26.4274 18.1697 26.3924 18.1699L26.3923 18.1705ZM4.63004 23.0214C4.56547 23.0241 4.50493 23.0352 4.44699 23.0687L1.06414 25.0117C1.03309 25.0294 1.00503 25.0509 0.979703 25.0759C0.954372 25.1011 0.932808 25.129 0.915011 25.1598C0.897086 25.1907 0.883575 25.2232 0.874484 25.2576C0.86526 25.292 0.860714 25.327 0.860842 25.3625L0.867727 30.5778C0.867727 30.6504 0.905399 30.718 0.969441 30.7533C1.03231 30.7908 1.11025 30.7908 1.17274 30.7533L3.17943 29.6063C3.30675 29.5313 3.38961 29.4004 3.38961 29.2555V26.8198C3.38961 26.6744 3.46638 26.5412 3.59317 26.469L4.44739 25.9765C4.51025 25.9401 4.57795 25.9221 4.65068 25.9225C4.72344 25.922 4.79124 25.9401 4.8541 25.9765L5.70795 26.4687C5.83461 26.5409 5.91138 26.6743 5.91138 26.8193V29.2549C5.91138 29.3999 5.99619 29.5315 6.12143 29.6057L8.12811 30.7528C8.19124 30.7903 8.26905 30.7903 8.33154 30.7528C8.39365 30.7172 8.43325 30.6499 8.43325 30.5775L8.44001 25.3621C8.44028 25.3265 8.43574 25.2916 8.42664 25.2571C8.41742 25.2227 8.40402 25.1901 8.38611 25.1593C8.36817 25.1285 8.34662 25.1005 8.32127 25.0754C8.29595 25.0504 8.26777 25.0289 8.23672 25.0113L4.85386 23.0689C4.7967 23.0356 4.73576 23.0243 4.67082 23.0216H4.63028L4.63004 23.0214ZM35.029 23.0687C34.9563 23.0685 34.8884 23.0865 34.8255 23.1227L31.4424 25.0659C31.3162 25.1385 31.2389 25.2713 31.2389 25.4165V29.3025C31.2389 29.4488 31.3218 29.581 31.4491 29.6533L34.805 31.5568C34.9288 31.6273 35.0801 31.6326 35.205 31.5634L37.2389 30.4366C37.3034 30.4009 37.3469 30.3345 37.3472 30.2613C37.3472 30.1882 37.309 30.1222 37.2453 30.0861L33.8419 28.143C33.7782 28.1068 33.7336 28.0334 33.7336 27.9608V26.7454C33.7336 26.6728 33.7788 26.6063 33.8419 26.5701L34.8996 25.9628C34.9624 25.9266 35.0397 25.9266 35.1031 25.9628L36.163 26.5701C36.1785 26.5789 36.1927 26.5896 36.2052 26.6023C36.2178 26.6148 36.2288 26.6289 36.2376 26.644C36.2467 26.6595 36.2534 26.6757 36.2579 26.693C36.2624 26.7103 36.2649 26.7275 36.2649 26.7454V27.7033C36.2646 27.7212 36.267 27.7387 36.2715 27.7557C36.2763 27.773 36.283 27.7892 36.2919 27.8047C36.3007 27.8201 36.3116 27.8342 36.3242 27.8467C36.3368 27.8592 36.3509 27.8698 36.3665 27.8789C36.4298 27.9153 36.5066 27.9153 36.5699 27.8789L38.5967 26.7049C38.7226 26.6321 38.8001 26.4988 38.8001 26.3541V25.4164C38.8001 25.3809 38.7956 25.346 38.7865 25.3116C38.7772 25.2772 38.7635 25.2447 38.7459 25.2139C38.728 25.183 38.7063 25.1551 38.6812 25.1299C38.6558 25.1049 38.6277 25.0834 38.5967 25.0656L35.2341 23.1225C35.1713 23.0862 35.1036 23.0683 35.0306 23.0685L35.029 23.0687ZM24.9139 25.9699C24.9331 25.9698 24.9511 25.9743 24.9681 25.9834L26.1274 26.6512C26.1588 26.6693 26.1817 26.7028 26.1817 26.739V28.0749C26.1817 28.1111 26.1591 28.1446 26.1274 28.1624L24.9681 28.8305C24.9366 28.8483 24.898 28.8483 24.8663 28.8305L23.7071 28.1624C23.6755 28.1443 23.6528 28.1111 23.6528 28.0749V26.7392C23.6528 26.7031 23.6756 26.6701 23.7071 26.6517L24.8663 25.9838C24.8822 25.9747 24.8962 25.9704 24.9139 25.9704V25.9699Z" fill="#404137"/>
</g>
<path d="M14.7928 23.0488C14.72 23.0487 14.6522 23.0667 14.5892 23.1028L11.2062 25.0392C11.0798 25.1118 11.0029 25.2516 11.0029 25.3967V29.2828C11.0028 29.3182 11.0073 29.3533 11.0166 29.3876C11.0258 29.4222 11.0393 29.4547 11.0571 29.4855C11.075 29.5164 11.0966 29.5443 11.1218 29.5693C11.1471 29.5945 11.1753 29.6158 11.2062 29.6334L14.5892 31.5767C14.6201 31.5945 14.6527 31.6081 14.6873 31.6172C14.7217 31.6265 14.7569 31.6312 14.7926 31.6312C14.8282 31.6312 14.8634 31.6265 14.8979 31.6172C14.9324 31.6081 14.965 31.5945 14.9959 31.5767L18.3789 29.6334C18.4098 29.6158 18.438 29.5943 18.4632 29.5693C18.4885 29.544 18.5101 29.5161 18.5279 29.4852C18.5458 29.4547 18.5594 29.4219 18.5686 29.3876C18.5778 29.3533 18.5823 29.3182 18.5823 29.2828V25.3968C18.5823 25.2516 18.5054 25.1118 18.3788 25.0393L14.9958 23.103C14.9329 23.0667 14.8651 23.0487 14.7924 23.049L14.7928 23.0488ZM35.0229 26.5167C35.0093 26.5167 34.9943 26.5167 34.982 26.5233L34.3312 26.9012C34.3189 26.9078 34.309 26.9174 34.3018 26.9294C34.2946 26.9416 34.2908 26.9547 34.2906 26.9685V27.7108C34.2906 27.7387 34.3069 27.7642 34.3312 27.7783L34.982 28.1493C34.9935 28.1562 35.0058 28.16 35.0192 28.16C35.0326 28.16 35.0451 28.1562 35.0566 28.1493L35.7074 27.7783C35.7315 27.7645 35.7481 27.7387 35.7481 27.7108V26.9685C35.7481 26.9406 35.7315 26.9153 35.7074 26.9012L35.0566 26.5232C35.0446 26.516 35.0363 26.5166 35.0227 26.5166L35.0229 26.5167Z" fill="#83CD29"/>
</svg>
