<svg width="50" height="50" viewBox="0 0 50 50" fill="none" xmlns="http://www.w3.org/2000/svg">
<mask id="mask0_693_71" style="mask-type:luminance" maskUnits="userSpaceOnUse" x="0" y="12" width="50" height="26">
<path d="M0.886719 12.2559H49.1386V37.6596H0.886719V12.2559Z" fill="white"/>
</mask>
<g mask="url(#mask0_693_71)">
<mask id="mask1_693_71" style="mask-type:luminance" maskUnits="userSpaceOnUse" x="0" y="12" width="50" height="26">
<path d="M49.1388 24.9602C49.1388 25.1679 49.1289 25.3755 49.1095 25.5829C49.0901 25.7904 49.0614 25.9974 49.0226 26.2041C48.984 26.4109 48.9356 26.6169 48.8776 26.8225C48.8196 27.0278 48.7523 27.2323 48.6752 27.436C48.5981 27.6398 48.5117 27.8424 48.4156 28.0438C48.3196 28.2454 48.2146 28.4454 48.1 28.644C47.9853 28.843 47.8614 29.04 47.7284 29.2355C47.5954 29.431 47.4534 29.6249 47.3023 29.8166C47.1513 30.0087 46.9912 30.1983 46.8223 30.386C46.6537 30.5741 46.476 30.7595 46.2901 30.9427C46.1039 31.1257 45.9093 31.3063 45.7063 31.4844C45.5031 31.6626 45.2922 31.8379 45.0728 32.0108C44.8534 32.1834 44.6263 32.3531 44.3909 32.5201C44.1558 32.6868 43.9127 32.8504 43.6625 33.011C43.4119 33.1717 43.1542 33.3289 42.8891 33.4829C42.6236 33.6366 42.3516 33.7871 42.0723 33.9339C41.793 34.0807 41.5074 34.2238 41.2148 34.3634C40.9223 34.5028 40.6234 34.6384 40.318 34.7701C40.013 34.902 39.7018 35.0297 39.3845 35.1533C39.0675 35.2773 38.7446 35.3967 38.4164 35.5121C38.0883 35.6275 37.7547 35.7387 37.4159 35.8454C37.0774 35.952 36.7337 36.0544 36.3856 36.1523C36.0375 36.2504 35.6848 36.3435 35.3279 36.4326C34.971 36.5212 34.6101 36.6055 34.2454 36.6847C33.8805 36.7642 33.5125 36.839 33.1404 36.9089C32.7688 36.9791 32.3938 37.044 32.0162 37.1044C31.6383 37.1648 31.2579 37.2201 30.875 37.2706C30.4917 37.3212 30.1069 37.3666 29.7196 37.4071C29.3321 37.4475 28.9433 37.4831 28.5529 37.5134C28.1622 37.544 27.7704 37.5693 27.3776 37.5898C26.9845 37.61 26.5909 37.6254 26.1965 37.6355C25.8022 37.6456 25.4076 37.6509 25.0127 37.6509C24.6179 37.6509 24.2232 37.6456 23.8289 37.6355C23.4345 37.6254 23.041 37.61 22.648 37.5898C22.255 37.5693 21.8634 37.544 21.4727 37.5134C21.0822 37.4831 20.6932 37.4475 20.306 37.4071C19.9188 37.3666 19.5336 37.3212 19.1506 37.2706C18.7676 37.2201 18.3872 37.1648 18.0093 37.1044C17.6315 37.044 17.2567 36.9791 16.8849 36.9089C16.5132 36.839 16.1449 36.7642 15.7802 36.6847C15.4153 36.6055 15.0545 36.5212 14.6975 36.4326C14.3406 36.3435 13.988 36.2504 13.6398 36.1523C13.2916 36.0544 12.9482 35.952 12.6095 35.8454C12.2708 35.7387 11.9373 35.6275 11.609 35.5121C11.2807 35.3967 10.9581 35.2773 10.6409 35.1533C10.3238 35.0297 10.0126 34.902 9.70732 34.7701C9.40214 34.6384 9.10328 34.5028 8.81075 34.3634C8.51823 34.2238 8.23227 34.0807 7.95304 33.9339C7.67397 33.7871 7.40171 33.6366 7.13658 33.4829C6.87144 33.3289 6.61355 33.1717 6.36312 33.011C6.11259 32.8504 5.86982 32.6868 5.63453 32.5201C5.39937 32.3531 5.17208 32.1834 4.95267 32.0108C4.73341 31.8379 4.52216 31.6626 4.31916 31.4844C4.11618 31.3063 3.92158 31.1257 3.73554 30.9427C3.54934 30.7595 3.37192 30.5741 3.20307 30.386C3.03432 30.1983 2.87434 30.0087 2.72331 29.8166C2.57213 29.6249 2.43013 29.431 2.29704 29.2355C2.16408 29.04 2.04017 28.843 1.92556 28.644C1.81095 28.4454 1.70578 28.2454 1.60977 28.0438C1.5139 27.8424 1.42733 27.6398 1.35032 27.436C1.27331 27.2323 1.20587 27.0278 1.14785 26.8225C1.08997 26.6169 1.04164 26.4109 1.00288 26.2041C0.964245 25.9974 0.935171 25.7904 0.915791 25.5829C0.89641 25.3755 0.886719 25.1679 0.886719 24.9602C0.886719 24.7526 0.89641 24.5449 0.915791 24.3376C0.935171 24.13 0.964245 23.923 1.00288 23.7163C1.04164 23.5096 1.08997 23.3036 1.14785 23.098C1.20587 22.8926 1.27331 22.6881 1.35032 22.4844C1.42733 22.2807 1.5139 22.0781 1.60977 21.8766C1.70578 21.6752 1.81095 21.475 1.92556 21.2763C2.04017 21.0776 2.16408 20.8804 2.29704 20.6848C2.43013 20.4893 2.57213 20.2956 2.72331 20.1038C2.87434 19.9119 3.03432 19.7221 3.20307 19.5343C3.37192 19.3464 3.54934 19.161 3.73554 18.9779C3.92158 18.7947 4.11618 18.6141 4.31916 18.4359C4.52216 18.2577 4.73341 18.0824 4.95267 17.9096C5.17208 17.737 5.39937 17.5672 5.63453 17.4004C5.86982 17.2336 6.11259 17.0699 6.36312 16.9093C6.61355 16.7488 6.87144 16.5916 7.13658 16.4377C7.40171 16.2838 7.67397 16.1334 7.95304 15.9866C8.23227 15.8397 8.51823 15.6966 8.81075 15.5571C9.10328 15.4176 9.40214 15.2819 9.70732 15.1502C10.0126 15.0184 10.3238 14.8907 10.6409 14.767C10.9581 14.6432 11.2807 14.5237 11.609 14.4083C11.9373 14.2929 12.2708 14.1818 12.6095 14.0751C12.9482 13.9684 13.2916 13.8659 13.6398 13.7681C13.988 13.6701 14.3406 13.5769 14.6975 13.488C15.0545 13.3992 15.4153 13.3151 15.7802 13.2356C16.1449 13.1562 16.5132 13.0813 16.8849 13.0114C17.2567 12.9414 17.6315 12.8763 18.0093 12.8161C18.3872 12.7557 18.7676 12.7003 19.1506 12.6499C19.5336 12.5994 19.9188 12.5539 20.306 12.5135C20.6932 12.4729 21.0822 12.4374 21.4727 12.4069C21.8634 12.3765 22.255 12.351 22.648 12.3306C23.041 12.3104 23.4345 12.2951 23.8289 12.2849C24.2232 12.2747 24.6179 12.2695 25.0127 12.2695C25.4076 12.2695 25.8022 12.2747 26.1965 12.2849C26.5909 12.2951 26.9845 12.3104 27.3776 12.3306C27.7704 12.351 28.1622 12.3765 28.5529 12.4069C28.9433 12.4374 29.3321 12.4729 29.7196 12.5135C30.1069 12.5539 30.4917 12.5994 30.875 12.6499C31.2579 12.7003 31.6383 12.7557 32.0162 12.8161C32.3938 12.8763 32.7688 12.9414 33.1404 13.0114C33.5125 13.0813 33.8805 13.1562 34.2454 13.2356C34.6101 13.3151 34.971 13.3992 35.3279 13.488C35.6848 13.5769 36.0375 13.6701 36.3856 13.7681C36.7337 13.8659 37.0774 13.9684 37.4159 14.0751C37.7547 14.1818 38.0883 14.2929 38.4164 14.4083C38.7446 14.5237 39.0675 14.6432 39.3845 14.767C39.7018 14.8907 40.013 15.0184 40.318 15.1502C40.6234 15.2819 40.9223 15.4176 41.2148 15.5571C41.5074 15.6966 41.793 15.8397 42.0723 15.9866C42.3516 16.1334 42.6236 16.2838 42.8891 16.4377C43.1542 16.5916 43.4119 16.7488 43.6625 16.9093C43.9127 17.0699 44.1558 17.2336 44.3909 17.4004C44.6263 17.5672 44.8534 17.737 45.0728 17.9096C45.2922 18.0824 45.5031 18.2577 45.7063 18.4359C45.9093 18.6141 46.1039 18.7947 46.2901 18.9779C46.476 19.161 46.6537 19.3464 46.8223 19.5343C46.9912 19.7221 47.1513 19.9119 47.3023 20.1038C47.4534 20.2956 47.5954 20.4893 47.7284 20.6848C47.8614 20.8804 47.9853 21.0776 48.1 21.2763C48.2146 21.475 48.3196 21.6752 48.4156 21.8766C48.5117 22.0781 48.5981 22.2807 48.6752 22.4844C48.7523 22.6881 48.8196 22.8926 48.8776 23.098C48.9356 23.3036 48.984 23.5096 49.0226 23.7163C49.0614 23.923 49.0901 24.13 49.1095 24.3376C49.1289 24.5449 49.1388 24.7526 49.1388 24.9602Z" fill="white"/>
</mask>
<g mask="url(#mask1_693_71)">
<path d="M0.886719 12.2695V37.6509H49.1388V12.2695H0.886719Z" fill="url(#paint0_radial_693_71)"/>
</g>
</g>
<path d="M48.1953 24.9588C48.1953 25.151 48.1858 25.3432 48.1672 25.5352C48.1488 25.7272 48.1209 25.9189 48.0836 26.1103C48.0464 26.3017 47.9999 26.4924 47.9443 26.6825C47.8887 26.8727 47.8238 27.0621 47.7499 27.2506C47.6757 27.4392 47.5927 27.6269 47.5004 27.8134C47.4084 27.9998 47.3071 28.1849 47.1969 28.369C47.0868 28.553 46.968 28.7355 46.84 28.9166C46.7124 29.0974 46.5757 29.2769 46.4305 29.4546C46.2852 29.6323 46.1315 29.8078 45.9695 29.9817C45.807 30.1554 45.6366 30.3269 45.4578 30.4966C45.2789 30.6663 45.0919 30.8333 44.8969 30.9985C44.702 31.1634 44.4988 31.3256 44.2882 31.4855C44.0773 31.6453 43.8589 31.8025 43.6328 31.957C43.4068 32.1115 43.1735 32.2629 42.9328 32.4115C42.6922 32.5602 42.4443 32.7057 42.1895 32.8482C41.9347 32.9905 41.6733 33.1296 41.4049 33.2658C41.1366 33.4017 40.8618 33.5344 40.581 33.6634C40.2996 33.7924 40.0124 33.9182 39.7193 34.04C39.4259 34.1621 39.127 34.2801 38.8222 34.3948C38.5174 34.5094 38.2073 34.62 37.8919 34.7267C37.5765 34.8336 37.2557 34.9363 36.9305 35.0352C36.6049 35.1341 36.2749 35.2288 35.9403 35.3195C35.6057 35.4099 35.2669 35.4964 34.9241 35.5785C34.581 35.661 34.2342 35.7387 33.8836 35.8123C33.5331 35.886 33.1791 35.9551 32.8219 36.0198C32.4648 36.0847 32.1047 36.145 31.7416 36.2009C31.3783 36.2567 31.0129 36.3078 30.6448 36.3546C30.2767 36.4012 29.9068 36.4434 29.5347 36.4809C29.1626 36.5184 28.7887 36.5511 28.4134 36.5796C28.0382 36.6078 27.6616 36.6312 27.2842 36.6501C26.9065 36.669 26.5282 36.6831 26.1492 36.6924C25.7702 36.7019 25.3911 36.7067 25.0117 36.7067C24.6323 36.7067 24.2531 36.7019 23.8741 36.6924C23.4951 36.6831 23.1169 36.669 22.7393 36.6501C22.3617 36.6312 21.9853 36.6078 21.61 36.5796C21.2346 36.5511 20.8609 36.5184 20.4888 36.4809C20.1167 36.4434 19.7466 36.4012 19.3785 36.3546C19.0105 36.3078 18.645 36.2567 18.2819 36.2009C17.9188 36.145 17.5586 36.0847 17.2013 36.0198C16.8442 35.9551 16.4903 35.886 16.1398 35.8123C15.7892 35.7387 15.4424 35.661 15.0995 35.5785C14.7564 35.4964 14.4176 35.4099 14.083 35.3195C13.7485 35.2288 13.4184 35.1341 13.093 35.0352C12.7675 34.9363 12.4471 34.8336 12.1315 34.7267C11.8161 34.62 11.506 34.5094 11.2012 34.3948C10.8966 34.2801 10.5974 34.1621 10.3041 34.04C10.011 33.9182 9.72373 33.7924 9.44256 33.6634C9.16141 33.5344 8.8867 33.4017 8.61846 33.2658C8.35011 33.1296 8.08859 32.9905 7.83378 32.8482C7.57899 32.7057 7.33128 32.5602 7.09056 32.4115C6.84984 32.2629 6.61649 32.1115 6.39051 31.957C6.16452 31.8025 5.94604 31.6453 5.7353 31.4855C5.52442 31.3256 5.32157 31.1634 5.12647 30.9985C4.93147 30.8333 4.74452 30.6663 4.56556 30.4966C4.38673 30.3269 4.21617 30.1554 4.05402 29.9817C3.89173 29.8078 3.73809 29.6323 3.59288 29.4546C3.44764 29.2769 3.3112 29.0974 3.18341 28.9166C3.05548 28.7355 2.93649 28.553 2.82639 28.369C2.71631 28.1849 2.61514 27.9998 2.52289 27.8134C2.43076 27.6269 2.34768 27.4392 2.27364 27.2506C2.1996 27.0621 2.13474 26.8727 2.07905 26.6825C2.02336 26.4924 1.97698 26.3017 1.93976 26.1103C1.90255 25.9189 1.87464 25.7272 1.85603 25.5352C1.83743 25.3432 1.82812 25.151 1.82812 24.9588C1.82812 24.7665 1.83743 24.5744 1.85603 24.3824C1.87464 24.1904 1.90255 23.9986 1.93976 23.8073C1.97698 23.6159 2.02336 23.4252 2.07905 23.235C2.13474 23.0448 2.1996 22.8555 2.27364 22.6669C2.34768 22.4784 2.43076 22.2908 2.52289 22.1043C2.61514 21.9179 2.71631 21.7326 2.82639 21.5486C2.93649 21.3646 3.05548 21.1821 3.18341 21.0011C3.3112 20.8201 3.44764 20.6408 3.59288 20.4631C3.73809 20.2854 3.89173 20.1098 4.05402 19.9359C4.21617 19.7621 4.38673 19.5905 4.56556 19.4209C4.74452 19.2514 4.93147 19.0842 5.12647 18.9192C5.32157 18.7543 5.52442 18.5919 5.7353 18.432C5.94604 18.2722 6.16452 18.1151 6.39051 17.9607C6.61649 17.8061 6.84984 17.6547 7.09056 17.5061C7.33128 17.3574 7.57899 17.2119 7.83378 17.0694C8.08859 16.927 8.35011 16.7879 8.61846 16.6518C8.8867 16.5159 9.16141 16.3834 9.44256 16.2542C9.72373 16.1251 10.011 15.9995 10.3041 15.8776C10.5974 15.7556 10.8966 15.6374 11.2012 15.5229C11.506 15.4083 11.8161 15.2977 12.1315 15.1908C12.4471 15.0841 12.7675 14.9812 13.093 14.8824C13.4184 14.7835 13.7485 14.6888 14.083 14.5981C14.4176 14.5076 14.7564 14.4211 15.0995 14.3389C15.4424 14.2568 15.7892 14.1788 16.1398 14.1052C16.4903 14.0317 16.8442 13.9624 17.2013 13.8977C17.5586 13.833 17.9188 13.7726 18.2819 13.7168C18.645 13.661 19.0105 13.6098 19.3785 13.563C19.7466 13.5164 20.1167 13.4743 20.4888 13.4367C20.8609 13.3992 21.2346 13.3664 21.61 13.3381C21.9853 13.3099 22.3617 13.2864 22.7393 13.2675C23.1169 13.2487 23.4951 13.2346 23.8741 13.2251C24.2531 13.2157 24.6323 13.2109 25.0117 13.2109C25.3911 13.2109 25.7702 13.2157 26.1492 13.2251C26.5282 13.2346 26.9065 13.2487 27.2842 13.2675C27.6616 13.2864 28.0382 13.3099 28.4134 13.3381C28.7887 13.3664 29.1626 13.3992 29.5347 13.4367C29.9068 13.4743 30.2767 13.5164 30.6448 13.563C31.0129 13.6098 31.3783 13.661 31.7416 13.7168C32.1047 13.7726 32.4648 13.833 32.8219 13.8977C33.1791 13.9624 33.5331 14.0317 33.8836 14.1052C34.2342 14.1788 34.581 14.2568 34.9241 14.3389C35.2669 14.4211 35.6057 14.5076 35.9403 14.5981C36.2749 14.6888 36.6049 14.7835 36.9305 14.8824C37.2557 14.9812 37.5765 15.0841 37.8919 15.1908C38.2073 15.2977 38.5174 15.4083 38.8222 15.5229C39.127 15.6374 39.4259 15.7556 39.7193 15.8776C40.0124 15.9995 40.2996 16.1251 40.581 16.2542C40.8618 16.3834 41.1366 16.5159 41.4049 16.6518C41.6733 16.7879 41.9347 16.927 42.1895 17.0694C42.4443 17.2119 42.6922 17.3574 42.9328 17.5061C43.1735 17.6547 43.4068 17.8061 43.6328 17.9607C43.8589 18.1151 44.0773 18.2722 44.2882 18.432C44.4988 18.5919 44.702 18.7543 44.8969 18.9192C45.0919 19.0842 45.2789 19.2514 45.4578 19.4209C45.6366 19.5905 45.807 19.7621 45.9695 19.9359C46.1315 20.1098 46.2852 20.2854 46.4305 20.4631C46.5757 20.6408 46.7124 20.8201 46.84 21.0011C46.968 21.1821 47.0868 21.3646 47.1969 21.5486C47.3071 21.7326 47.4084 21.9179 47.5004 22.1043C47.5927 22.2908 47.6757 22.4784 47.7499 22.6669C47.8238 22.8555 47.8887 23.0448 47.9443 23.235C47.9999 23.4252 48.0464 23.6159 48.0836 23.8073C48.1209 23.9986 48.1488 24.1904 48.1672 24.3824C48.1858 24.5744 48.1953 24.7665 48.1953 24.9588Z" fill="#6181B6"/>
<path d="M29.7056 28.7689L30.8554 22.8478C31.1192 21.5089 30.8931 20.5095 30.2147 19.8872C29.5548 19.2838 28.424 18.9821 26.7655 18.9821H24.7674L25.3328 16.0404C25.3517 15.9273 25.3328 15.8141 25.2575 15.7198C25.182 15.6256 25.0878 15.5879 24.9747 15.5879H22.2229C22.0343 15.5879 21.8835 15.7198 21.8458 15.8896L20.6206 22.1689C20.5076 21.4523 20.2438 20.8489 19.7914 20.3587C18.9809 19.4347 17.7181 18.9632 16.0028 18.9632H10.7064C10.5179 18.9632 10.3671 19.0953 10.3295 19.2649L7.86033 32.0123C7.84144 32.1253 7.86033 32.2386 7.93578 32.3327C8.0111 32.4269 8.1053 32.4646 8.21849 32.4646H10.9891C11.1776 32.4646 11.3284 32.3327 11.3662 32.1631L11.9693 29.0894H14.0237C15.0981 29.0894 16.0217 28.9761 16.7191 28.75C17.4541 28.5048 18.1139 28.1088 18.6981 27.562C19.1694 27.1282 19.5651 26.6381 19.8667 26.1099L19.3768 28.6556C19.3579 28.7689 19.3768 28.8819 19.4521 28.9761C19.5275 29.0705 19.6217 29.1083 19.7348 29.1083H22.4867C22.6752 29.1083 22.826 28.9761 22.8637 28.8067L24.2208 21.8295H26.1056C26.9163 21.8295 27.1423 21.9803 27.2176 22.0557C27.2742 22.1123 27.3873 22.3386 27.2554 23.0363L26.1622 28.6745C26.1433 28.7878 26.1622 28.9008 26.2375 28.995C26.313 29.0894 26.4072 29.1271 26.5202 29.1271H29.3476C29.5171 29.0705 29.6679 28.9386 29.7056 28.7689ZM16.9642 23.866C16.7945 24.7523 16.4741 25.3935 16.0028 25.7516C15.5316 26.1099 14.7588 26.2986 13.741 26.2986H12.5159L13.4017 21.7352H14.9851C16.1536 21.7352 16.6248 21.9803 16.8134 22.1878C17.0584 22.4895 17.115 23.074 16.9642 23.866Z" fill="white"/>
<path d="M41.4666 20.3583C40.6563 19.4344 39.3932 18.9629 37.6781 18.9629H32.344C32.1555 18.9629 32.0047 19.0949 31.9669 19.2646L29.498 31.993C29.4791 32.106 29.498 32.2193 29.5733 32.3135C29.6488 32.4079 29.743 32.4454 29.856 32.4454H32.6267C32.8153 32.4454 32.9661 32.3135 33.0036 32.1438L33.6068 29.0701H35.6613C36.7355 29.0701 37.6592 28.9571 38.3568 28.7308C39.0916 28.4856 39.7515 28.0895 40.3358 27.5427C40.8257 27.0901 41.2406 26.5811 41.5422 26.0343C41.8438 25.4873 42.0698 24.8839 42.2017 24.2239C42.5222 22.5835 42.2773 21.3012 41.4666 20.3583ZM38.5829 23.8656C38.4132 24.752 38.093 25.3931 37.6217 25.7513C37.1504 26.1096 36.3775 26.2982 35.3597 26.2982H34.1347L35.0206 21.7348H36.6036C37.7725 21.7348 38.2438 21.9799 38.4321 22.1874C38.6959 22.4891 38.7525 23.0737 38.5829 23.8656Z" fill="white"/>
<path d="M14.985 21.3575C16.0405 21.3575 16.7379 21.5461 17.0961 21.9421C17.4541 22.338 17.5295 22.998 17.341 23.9409C17.1525 24.9214 16.7756 25.638 16.2291 26.0529C15.6824 26.4677 14.8531 26.6753 13.741 26.6753H12.0635L13.1001 21.3575H14.985ZM8.2373 32.0681H11.0079L11.6677 28.6928H14.0426C15.0981 28.6928 15.9462 28.5798 16.6248 28.3535C17.3033 28.1271 17.9065 27.7689 18.472 27.241C18.9432 26.8072 19.3201 26.3357 19.6028 25.8265C19.8855 25.3174 20.0929 24.7518 20.206 24.1295C20.5076 22.6209 20.2815 21.4518 19.5464 20.6032C18.8112 19.7547 17.6426 19.3398 16.0405 19.3398H10.7064L8.2373 32.0681Z" fill="#000004"/>
<path d="M22.2417 15.9648H24.9934L24.3338 19.3402H26.784C28.3295 19.3402 29.3851 19.6042 29.9694 20.151C30.5537 20.6979 30.7234 21.5653 30.4973 22.7721L29.3476 28.6932H26.5579L27.6511 23.055C27.783 22.4138 27.7266 21.9801 27.5191 21.7538C27.312 21.5276 26.8407 21.3955 26.1433 21.3955H23.9379L22.5244 28.6932H19.7725L22.2417 15.9648Z" fill="#000004"/>
<path d="M36.6041 21.3575C37.6596 21.3575 38.3572 21.5461 38.7152 21.9421C39.0735 22.338 39.1487 22.998 38.9602 23.9409C38.7719 24.9214 38.3947 25.638 37.8482 26.0529C37.3017 26.4677 36.4721 26.6753 35.3602 26.6753H33.6828L34.7195 21.3575H36.6041ZM29.8564 32.0681H32.6272L33.2868 28.6928H35.6618C36.7174 28.6928 37.5655 28.5798 38.2442 28.3535C38.9227 28.1271 39.5256 27.7689 40.091 27.241C40.5623 26.8072 40.9394 26.3357 41.2221 25.8265C41.5048 25.3174 41.7123 24.7518 41.8253 24.1295C42.1269 22.6209 41.9006 21.4518 41.1655 20.6032C40.4304 19.7547 39.2618 19.3398 37.6596 19.3398H32.3256L29.8564 32.0681Z" fill="#000004"/>
<defs>
<radialGradient id="paint0_radial_693_71" cx="0" cy="0" r="1" gradientUnits="userSpaceOnUse" gradientTransform="translate(15.372 16.7326) scale(31.6835 31.6976)">
<stop stop-color="#FEFEFF"/>
<stop offset="0.00390625" stop-color="#FDFDFE"/>
<stop offset="0.0078125" stop-color="#FCFCFD"/>
<stop offset="0.0117188" stop-color="#FAFBFC"/>
<stop offset="0.015625" stop-color="#F9FAFB"/>
<stop offset="0.0195312" stop-color="#F7F9FB"/>
<stop offset="0.0234375" stop-color="#F6F7FA"/>
<stop offset="0.0273438" stop-color="#F5F6F9"/>
<stop offset="0.03125" stop-color="#F3F5F8"/>
<stop offset="0.0351562" stop-color="#F2F4F7"/>
<stop offset="0.0390625" stop-color="#F0F3F6"/>
<stop offset="0.0429688" stop-color="#EFF2F6"/>
<stop offset="0.046875" stop-color="#EEF1F5"/>
<stop offset="0.0507812" stop-color="#ECEFF4"/>
<stop offset="0.0546875" stop-color="#EBEEF3"/>
<stop offset="0.0585938" stop-color="#E9EDF2"/>
<stop offset="0.0625" stop-color="#E8ECF2"/>
<stop offset="0.0664062" stop-color="#E7EBF1"/>
<stop offset="0.0703125" stop-color="#E5EAF0"/>
<stop offset="0.0742188" stop-color="#E4E8EF"/>
<stop offset="0.078125" stop-color="#E2E7EE"/>
<stop offset="0.0820312" stop-color="#E1E6EE"/>
<stop offset="0.0859375" stop-color="#E0E5ED"/>
<stop offset="0.0898438" stop-color="#DEE4EC"/>
<stop offset="0.09375" stop-color="#DDE3EB"/>
<stop offset="0.0976562" stop-color="#DBE2EA"/>
<stop offset="0.101562" stop-color="#DAE0E9"/>
<stop offset="0.105469" stop-color="#D9DFE9"/>
<stop offset="0.109375" stop-color="#D7DEE8"/>
<stop offset="0.113281" stop-color="#D6DDE7"/>
<stop offset="0.117188" stop-color="#D4DCE6"/>
<stop offset="0.121094" stop-color="#D3DBE5"/>
<stop offset="0.125" stop-color="#D2D9E5"/>
<stop offset="0.128906" stop-color="#D0D8E4"/>
<stop offset="0.132812" stop-color="#CFD7E3"/>
<stop offset="0.136719" stop-color="#CDD6E2"/>
<stop offset="0.140625" stop-color="#CCD5E1"/>
<stop offset="0.144531" stop-color="#CBD4E1"/>
<stop offset="0.148438" stop-color="#C9D3E0"/>
<stop offset="0.152344" stop-color="#C8D1DF"/>
<stop offset="0.15625" stop-color="#C6D0DE"/>
<stop offset="0.160156" stop-color="#C5CFDD"/>
<stop offset="0.164062" stop-color="#C4CEDC"/>
<stop offset="0.167969" stop-color="#C2CDDC"/>
<stop offset="0.171875" stop-color="#C1CCDB"/>
<stop offset="0.175781" stop-color="#BFCADA"/>
<stop offset="0.179688" stop-color="#BEC9D9"/>
<stop offset="0.183594" stop-color="#BDC8D8"/>
<stop offset="0.1875" stop-color="#BBC7D8"/>
<stop offset="0.191406" stop-color="#BAC6D7"/>
<stop offset="0.195312" stop-color="#B8C5D6"/>
<stop offset="0.199219" stop-color="#B7C3D5"/>
<stop offset="0.203125" stop-color="#B6C2D4"/>
<stop offset="0.207031" stop-color="#B4C1D4"/>
<stop offset="0.210938" stop-color="#B3C0D3"/>
<stop offset="0.214844" stop-color="#B1BFD2"/>
<stop offset="0.21875" stop-color="#B0BED1"/>
<stop offset="0.222656" stop-color="#AFBDD0"/>
<stop offset="0.226562" stop-color="#ADBBCF"/>
<stop offset="0.230469" stop-color="#ACBACF"/>
<stop offset="0.234375" stop-color="#AAB9CE"/>
<stop offset="0.238281" stop-color="#A9B8CD"/>
<stop offset="0.242188" stop-color="#A8B7CC"/>
<stop offset="0.246094" stop-color="#A6B6CB"/>
<stop offset="0.25" stop-color="#A5B4CB"/>
<stop offset="0.253906" stop-color="#A3B3CA"/>
<stop offset="0.257812" stop-color="#A2B2C9"/>
<stop offset="0.261719" stop-color="#A1B1C8"/>
<stop offset="0.265625" stop-color="#9FB0C7"/>
<stop offset="0.269531" stop-color="#9EAFC7"/>
<stop offset="0.273438" stop-color="#9CAEC6"/>
<stop offset="0.277344" stop-color="#9BACC5"/>
<stop offset="0.28125" stop-color="#9AABC4"/>
<stop offset="0.285156" stop-color="#98AAC3"/>
<stop offset="0.289062" stop-color="#97A9C2"/>
<stop offset="0.292969" stop-color="#95A8C2"/>
<stop offset="0.296875" stop-color="#94A7C1"/>
<stop offset="0.300781" stop-color="#93A5C0"/>
<stop offset="0.304688" stop-color="#91A4BF"/>
<stop offset="0.308594" stop-color="#90A3BE"/>
<stop offset="0.3125" stop-color="#8EA2BE"/>
<stop offset="0.316406" stop-color="#8DA1BD"/>
<stop offset="0.320312" stop-color="#8CA0BC"/>
<stop offset="0.324219" stop-color="#8A9FBB"/>
<stop offset="0.328125" stop-color="#899DBA"/>
<stop offset="0.332031" stop-color="#879CB9"/>
<stop offset="0.335938" stop-color="#869BB9"/>
<stop offset="0.339844" stop-color="#859AB8"/>
<stop offset="0.34375" stop-color="#8399B7"/>
<stop offset="0.347656" stop-color="#8298B6"/>
<stop offset="0.351562" stop-color="#8096B5"/>
<stop offset="0.355469" stop-color="#7F95B5"/>
<stop offset="0.359375" stop-color="#7E94B4"/>
<stop offset="0.363281" stop-color="#7C93B3"/>
<stop offset="0.367188" stop-color="#7B92B2"/>
<stop offset="0.371094" stop-color="#7991B1"/>
<stop offset="0.375" stop-color="#788FB1"/>
<stop offset="0.378906" stop-color="#778EB0"/>
<stop offset="0.382812" stop-color="#758DAF"/>
<stop offset="0.386719" stop-color="#748CAE"/>
<stop offset="0.390625" stop-color="#728BAD"/>
<stop offset="0.394531" stop-color="#718AAC"/>
<stop offset="0.398438" stop-color="#7089AC"/>
<stop offset="0.402344" stop-color="#6E87AB"/>
<stop offset="0.40625" stop-color="#6D86AA"/>
<stop offset="0.410156" stop-color="#6B85A9"/>
<stop offset="0.414062" stop-color="#6A84A8"/>
<stop offset="0.417969" stop-color="#6983A8"/>
<stop offset="0.421875" stop-color="#6782A7"/>
<stop offset="0.425781" stop-color="#6680A6"/>
<stop offset="0.429688" stop-color="#647FA5"/>
<stop offset="0.433594" stop-color="#637EA4"/>
<stop offset="0.4375" stop-color="#627DA4"/>
<stop offset="0.441406" stop-color="#607CA3"/>
<stop offset="0.445312" stop-color="#5F7BA2"/>
<stop offset="0.449219" stop-color="#5D7AA1"/>
<stop offset="0.453125" stop-color="#5C78A0"/>
<stop offset="0.457031" stop-color="#5B779F"/>
<stop offset="0.460938" stop-color="#59769F"/>
<stop offset="0.464844" stop-color="#58759E"/>
<stop offset="0.46875" stop-color="#56749D"/>
<stop offset="0.472656" stop-color="#55739C"/>
<stop offset="0.476562" stop-color="#54719B"/>
<stop offset="0.480469" stop-color="#52709B"/>
<stop offset="0.484375" stop-color="#516F9A"/>
<stop offset="0.488281" stop-color="#4F6E99"/>
<stop offset="0.492188" stop-color="#4E6D98"/>
<stop offset="0.496094" stop-color="#4D6C97"/>
<stop offset="0.5" stop-color="#4C6B96"/>
<stop offset="0.503906" stop-color="#4C6A96"/>
<stop offset="0.507812" stop-color="#4B6A95"/>
<stop offset="0.511719" stop-color="#4B6994"/>
<stop offset="0.515625" stop-color="#4B6893"/>
<stop offset="0.519531" stop-color="#4A6892"/>
<stop offset="0.523438" stop-color="#4A6791"/>
<stop offset="0.527344" stop-color="#4A6790"/>
<stop offset="0.53125" stop-color="#49668F"/>
<stop offset="0.535156" stop-color="#49658E"/>
<stop offset="0.539062" stop-color="#49658D"/>
<stop offset="0.542969" stop-color="#48648C"/>
<stop offset="0.546875" stop-color="#48648B"/>
<stop offset="0.550781" stop-color="#48638A"/>
<stop offset="0.554688" stop-color="#476289"/>
<stop offset="0.558594" stop-color="#476289"/>
<stop offset="0.5625" stop-color="#476188"/>
<stop offset="0.566406" stop-color="#466187"/>
<stop offset="0.570312" stop-color="#466086"/>
<stop offset="0.574219" stop-color="#466085"/>
<stop offset="0.578125" stop-color="#455F84"/>
<stop offset="0.582031" stop-color="#455E83"/>
<stop offset="0.585938" stop-color="#455E82"/>
<stop offset="0.589844" stop-color="#445D81"/>
<stop offset="0.59375" stop-color="#445D80"/>
<stop offset="0.597656" stop-color="#445C7F"/>
<stop offset="0.601562" stop-color="#435B7E"/>
<stop offset="0.605469" stop-color="#435B7D"/>
<stop offset="0.609375" stop-color="#435A7C"/>
<stop offset="0.613281" stop-color="#435A7C"/>
<stop offset="0.617188" stop-color="#42597B"/>
<stop offset="0.621094" stop-color="#42587A"/>
<stop offset="0.625" stop-color="#425879"/>
<stop offset="0.628906" stop-color="#415778"/>
<stop offset="0.632812" stop-color="#415777"/>
<stop offset="0.636719" stop-color="#415676"/>
<stop offset="0.640625" stop-color="#405575"/>
<stop offset="0.644531" stop-color="#405574"/>
<stop offset="0.648438" stop-color="#405473"/>
<stop offset="0.652344" stop-color="#3F5472"/>
<stop offset="0.65625" stop-color="#3F5371"/>
<stop offset="0.660156" stop-color="#3F5270"/>
<stop offset="0.664062" stop-color="#3E526F"/>
<stop offset="0.667969" stop-color="#3E516E"/>
<stop offset="0.671875" stop-color="#3E516E"/>
<stop offset="0.675781" stop-color="#3D506D"/>
<stop offset="0.679688" stop-color="#3D4F6C"/>
<stop offset="0.683594" stop-color="#3D4F6B"/>
<stop offset="0.6875" stop-color="#3C4E6A"/>
<stop offset="0.691406" stop-color="#3C4E69"/>
<stop offset="0.695312" stop-color="#3C4D68"/>
<stop offset="0.699219" stop-color="#3B4D67"/>
<stop offset="0.703125" stop-color="#3B4C66"/>
<stop offset="0.707031" stop-color="#3B4B65"/>
<stop offset="0.710938" stop-color="#3B4B64"/>
<stop offset="0.714844" stop-color="#3A4A63"/>
<stop offset="0.71875" stop-color="#3A4A62"/>
<stop offset="0.722656" stop-color="#3A4961"/>
<stop offset="0.726562" stop-color="#394861"/>
<stop offset="0.730469" stop-color="#394860"/>
<stop offset="0.734375" stop-color="#39475F"/>
<stop offset="0.738281" stop-color="#38475E"/>
<stop offset="0.742188" stop-color="#38465D"/>
<stop offset="0.746094" stop-color="#38455C"/>
<stop offset="0.75" stop-color="#37455B"/>
<stop offset="0.753906" stop-color="#37445A"/>
<stop offset="0.757812" stop-color="#374459"/>
<stop offset="0.761719" stop-color="#364358"/>
<stop offset="0.765625" stop-color="#364257"/>
<stop offset="0.769531" stop-color="#364256"/>
<stop offset="0.773438" stop-color="#354155"/>
<stop offset="0.777344" stop-color="#354154"/>
<stop offset="0.78125" stop-color="#354054"/>
<stop offset="0.785156" stop-color="#343F53"/>
<stop offset="0.789062" stop-color="#343F52"/>
<stop offset="0.792969" stop-color="#343E51"/>
<stop offset="0.796875" stop-color="#333E50"/>
<stop offset="0.800781" stop-color="#333D4F"/>
<stop offset="0.804688" stop-color="#333C4E"/>
<stop offset="0.808594" stop-color="#323C4D"/>
<stop offset="0.8125" stop-color="#323B4C"/>
<stop offset="0.816406" stop-color="#323B4B"/>
<stop offset="0.820312" stop-color="#323A4A"/>
<stop offset="0.824219" stop-color="#313A49"/>
<stop offset="0.828125" stop-color="#313948"/>
<stop offset="0.832031" stop-color="#313847"/>
<stop offset="0.835938" stop-color="#303846"/>
<stop offset="0.839844" stop-color="#303746"/>
<stop offset="0.84375" stop-color="#303745"/>
<stop offset="0.847656" stop-color="#2F3644"/>
<stop offset="0.851562" stop-color="#2F3543"/>
<stop offset="0.855469" stop-color="#2F3542"/>
<stop offset="0.859375" stop-color="#2E3441"/>
<stop offset="0.863281" stop-color="#2E3440"/>
<stop offset="0.867188" stop-color="#2E333F"/>
<stop offset="0.871094" stop-color="#2D323E"/>
<stop offset="0.875" stop-color="#2D323D"/>
<stop offset="0.878906" stop-color="#2D313C"/>
<stop offset="0.882812" stop-color="#2C313B"/>
<stop offset="0.886719" stop-color="#2C303A"/>
<stop offset="0.890625" stop-color="#2C2F39"/>
<stop offset="0.894531" stop-color="#2B2F39"/>
<stop offset="0.898438" stop-color="#2B2E38"/>
<stop offset="0.902344" stop-color="#2B2E37"/>
<stop offset="0.90625" stop-color="#2A2D36"/>
<stop offset="0.910156" stop-color="#2A2C35"/>
<stop offset="0.914062" stop-color="#2A2C34"/>
<stop offset="0.917969" stop-color="#2A2B33"/>
<stop offset="0.921875" stop-color="#292B32"/>
<stop offset="0.925781" stop-color="#292A31"/>
<stop offset="0.929688" stop-color="#292930"/>
<stop offset="0.933594" stop-color="#28292F"/>
<stop offset="0.9375" stop-color="#28282E"/>
<stop offset="0.941406" stop-color="#28282D"/>
<stop offset="0.945312" stop-color="#27272C"/>
<stop offset="0.949219" stop-color="#27272C"/>
<stop offset="0.953125" stop-color="#27262B"/>
<stop offset="0.957031" stop-color="#26252A"/>
<stop offset="0.960938" stop-color="#262529"/>
<stop offset="0.964844" stop-color="#262428"/>
<stop offset="0.96875" stop-color="#252427"/>
<stop offset="0.972656" stop-color="#252326"/>
<stop offset="0.976562" stop-color="#252225"/>
<stop offset="0.980469" stop-color="#242224"/>
<stop offset="0.984375" stop-color="#242123"/>
<stop offset="0.988281" stop-color="#242122"/>
<stop offset="0.992188" stop-color="#232021"/>
<stop offset="0.996094" stop-color="#231F20"/>
<stop offset="1" stop-color="#231F20"/>
</radialGradient>
</defs>
</svg>
