<svg width="188" height="188" viewBox="0 0 188 188" fill="none" xmlns="http://www.w3.org/2000/svg">
<mask id="mask0_201_245" style="mask-type:luminance" maskUnits="userSpaceOnUse" x="3" y="46" width="182" height="96">
<path d="M3.33301 46.0791H184.76V141.597H3.33301V46.0791Z" fill="white"/>
</mask>
<g mask="url(#mask0_201_245)">
<mask id="mask1_201_245" style="mask-type:luminance" maskUnits="userSpaceOnUse" x="3" y="46" width="182" height="96">
<path d="M184.762 93.8479C184.762 94.6286 184.725 95.4093 184.652 96.1891C184.579 96.9693 184.471 97.7476 184.325 98.5249C184.18 99.3023 183.998 100.077 183.78 100.85C183.562 101.622 183.309 102.391 183.019 103.157C182.729 103.923 182.404 104.685 182.043 105.442C181.682 106.2 181.287 106.952 180.856 107.699C180.425 108.447 179.959 109.188 179.459 109.923C178.959 110.658 178.425 111.387 177.857 112.108C177.289 112.83 176.687 113.543 176.052 114.249C175.418 114.956 174.75 115.653 174.051 116.342C173.351 117.03 172.619 117.709 171.856 118.379C171.092 119.049 170.299 119.708 169.474 120.358C168.649 121.007 167.795 121.645 166.91 122.273C166.026 122.9 165.112 123.515 164.171 124.119C163.229 124.723 162.26 125.314 161.263 125.893C160.265 126.471 159.242 127.037 158.192 127.589C157.142 128.141 156.068 128.679 154.968 129.204C153.868 129.728 152.744 130.238 151.596 130.733C150.449 131.229 149.279 131.709 148.086 132.174C146.894 132.64 145.68 133.089 144.446 133.523C143.212 133.957 141.958 134.375 140.684 134.776C139.411 135.177 138.119 135.562 136.81 135.93C135.501 136.299 134.175 136.649 132.833 136.984C131.491 137.317 130.134 137.634 128.763 137.932C127.391 138.231 126.007 138.512 124.608 138.775C123.211 139.039 121.801 139.283 120.381 139.51C118.96 139.737 117.53 139.945 116.09 140.135C114.649 140.325 113.202 140.496 111.746 140.648C110.289 140.8 108.827 140.934 107.359 141.048C105.89 141.163 104.417 141.258 102.94 141.335C101.462 141.411 99.9818 141.469 98.4991 141.507C97.0163 141.545 95.5326 141.565 94.0479 141.565C92.5633 141.565 91.0795 141.545 89.5968 141.507C88.114 141.469 86.6342 141.411 85.1568 141.335C83.6789 141.258 82.2064 141.163 80.7377 141.048C79.2691 140.934 77.8067 140.8 76.3507 140.648C74.8947 140.496 73.4464 140.325 72.0064 140.135C70.5664 139.945 69.1362 139.737 67.7151 139.51C66.2946 139.283 64.8852 139.039 63.4874 138.775C62.0897 138.512 60.7051 138.231 59.3336 137.932C57.9616 137.634 56.6052 137.317 55.2629 136.984C53.921 136.649 52.5952 136.299 51.2859 135.93C49.9766 135.562 48.6853 135.177 47.4119 134.776C46.1385 134.375 44.8846 133.957 43.6501 133.523C42.4156 133.089 41.2025 132.64 40.0098 132.174C38.8176 131.709 37.6477 131.229 36.4997 130.733C35.3522 130.238 34.2285 129.728 33.1286 129.204C32.0287 128.679 30.9535 128.141 29.9036 127.589C28.8543 127.037 27.8306 126.471 26.8337 125.893C25.8368 125.314 24.8671 124.723 23.9255 124.119C22.9835 123.515 22.0707 122.9 21.186 122.273C20.3018 121.645 19.4472 121.007 18.6222 120.358C17.7978 119.708 17.0035 119.049 16.2402 118.379C15.477 117.709 14.7453 117.03 14.0458 116.342C13.3457 115.653 12.6786 114.956 12.0437 114.249C11.4092 113.543 10.8077 112.83 10.2398 112.108C9.67136 111.387 9.13744 110.658 8.63704 109.923C8.13712 109.188 7.67121 108.447 7.24028 107.699C6.80935 106.952 6.41389 106.2 6.05292 105.442C5.69244 104.685 5.36693 103.923 5.07738 103.157C4.78782 102.391 4.53422 101.622 4.31609 100.85C4.09844 100.077 3.91674 99.3023 3.77099 98.5249C3.62573 97.7476 3.51641 96.9693 3.44354 96.1891C3.37067 95.4093 3.33423 94.6286 3.33423 93.8479C3.33423 93.0671 3.37067 92.2864 3.44354 91.5067C3.51641 90.7264 3.62573 89.9481 3.77099 89.1708C3.91674 88.3935 4.09844 87.6191 4.31609 86.8461C4.53422 86.0737 4.78782 85.3046 5.07738 84.5389C5.36693 83.7728 5.69244 83.011 6.05292 82.2536C6.41389 81.4962 6.80935 80.7436 7.24028 79.9964C7.67121 79.2492 8.13712 78.5079 8.63704 77.7723C9.13744 77.0373 9.67136 76.309 10.2398 75.5876C10.8077 74.8661 11.4092 74.1524 12.0437 73.4465C12.6786 72.7401 13.3457 72.043 14.0458 71.3545C14.7453 70.6656 15.477 69.9865 16.2402 69.3165C17.0035 68.6465 17.7978 67.9873 18.6222 67.3377C19.4472 66.6887 20.3018 66.0503 21.186 65.4231C22.0707 64.7959 22.9835 64.1803 23.9255 63.5764C24.8671 62.973 25.8368 62.3818 26.8337 61.8032C27.8306 61.2246 28.8543 60.659 29.9036 60.1071C30.9535 59.5548 32.0287 59.0165 33.1286 58.4923C34.2285 57.9676 35.3522 57.4574 36.4997 56.9624C37.6477 56.4668 38.8176 55.9864 40.0098 55.5214C41.2025 55.056 42.4156 54.6066 43.6501 54.1728C44.8846 53.7389 46.1385 53.3211 47.4119 52.9198C48.6853 52.5185 49.9766 52.1333 51.2859 51.7655C52.5952 51.3972 53.921 51.0465 55.2629 50.7122C56.6052 50.3784 57.9616 50.0622 59.3336 49.7634C60.7051 49.4646 62.0897 49.1833 63.4874 48.9205C64.8852 48.6572 66.2946 48.4123 67.7151 48.1859C69.1362 47.959 70.5664 47.7506 72.0064 47.5611C73.4464 47.3712 74.8947 47.2002 76.3507 47.0481C77.8067 46.8956 79.2691 46.7619 80.7377 46.6473C82.2064 46.5331 83.6789 46.4374 85.1568 46.3607C86.6342 46.2844 88.114 46.2271 89.5968 46.1887C91.0795 46.1503 92.5633 46.1309 94.0479 46.1309C95.5326 46.1309 97.0163 46.1503 98.4991 46.1887C99.9818 46.2271 101.462 46.2844 102.94 46.3607C104.417 46.4374 105.89 46.5331 107.359 46.6473C108.827 46.7619 110.289 46.8956 111.746 47.0481C113.202 47.2002 114.649 47.3712 116.09 47.5611C117.53 47.7506 118.96 47.959 120.381 48.1859C121.801 48.4123 123.211 48.6572 124.608 48.9205C126.007 49.1833 127.391 49.4646 128.763 49.7634C130.134 50.0622 131.491 50.3784 132.833 50.7122C134.175 51.0465 135.501 51.3972 136.81 51.7655C138.119 52.1333 139.411 52.5185 140.684 52.9198C141.958 53.3211 143.212 53.7389 144.446 54.1728C145.68 54.6066 146.894 55.056 148.086 55.5214C149.279 55.9864 150.449 56.4668 151.596 56.9624C152.744 57.4574 153.868 57.9676 154.968 58.4923C156.068 59.0165 157.142 59.5548 158.192 60.1071C159.242 60.659 160.265 61.2246 161.263 61.8032C162.26 62.3818 163.229 62.973 164.171 63.5764C165.112 64.1803 166.026 64.7959 166.91 65.4231C167.795 66.0503 168.649 66.6887 169.474 67.3377C170.299 67.9873 171.092 68.6465 171.856 69.3165C172.619 69.9865 173.351 70.6656 174.051 71.3545C174.75 72.043 175.418 72.7401 176.052 73.4465C176.687 74.1524 177.289 74.8661 177.857 75.5876C178.425 76.309 178.959 77.0373 179.459 77.7723C179.959 78.5079 180.425 79.2492 180.856 79.9964C181.287 80.7436 181.682 81.4962 182.043 82.2536C182.404 83.011 182.729 83.7728 183.019 84.5389C183.309 85.3046 183.562 86.0737 183.78 86.8461C183.998 87.6191 184.18 88.3935 184.325 89.1708C184.471 89.9481 184.579 90.7264 184.652 91.5067C184.725 92.2864 184.762 93.0671 184.762 93.8479Z" fill="white"/>
</mask>
<g mask="url(#mask1_201_245)">
<path d="M3.33423 46.1309V141.565H184.762V46.1309H3.33423Z" fill="url(#paint0_radial_201_245)"/>
</g>
</g>
<path d="M181.216 93.8467C181.216 94.5696 181.18 95.2921 181.11 96.014C181.041 96.7359 180.936 97.4569 180.796 98.1764C180.656 98.8959 180.481 99.613 180.272 100.328C180.063 101.043 179.819 101.755 179.541 102.464C179.262 103.173 178.95 103.879 178.603 104.58C178.257 105.281 177.876 105.977 177.462 106.669C177.048 107.361 176.601 108.047 176.12 108.728C175.64 109.408 175.126 110.083 174.58 110.751C174.034 111.419 173.456 112.079 172.847 112.733C172.236 113.386 171.595 114.031 170.923 114.669C170.25 115.307 169.547 115.935 168.814 116.556C168.081 117.176 167.317 117.786 166.525 118.387C165.732 118.988 164.911 119.579 164.061 120.16C163.211 120.741 162.334 121.31 161.429 121.869C160.524 122.428 159.592 122.975 158.634 123.511C157.676 124.046 156.693 124.569 155.684 125.081C154.675 125.592 153.642 126.091 152.586 126.576C151.528 127.061 150.448 127.534 149.346 127.992C148.243 128.451 147.119 128.895 145.973 129.326C144.827 129.757 143.661 130.173 142.475 130.574C141.289 130.976 140.083 131.362 138.86 131.734C137.636 132.106 136.395 132.462 135.137 132.803C133.879 133.143 132.605 133.468 131.316 133.777C130.026 134.087 128.722 134.379 127.404 134.656C126.086 134.933 124.755 135.193 123.412 135.436C122.069 135.68 120.715 135.907 119.35 136.117C117.984 136.327 116.61 136.519 115.226 136.695C113.842 136.87 112.451 137.029 111.052 137.17C109.653 137.311 108.247 137.434 106.836 137.541C105.425 137.647 104.009 137.735 102.59 137.806C101.17 137.877 99.7475 137.93 98.3226 137.965C96.8976 138.001 95.4722 138.019 94.0453 138.019C92.6189 138.019 91.193 138.001 89.7681 137.965C88.3432 137.93 86.9212 137.877 85.5011 137.806C84.0815 137.735 82.6663 137.647 81.255 137.541C79.8436 137.434 78.4386 137.311 77.0394 137.17C75.6402 137.029 74.2488 136.87 72.8647 136.695C71.4811 136.519 70.1067 136.327 68.7415 136.117C67.3763 135.907 66.0218 135.68 64.6785 135.436C63.3357 135.193 62.005 134.933 60.687 134.656C59.3689 134.379 58.0649 134.087 56.7756 133.777C55.4857 133.468 54.2118 133.143 52.9536 132.803C51.6957 132.462 50.4545 132.106 49.2311 131.734C48.0073 131.362 46.8025 130.976 45.6161 130.574C44.4302 130.173 43.2642 129.757 42.1181 129.326C40.9726 128.895 39.8479 128.451 38.745 127.992C37.6427 127.534 36.5627 127.061 35.5055 126.576C34.4484 126.091 33.4155 125.592 32.4069 125.081C31.3979 124.569 30.4146 124.046 29.4565 123.511C28.4985 122.975 27.5671 122.428 26.662 121.869C25.7569 121.31 24.8795 120.741 24.0298 120.16C23.1801 119.579 22.3586 118.988 21.5662 118.387C20.7733 117.786 20.0106 117.176 19.277 116.556C18.5438 115.935 17.8409 115.307 17.168 114.669C16.4956 114.031 15.8543 113.386 15.2446 112.733C14.6344 112.079 14.0567 111.419 13.5107 110.751C12.9646 110.083 12.4516 109.408 11.9711 108.728C11.4901 108.047 11.0427 107.361 10.6287 106.669C10.2148 105.977 9.83442 105.281 9.48754 104.58C9.14114 103.879 8.82876 103.173 8.55038 102.464C8.272 101.755 8.02811 101.043 7.81872 100.328C7.60933 99.613 7.43492 98.8959 7.295 98.1764C7.15508 97.4569 7.05014 96.7359 6.98018 96.014C6.91022 95.2921 6.87524 94.5696 6.87524 93.8467C6.87524 93.1238 6.91022 92.4014 6.98018 91.6795C7.05014 90.9575 7.15508 90.2365 7.295 89.517C7.43492 88.7975 7.60933 88.0804 7.81872 87.3653C8.02811 86.6502 8.272 85.9384 8.55038 85.2291C8.82876 84.5203 9.14114 83.8149 9.48754 83.1138C9.83442 82.4128 10.2148 81.7161 10.6287 81.0243C11.0427 80.3325 11.4901 79.6465 11.9711 78.9658C12.4516 78.2852 12.9646 77.6109 13.5107 76.9428C14.0567 76.2748 14.6344 75.6146 15.2446 74.9607C15.8543 74.3072 16.4956 73.6621 17.168 73.0242C17.8409 72.3868 18.5438 71.7581 19.277 71.1377C20.0106 70.5178 20.7733 69.9071 21.5662 69.3061C22.3586 68.7052 23.1801 68.1144 24.0298 67.5338C24.8795 66.9528 25.7569 66.3834 26.662 65.8247C27.5671 65.2655 28.4985 64.7185 29.4565 64.1826C30.4146 63.6472 31.3979 63.124 32.4069 62.6124C33.4155 62.1013 34.4484 61.6033 35.5055 61.1175C36.5627 60.6322 37.6427 60.1599 38.745 59.7013C39.8479 59.2427 40.9726 58.7982 42.1181 58.3677C43.2642 57.9368 44.4302 57.5209 45.6161 57.1191C46.8025 56.7178 48.0073 56.3311 49.2311 55.9595C50.4545 55.5878 51.6957 55.2317 52.9536 54.8906C54.2118 54.5501 55.4857 54.2251 56.7756 53.9161C58.0649 53.6071 59.3689 53.3141 60.687 53.0372C62.005 52.7608 63.3357 52.5004 64.6785 52.257C66.0218 52.0136 67.3763 51.7867 68.7415 51.5768C70.1067 51.3669 71.4811 51.1746 72.8647 50.9987C74.2488 50.8233 75.6402 50.6649 77.0394 50.5235C78.4386 50.3827 79.8436 50.2593 81.255 50.1529C82.6663 50.0469 84.0815 49.9585 85.5011 49.8876C86.9212 49.8167 88.3432 49.7637 89.7681 49.7282C91.193 49.6928 92.6189 49.6748 94.0453 49.6748C95.4722 49.6748 96.8976 49.6928 98.3226 49.7282C99.7475 49.7637 101.17 49.8167 102.59 49.8876C104.009 49.9585 105.425 50.0469 106.836 50.1529C108.247 50.2593 109.653 50.3827 111.052 50.5235C112.451 50.6649 113.842 50.8233 115.226 50.9987C116.61 51.1746 117.984 51.3669 119.35 51.5768C120.715 51.7867 122.069 52.0136 123.412 52.257C124.755 52.5004 126.086 52.7608 127.404 53.0372C128.722 53.3141 130.026 53.6071 131.316 53.9161C132.605 54.2251 133.879 54.5501 135.137 54.8906C136.395 55.2317 137.636 55.5878 138.86 55.9595C140.083 56.3311 141.289 56.7178 142.475 57.1191C143.661 57.5209 144.827 57.9368 145.973 58.3677C147.119 58.7982 148.243 59.2427 149.346 59.7013C150.448 60.1599 151.528 60.6322 152.586 61.1175C153.642 61.6033 154.675 62.1013 155.684 62.6124C156.693 63.124 157.676 63.6472 158.634 64.1826C159.592 64.7185 160.524 65.2655 161.429 65.8247C162.334 66.3834 163.211 66.9528 164.061 67.5338C164.911 68.1144 165.732 68.7052 166.525 69.3061C167.317 69.9071 168.081 70.5178 168.814 71.1377C169.547 71.7581 170.25 72.3868 170.923 73.0242C171.595 73.6621 172.236 74.3072 172.847 74.9607C173.456 75.6146 174.034 76.2748 174.58 76.9428C175.126 77.6109 175.64 78.2852 176.12 78.9658C176.601 79.6465 177.048 80.3325 177.462 81.0243C177.876 81.7161 178.257 82.4128 178.603 83.1138C178.95 83.8149 179.262 84.5203 179.541 85.2291C179.819 85.9384 180.063 86.6502 180.272 87.3653C180.481 88.0804 180.656 88.7975 180.796 89.517C180.936 90.2365 181.041 90.9575 181.11 91.6795C181.18 92.4014 181.216 93.1238 181.216 93.8467Z" fill="#6181B6"/>
<path d="M111.692 108.168L116.015 85.9046C117.007 80.8705 116.157 77.1126 113.606 74.7728C111.125 72.504 106.873 71.3696 100.637 71.3696H93.1242L95.2502 60.3088C95.3211 59.8837 95.2502 59.4581 94.9669 59.1035C94.6832 58.7493 94.329 58.6074 93.9039 58.6074H83.5568C82.848 58.6074 82.281 59.1035 82.1391 59.7418L77.5325 83.3521C77.1074 80.6577 76.1154 78.3889 74.4145 76.5456C71.3669 73.0715 66.6189 71.2987 60.1695 71.2987H40.255C39.5462 71.2987 38.9792 71.7952 38.8378 72.4331L29.5537 120.363C29.4827 120.788 29.5537 121.214 29.8374 121.568C30.1206 121.922 30.4748 122.064 30.9004 122.064H41.318C42.0268 122.064 42.5938 121.568 42.7356 120.93L45.0035 109.373H52.7281C56.7678 109.373 60.2405 108.947 62.8625 108.097C65.6264 107.175 68.107 105.686 70.3039 103.63C72.0757 101.999 73.5638 100.156 74.6977 98.1703L72.8555 107.742C72.7845 108.168 72.8555 108.593 73.1387 108.947C73.4224 109.302 73.7766 109.444 74.2017 109.444H84.5489C85.2577 109.444 85.8246 108.947 85.9665 108.31L91.0691 82.0758H98.1559C101.204 82.0758 102.054 82.6428 102.337 82.9265C102.55 83.1393 102.975 83.99 102.479 86.6134L98.3687 107.813C98.2978 108.239 98.3687 108.664 98.6519 109.018C98.9357 109.373 99.2898 109.515 99.7149 109.515H110.346C110.983 109.302 111.55 108.806 111.692 108.168ZM63.7841 89.7329C63.1462 93.0657 61.9414 95.4764 60.1695 96.8231C58.3977 98.1703 55.492 98.8796 51.6651 98.8796H47.0585L50.3893 81.7212H56.3427C60.7365 81.7212 62.5083 82.6428 63.2171 83.423C64.1383 84.5574 64.3511 86.7553 63.7841 89.7329Z" fill="white"/>
<path d="M155.915 76.5477C152.868 73.0736 148.119 71.3008 141.67 71.3008H121.614C120.905 71.3008 120.338 71.7973 120.196 72.4352L110.913 120.294C110.842 120.719 110.913 121.145 111.196 121.499C111.48 121.854 111.834 121.995 112.259 121.995H122.677C123.386 121.995 123.953 121.499 124.094 120.861L126.362 109.304H134.087C138.126 109.304 141.599 108.879 144.222 108.028C146.985 107.106 149.466 105.617 151.663 103.561C153.505 101.859 155.065 99.9452 156.199 97.8892C157.333 95.8326 158.183 93.5638 158.679 91.0822C159.884 84.9142 158.963 80.0928 155.915 76.5477ZM145.072 89.735C144.434 93.0678 143.23 95.4785 141.458 96.8252C139.686 98.1724 136.78 98.8817 132.953 98.8817H128.347L131.678 81.7232H137.63C142.025 81.7232 143.797 82.6449 144.505 83.4251C145.497 84.5595 145.71 86.7574 145.072 89.735Z" fill="white"/>
<path d="M56.3423 80.303C60.311 80.303 62.9331 81.0123 64.2798 82.5014C65.626 83.9899 65.9097 86.4715 65.2009 90.0166C64.4921 93.7036 63.0749 96.398 61.0199 97.958C58.9643 99.5175 55.8463 100.298 51.6648 100.298H45.3573L49.2551 80.303H56.3423ZM30.9709 120.575H41.3885L43.8692 107.884H52.7987C56.7674 107.884 59.9564 107.459 62.508 106.608C65.059 105.757 67.3269 104.41 69.4533 102.425C71.2252 100.794 72.6423 99.0214 73.7053 97.1068C74.7683 95.1926 75.548 93.0657 75.9731 90.7259C77.1071 85.0534 76.2569 80.6576 73.493 77.4672C70.7286 74.2768 66.3348 72.7168 60.311 72.7168H40.2546L30.9709 120.575Z" fill="#000004"/>
<path d="M83.6277 60.0264H93.9743L91.4942 72.7176H100.707C106.518 72.7176 110.487 73.7102 112.684 75.7662C114.881 77.8227 115.519 81.0841 114.669 85.6217L110.346 107.885H99.8567L103.967 86.6852C104.463 84.2745 104.251 82.6436 103.471 81.7929C102.692 80.9422 100.92 80.4457 98.2977 80.4457H90.0056L84.6907 107.885H74.3435L83.6277 60.0264Z" fill="#000004"/>
<path d="M137.63 80.303C141.599 80.303 144.222 81.0123 145.568 82.5014C146.915 83.9899 147.198 86.4715 146.489 90.0166C145.781 93.7036 144.363 96.398 142.308 97.958C140.253 99.5175 137.134 100.298 132.953 100.298H126.646L130.544 80.303H137.63ZM112.259 120.575H122.677L125.157 107.884H134.087C138.056 107.884 141.245 107.459 143.797 106.608C146.348 105.757 148.615 104.41 150.741 102.425C152.513 100.794 153.931 99.0214 154.994 97.1068C156.057 95.1926 156.837 93.0657 157.262 90.7259C158.396 85.0534 157.545 80.6576 154.781 77.4672C152.017 74.2768 147.623 72.7168 141.599 72.7168H121.543L112.259 120.575Z" fill="#000004"/>
<defs>
<radialGradient id="paint0_radial_201_245" cx="0" cy="0" r="1" gradientUnits="userSpaceOnUse" gradientTransform="translate(57.799 62.912) scale(119.13 119.183)">
<stop stop-color="#FEFEFF"/>
<stop offset="0.00390625" stop-color="#FDFDFE"/>
<stop offset="0.0078125" stop-color="#FCFCFD"/>
<stop offset="0.0117188" stop-color="#FAFBFC"/>
<stop offset="0.015625" stop-color="#F9FAFB"/>
<stop offset="0.0195312" stop-color="#F7F9FB"/>
<stop offset="0.0234375" stop-color="#F6F7FA"/>
<stop offset="0.0273438" stop-color="#F5F6F9"/>
<stop offset="0.03125" stop-color="#F3F5F8"/>
<stop offset="0.0351562" stop-color="#F2F4F7"/>
<stop offset="0.0390625" stop-color="#F0F3F6"/>
<stop offset="0.0429688" stop-color="#EFF2F6"/>
<stop offset="0.046875" stop-color="#EEF1F5"/>
<stop offset="0.0507812" stop-color="#ECEFF4"/>
<stop offset="0.0546875" stop-color="#EBEEF3"/>
<stop offset="0.0585938" stop-color="#E9EDF2"/>
<stop offset="0.0625" stop-color="#E8ECF2"/>
<stop offset="0.0664062" stop-color="#E7EBF1"/>
<stop offset="0.0703125" stop-color="#E5EAF0"/>
<stop offset="0.0742188" stop-color="#E4E8EF"/>
<stop offset="0.078125" stop-color="#E2E7EE"/>
<stop offset="0.0820312" stop-color="#E1E6EE"/>
<stop offset="0.0859375" stop-color="#E0E5ED"/>
<stop offset="0.0898438" stop-color="#DEE4EC"/>
<stop offset="0.09375" stop-color="#DDE3EB"/>
<stop offset="0.0976562" stop-color="#DBE2EA"/>
<stop offset="0.101562" stop-color="#DAE0E9"/>
<stop offset="0.105469" stop-color="#D9DFE9"/>
<stop offset="0.109375" stop-color="#D7DEE8"/>
<stop offset="0.113281" stop-color="#D6DDE7"/>
<stop offset="0.117188" stop-color="#D4DCE6"/>
<stop offset="0.121094" stop-color="#D3DBE5"/>
<stop offset="0.125" stop-color="#D2D9E5"/>
<stop offset="0.128906" stop-color="#D0D8E4"/>
<stop offset="0.132812" stop-color="#CFD7E3"/>
<stop offset="0.136719" stop-color="#CDD6E2"/>
<stop offset="0.140625" stop-color="#CCD5E1"/>
<stop offset="0.144531" stop-color="#CBD4E1"/>
<stop offset="0.148438" stop-color="#C9D3E0"/>
<stop offset="0.152344" stop-color="#C8D1DF"/>
<stop offset="0.15625" stop-color="#C6D0DE"/>
<stop offset="0.160156" stop-color="#C5CFDD"/>
<stop offset="0.164062" stop-color="#C4CEDC"/>
<stop offset="0.167969" stop-color="#C2CDDC"/>
<stop offset="0.171875" stop-color="#C1CCDB"/>
<stop offset="0.175781" stop-color="#BFCADA"/>
<stop offset="0.179688" stop-color="#BEC9D9"/>
<stop offset="0.183594" stop-color="#BDC8D8"/>
<stop offset="0.1875" stop-color="#BBC7D8"/>
<stop offset="0.191406" stop-color="#BAC6D7"/>
<stop offset="0.195312" stop-color="#B8C5D6"/>
<stop offset="0.199219" stop-color="#B7C3D5"/>
<stop offset="0.203125" stop-color="#B6C2D4"/>
<stop offset="0.207031" stop-color="#B4C1D4"/>
<stop offset="0.210938" stop-color="#B3C0D3"/>
<stop offset="0.214844" stop-color="#B1BFD2"/>
<stop offset="0.21875" stop-color="#B0BED1"/>
<stop offset="0.222656" stop-color="#AFBDD0"/>
<stop offset="0.226562" stop-color="#ADBBCF"/>
<stop offset="0.230469" stop-color="#ACBACF"/>
<stop offset="0.234375" stop-color="#AAB9CE"/>
<stop offset="0.238281" stop-color="#A9B8CD"/>
<stop offset="0.242188" stop-color="#A8B7CC"/>
<stop offset="0.246094" stop-color="#A6B6CB"/>
<stop offset="0.25" stop-color="#A5B4CB"/>
<stop offset="0.253906" stop-color="#A3B3CA"/>
<stop offset="0.257812" stop-color="#A2B2C9"/>
<stop offset="0.261719" stop-color="#A1B1C8"/>
<stop offset="0.265625" stop-color="#9FB0C7"/>
<stop offset="0.269531" stop-color="#9EAFC7"/>
<stop offset="0.273438" stop-color="#9CAEC6"/>
<stop offset="0.277344" stop-color="#9BACC5"/>
<stop offset="0.28125" stop-color="#9AABC4"/>
<stop offset="0.285156" stop-color="#98AAC3"/>
<stop offset="0.289062" stop-color="#97A9C2"/>
<stop offset="0.292969" stop-color="#95A8C2"/>
<stop offset="0.296875" stop-color="#94A7C1"/>
<stop offset="0.300781" stop-color="#93A5C0"/>
<stop offset="0.304688" stop-color="#91A4BF"/>
<stop offset="0.308594" stop-color="#90A3BE"/>
<stop offset="0.3125" stop-color="#8EA2BE"/>
<stop offset="0.316406" stop-color="#8DA1BD"/>
<stop offset="0.320312" stop-color="#8CA0BC"/>
<stop offset="0.324219" stop-color="#8A9FBB"/>
<stop offset="0.328125" stop-color="#899DBA"/>
<stop offset="0.332031" stop-color="#879CB9"/>
<stop offset="0.335938" stop-color="#869BB9"/>
<stop offset="0.339844" stop-color="#859AB8"/>
<stop offset="0.34375" stop-color="#8399B7"/>
<stop offset="0.347656" stop-color="#8298B6"/>
<stop offset="0.351562" stop-color="#8096B5"/>
<stop offset="0.355469" stop-color="#7F95B5"/>
<stop offset="0.359375" stop-color="#7E94B4"/>
<stop offset="0.363281" stop-color="#7C93B3"/>
<stop offset="0.367188" stop-color="#7B92B2"/>
<stop offset="0.371094" stop-color="#7991B1"/>
<stop offset="0.375" stop-color="#788FB1"/>
<stop offset="0.378906" stop-color="#778EB0"/>
<stop offset="0.382812" stop-color="#758DAF"/>
<stop offset="0.386719" stop-color="#748CAE"/>
<stop offset="0.390625" stop-color="#728BAD"/>
<stop offset="0.394531" stop-color="#718AAC"/>
<stop offset="0.398438" stop-color="#7089AC"/>
<stop offset="0.402344" stop-color="#6E87AB"/>
<stop offset="0.40625" stop-color="#6D86AA"/>
<stop offset="0.410156" stop-color="#6B85A9"/>
<stop offset="0.414062" stop-color="#6A84A8"/>
<stop offset="0.417969" stop-color="#6983A8"/>
<stop offset="0.421875" stop-color="#6782A7"/>
<stop offset="0.425781" stop-color="#6680A6"/>
<stop offset="0.429688" stop-color="#647FA5"/>
<stop offset="0.433594" stop-color="#637EA4"/>
<stop offset="0.4375" stop-color="#627DA4"/>
<stop offset="0.441406" stop-color="#607CA3"/>
<stop offset="0.445312" stop-color="#5F7BA2"/>
<stop offset="0.449219" stop-color="#5D7AA1"/>
<stop offset="0.453125" stop-color="#5C78A0"/>
<stop offset="0.457031" stop-color="#5B779F"/>
<stop offset="0.460938" stop-color="#59769F"/>
<stop offset="0.464844" stop-color="#58759E"/>
<stop offset="0.46875" stop-color="#56749D"/>
<stop offset="0.472656" stop-color="#55739C"/>
<stop offset="0.476562" stop-color="#54719B"/>
<stop offset="0.480469" stop-color="#52709B"/>
<stop offset="0.484375" stop-color="#516F9A"/>
<stop offset="0.488281" stop-color="#4F6E99"/>
<stop offset="0.492188" stop-color="#4E6D98"/>
<stop offset="0.496094" stop-color="#4D6C97"/>
<stop offset="0.5" stop-color="#4C6B96"/>
<stop offset="0.503906" stop-color="#4C6A96"/>
<stop offset="0.507812" stop-color="#4B6A95"/>
<stop offset="0.511719" stop-color="#4B6994"/>
<stop offset="0.515625" stop-color="#4B6893"/>
<stop offset="0.519531" stop-color="#4A6892"/>
<stop offset="0.523438" stop-color="#4A6791"/>
<stop offset="0.527344" stop-color="#4A6790"/>
<stop offset="0.53125" stop-color="#49668F"/>
<stop offset="0.535156" stop-color="#49658E"/>
<stop offset="0.539062" stop-color="#49658D"/>
<stop offset="0.542969" stop-color="#48648C"/>
<stop offset="0.546875" stop-color="#48648B"/>
<stop offset="0.550781" stop-color="#48638A"/>
<stop offset="0.554688" stop-color="#476289"/>
<stop offset="0.558594" stop-color="#476289"/>
<stop offset="0.5625" stop-color="#476188"/>
<stop offset="0.566406" stop-color="#466187"/>
<stop offset="0.570312" stop-color="#466086"/>
<stop offset="0.574219" stop-color="#466085"/>
<stop offset="0.578125" stop-color="#455F84"/>
<stop offset="0.582031" stop-color="#455E83"/>
<stop offset="0.585938" stop-color="#455E82"/>
<stop offset="0.589844" stop-color="#445D81"/>
<stop offset="0.59375" stop-color="#445D80"/>
<stop offset="0.597656" stop-color="#445C7F"/>
<stop offset="0.601562" stop-color="#435B7E"/>
<stop offset="0.605469" stop-color="#435B7D"/>
<stop offset="0.609375" stop-color="#435A7C"/>
<stop offset="0.613281" stop-color="#435A7C"/>
<stop offset="0.617188" stop-color="#42597B"/>
<stop offset="0.621094" stop-color="#42587A"/>
<stop offset="0.625" stop-color="#425879"/>
<stop offset="0.628906" stop-color="#415778"/>
<stop offset="0.632812" stop-color="#415777"/>
<stop offset="0.636719" stop-color="#415676"/>
<stop offset="0.640625" stop-color="#405575"/>
<stop offset="0.644531" stop-color="#405574"/>
<stop offset="0.648438" stop-color="#405473"/>
<stop offset="0.652344" stop-color="#3F5472"/>
<stop offset="0.65625" stop-color="#3F5371"/>
<stop offset="0.660156" stop-color="#3F5270"/>
<stop offset="0.664062" stop-color="#3E526F"/>
<stop offset="0.667969" stop-color="#3E516E"/>
<stop offset="0.671875" stop-color="#3E516E"/>
<stop offset="0.675781" stop-color="#3D506D"/>
<stop offset="0.679688" stop-color="#3D4F6C"/>
<stop offset="0.683594" stop-color="#3D4F6B"/>
<stop offset="0.6875" stop-color="#3C4E6A"/>
<stop offset="0.691406" stop-color="#3C4E69"/>
<stop offset="0.695312" stop-color="#3C4D68"/>
<stop offset="0.699219" stop-color="#3B4D67"/>
<stop offset="0.703125" stop-color="#3B4C66"/>
<stop offset="0.707031" stop-color="#3B4B65"/>
<stop offset="0.710938" stop-color="#3B4B64"/>
<stop offset="0.714844" stop-color="#3A4A63"/>
<stop offset="0.71875" stop-color="#3A4A62"/>
<stop offset="0.722656" stop-color="#3A4961"/>
<stop offset="0.726562" stop-color="#394861"/>
<stop offset="0.730469" stop-color="#394860"/>
<stop offset="0.734375" stop-color="#39475F"/>
<stop offset="0.738281" stop-color="#38475E"/>
<stop offset="0.742188" stop-color="#38465D"/>
<stop offset="0.746094" stop-color="#38455C"/>
<stop offset="0.75" stop-color="#37455B"/>
<stop offset="0.753906" stop-color="#37445A"/>
<stop offset="0.757812" stop-color="#374459"/>
<stop offset="0.761719" stop-color="#364358"/>
<stop offset="0.765625" stop-color="#364257"/>
<stop offset="0.769531" stop-color="#364256"/>
<stop offset="0.773438" stop-color="#354155"/>
<stop offset="0.777344" stop-color="#354154"/>
<stop offset="0.78125" stop-color="#354054"/>
<stop offset="0.785156" stop-color="#343F53"/>
<stop offset="0.789062" stop-color="#343F52"/>
<stop offset="0.792969" stop-color="#343E51"/>
<stop offset="0.796875" stop-color="#333E50"/>
<stop offset="0.800781" stop-color="#333D4F"/>
<stop offset="0.804688" stop-color="#333C4E"/>
<stop offset="0.808594" stop-color="#323C4D"/>
<stop offset="0.8125" stop-color="#323B4C"/>
<stop offset="0.816406" stop-color="#323B4B"/>
<stop offset="0.820312" stop-color="#323A4A"/>
<stop offset="0.824219" stop-color="#313A49"/>
<stop offset="0.828125" stop-color="#313948"/>
<stop offset="0.832031" stop-color="#313847"/>
<stop offset="0.835938" stop-color="#303846"/>
<stop offset="0.839844" stop-color="#303746"/>
<stop offset="0.84375" stop-color="#303745"/>
<stop offset="0.847656" stop-color="#2F3644"/>
<stop offset="0.851562" stop-color="#2F3543"/>
<stop offset="0.855469" stop-color="#2F3542"/>
<stop offset="0.859375" stop-color="#2E3441"/>
<stop offset="0.863281" stop-color="#2E3440"/>
<stop offset="0.867188" stop-color="#2E333F"/>
<stop offset="0.871094" stop-color="#2D323E"/>
<stop offset="0.875" stop-color="#2D323D"/>
<stop offset="0.878906" stop-color="#2D313C"/>
<stop offset="0.882812" stop-color="#2C313B"/>
<stop offset="0.886719" stop-color="#2C303A"/>
<stop offset="0.890625" stop-color="#2C2F39"/>
<stop offset="0.894531" stop-color="#2B2F39"/>
<stop offset="0.898438" stop-color="#2B2E38"/>
<stop offset="0.902344" stop-color="#2B2E37"/>
<stop offset="0.90625" stop-color="#2A2D36"/>
<stop offset="0.910156" stop-color="#2A2C35"/>
<stop offset="0.914062" stop-color="#2A2C34"/>
<stop offset="0.917969" stop-color="#2A2B33"/>
<stop offset="0.921875" stop-color="#292B32"/>
<stop offset="0.925781" stop-color="#292A31"/>
<stop offset="0.929688" stop-color="#292930"/>
<stop offset="0.933594" stop-color="#28292F"/>
<stop offset="0.9375" stop-color="#28282E"/>
<stop offset="0.941406" stop-color="#28282D"/>
<stop offset="0.945312" stop-color="#27272C"/>
<stop offset="0.949219" stop-color="#27272C"/>
<stop offset="0.953125" stop-color="#27262B"/>
<stop offset="0.957031" stop-color="#26252A"/>
<stop offset="0.960938" stop-color="#262529"/>
<stop offset="0.964844" stop-color="#262428"/>
<stop offset="0.96875" stop-color="#252427"/>
<stop offset="0.972656" stop-color="#252326"/>
<stop offset="0.976562" stop-color="#252225"/>
<stop offset="0.980469" stop-color="#242224"/>
<stop offset="0.984375" stop-color="#242123"/>
<stop offset="0.988281" stop-color="#242122"/>
<stop offset="0.992188" stop-color="#232021"/>
<stop offset="0.996094" stop-color="#231F20"/>
<stop offset="1" stop-color="#231F20"/>
</radialGradient>
</defs>
</svg>
