<svg width="50" height="50" viewBox="0 0 50 50" fill="none" xmlns="http://www.w3.org/2000/svg">
<mask id="mask0_693_50" style="mask-type:luminance" maskUnits="userSpaceOnUse" x="1" y="1" width="36" height="36">
<path d="M1.66016 1.75586H36.309V36.4435H1.66016V1.75586Z" fill="white"/>
</mask>
<g mask="url(#mask0_693_50)">
<mask id="mask1_693_50" style="mask-type:luminance" maskUnits="userSpaceOnUse" x="1" y="1" width="36" height="36">
<path d="M24.8438 1.75C12.9956 1.75 13.7354 6.88833 13.7354 6.88833L13.7485 12.2118H25.054V13.8101H9.25801C9.25801 13.8101 1.67676 12.9502 1.67676 24.9055C1.67663 36.8618 8.29389 36.4378 8.29389 36.4378H12.2428V30.8894C12.2428 30.8894 12.03 24.2714 18.7544 24.2714H29.968C29.968 24.2714 36.2672 24.3737 36.2672 18.1823V7.94521C36.2672 7.94521 37.2247 1.75 24.8438 1.75ZM18.6092 5.32967C19.7338 5.32967 20.6426 6.23898 20.6426 7.3639C20.6426 8.48898 19.7338 9.39815 18.6092 9.39815C17.4841 9.39815 16.575 8.48898 16.575 7.3639C16.575 6.23898 17.4841 5.32967 18.6092 5.32967Z" fill="white"/>
</mask>
<g mask="url(#mask1_693_50)">
<path d="M1.67627 1.75586V36.8627H37.2244V1.75586H1.67627Z" fill="url(#paint0_linear_693_50)"/>
</g>
</g>
<mask id="mask2_693_50" style="mask-type:luminance" maskUnits="userSpaceOnUse" x="13" y="13" width="36" height="36">
<path d="M13.7295 13.4648H48.3475V48.1958H13.7295V13.4648Z" fill="white"/>
</mask>
<g mask="url(#mask2_693_50)">
<mask id="mask3_693_50" style="mask-type:luminance" maskUnits="userSpaceOnUse" x="13" y="13" width="36" height="36">
<path d="M25.1802 48.1821C37.0275 48.1821 36.2871 43.0428 36.2871 43.0428L36.2745 37.719H24.9682V36.1216H40.7644C40.7644 36.1216 48.3465 36.9807 48.3465 25.0261C48.3465 13.07 41.7293 13.494 41.7293 13.494H37.7804V19.0418C37.7804 19.0418 37.9922 25.6604 31.2692 25.6604H20.0543C20.0543 25.6604 13.7549 25.558 13.7549 31.75V41.9866C13.7549 41.9866 12.7983 48.1821 25.1802 48.1821ZM31.4136 44.6019C30.2898 44.6019 29.3796 43.6917 29.3796 42.5676C29.3796 41.442 30.2898 40.5334 31.4136 40.5334C32.5392 40.5334 33.4475 41.442 33.4475 42.5676C33.4475 43.6917 32.5392 44.6019 31.4136 44.6019Z" fill="white"/>
</mask>
<g mask="url(#mask3_693_50)">
<path d="M12.7988 13.0703V48.1824H48.347V13.0703H12.7988Z" fill="url(#paint1_linear_693_50)"/>
</g>
</g>
<defs>
<linearGradient id="paint0_linear_693_50" x1="1.82065" y1="1.60998" x2="37.3279" y2="36.7579" gradientUnits="userSpaceOnUse">
<stop stop-color="#387EB8"/>
<stop offset="0.125" stop-color="#387EB8"/>
<stop offset="0.140625" stop-color="#387EB8"/>
<stop offset="0.15625" stop-color="#387DB7"/>
<stop offset="0.171875" stop-color="#387DB6"/>
<stop offset="0.1875" stop-color="#387CB5"/>
<stop offset="0.203125" stop-color="#387CB4"/>
<stop offset="0.21875" stop-color="#387BB3"/>
<stop offset="0.234375" stop-color="#387BB2"/>
<stop offset="0.25" stop-color="#387AB1"/>
<stop offset="0.265625" stop-color="#387AB1"/>
<stop offset="0.28125" stop-color="#3879B0"/>
<stop offset="0.296875" stop-color="#3879AF"/>
<stop offset="0.3125" stop-color="#3878AE"/>
<stop offset="0.328125" stop-color="#3778AD"/>
<stop offset="0.34375" stop-color="#3777AC"/>
<stop offset="0.359375" stop-color="#3777AB"/>
<stop offset="0.375" stop-color="#3776AB"/>
<stop offset="0.390625" stop-color="#3776AA"/>
<stop offset="0.40625" stop-color="#3775A9"/>
<stop offset="0.421875" stop-color="#3775A8"/>
<stop offset="0.4375" stop-color="#3774A7"/>
<stop offset="0.453125" stop-color="#3774A6"/>
<stop offset="0.46875" stop-color="#3773A5"/>
<stop offset="0.484375" stop-color="#3773A4"/>
<stop offset="0.494335" stop-color="#3772A4"/>
<stop offset="0.5" stop-color="#3772A3"/>
<stop offset="0.505665" stop-color="#3772A3"/>
<stop offset="0.515625" stop-color="#3771A2"/>
<stop offset="0.53125" stop-color="#3771A2"/>
<stop offset="0.546875" stop-color="#3771A1"/>
<stop offset="0.5625" stop-color="#3770A0"/>
<stop offset="0.578125" stop-color="#37709F"/>
<stop offset="0.59375" stop-color="#376F9E"/>
<stop offset="0.609375" stop-color="#376F9D"/>
<stop offset="0.625" stop-color="#376E9D"/>
<stop offset="0.640625" stop-color="#366E9C"/>
<stop offset="0.65625" stop-color="#366D9B"/>
<stop offset="0.671875" stop-color="#366D9A"/>
<stop offset="0.6875" stop-color="#366C99"/>
<stop offset="0.703125" stop-color="#366C98"/>
<stop offset="0.71875" stop-color="#366B97"/>
<stop offset="0.734375" stop-color="#366B97"/>
<stop offset="0.75" stop-color="#366A96"/>
<stop offset="0.765625" stop-color="#366A95"/>
<stop offset="0.78125" stop-color="#366994"/>
<stop offset="0.8125" stop-color="#366994"/>
<stop offset="0.875" stop-color="#366994"/>
<stop offset="1" stop-color="#366994"/>
</linearGradient>
<linearGradient id="paint1_linear_693_50" x1="12.6085" y1="13.2716" x2="48.9111" y2="47.5856" gradientUnits="userSpaceOnUse">
<stop stop-color="#FFE052"/>
<stop offset="0.125" stop-color="#FFE052"/>
<stop offset="0.1875" stop-color="#FFE052"/>
<stop offset="0.21875" stop-color="#FFE052"/>
<stop offset="0.234375" stop-color="#FFDF51"/>
<stop offset="0.25" stop-color="#FFDF51"/>
<stop offset="0.265625" stop-color="#FFDE50"/>
<stop offset="0.28125" stop-color="#FFDD4F"/>
<stop offset="0.296875" stop-color="#FFDD4E"/>
<stop offset="0.3125" stop-color="#FFDC4E"/>
<stop offset="0.328125" stop-color="#FFDB4D"/>
<stop offset="0.34375" stop-color="#FFDB4C"/>
<stop offset="0.359375" stop-color="#FFDA4B"/>
<stop offset="0.375" stop-color="#FFD94B"/>
<stop offset="0.390625" stop-color="#FFD94A"/>
<stop offset="0.40625" stop-color="#FFD849"/>
<stop offset="0.421875" stop-color="#FFD748"/>
<stop offset="0.4375" stop-color="#FFD748"/>
<stop offset="0.453125" stop-color="#FFD647"/>
<stop offset="0.46875" stop-color="#FFD546"/>
<stop offset="0.482837" stop-color="#FFD545"/>
<stop offset="0.484375" stop-color="#FFD445"/>
<stop offset="0.5" stop-color="#FFD445"/>
<stop offset="0.515625" stop-color="#FFD444"/>
<stop offset="0.517163" stop-color="#FFD343"/>
<stop offset="0.53125" stop-color="#FFD343"/>
<stop offset="0.546875" stop-color="#FFD242"/>
<stop offset="0.5625" stop-color="#FFD242"/>
<stop offset="0.578125" stop-color="#FFD141"/>
<stop offset="0.59375" stop-color="#FFD040"/>
<stop offset="0.609375" stop-color="#FFD03F"/>
<stop offset="0.625" stop-color="#FFCF3F"/>
<stop offset="0.640625" stop-color="#FFCE3E"/>
<stop offset="0.65625" stop-color="#FFCE3D"/>
<stop offset="0.671875" stop-color="#FFCD3C"/>
<stop offset="0.6875" stop-color="#FFCC3C"/>
<stop offset="0.703125" stop-color="#FFCC3B"/>
<stop offset="0.71875" stop-color="#FFCB3A"/>
<stop offset="0.734375" stop-color="#FFCA39"/>
<stop offset="0.75" stop-color="#FFCA39"/>
<stop offset="0.765625" stop-color="#FFC938"/>
<stop offset="0.78125" stop-color="#FFC837"/>
<stop offset="0.796875" stop-color="#FFC836"/>
<stop offset="0.8125" stop-color="#FFC735"/>
<stop offset="0.828125" stop-color="#FFC635"/>
<stop offset="0.84375" stop-color="#FFC634"/>
<stop offset="0.859375" stop-color="#FFC533"/>
<stop offset="0.875" stop-color="#FFC432"/>
<stop offset="0.890625" stop-color="#FFC432"/>
<stop offset="0.90625" stop-color="#FFC331"/>
<stop offset="0.9375" stop-color="#FFC331"/>
<stop offset="1" stop-color="#FFC331"/>
</linearGradient>
</defs>
</svg>
