<svg width="50" height="50" viewBox="0 0 50 50" fill="none" xmlns="http://www.w3.org/2000/svg">
<path d="M26.2031 24.9997C26.2031 25.0214 26.2026 25.0432 26.2015 25.0649C26.2004 25.0867 26.1988 25.1084 26.1967 25.13C26.1945 25.1517 26.1919 25.1733 26.1886 25.1948C26.1855 25.2163 26.1817 25.2378 26.1774 25.2591C26.1731 25.2805 26.1684 25.3017 26.1631 25.3228C26.1577 25.3439 26.1519 25.3649 26.1455 25.3857C26.1392 25.4065 26.1323 25.4272 26.125 25.4477C26.1175 25.4682 26.1098 25.4885 26.1014 25.5086C26.093 25.5287 26.0841 25.5485 26.0748 25.5683C26.0654 25.5879 26.0556 25.6073 26.0452 25.6266C26.035 25.6457 26.0242 25.6647 26.0129 25.6833C26.0016 25.702 25.99 25.7204 25.9778 25.7384C25.9657 25.7566 25.9531 25.7743 25.94 25.7918C25.927 25.8093 25.9136 25.8265 25.8996 25.8433C25.8858 25.8601 25.8715 25.8766 25.8568 25.8927C25.842 25.9089 25.8271 25.9246 25.8115 25.94C25.7961 25.9554 25.7802 25.9704 25.764 25.985C25.7479 25.9996 25.7313 26.0138 25.7143 26.0276C25.6975 26.0414 25.6802 26.0548 25.6626 26.0678C25.645 26.0807 25.6271 26.0933 25.6089 26.1053C25.5908 26.1175 25.5723 26.129 25.5535 26.1403C25.5347 26.1515 25.5157 26.1621 25.4964 26.1724C25.4772 26.1827 25.4576 26.1925 25.4378 26.2018C25.418 26.2111 25.398 26.2199 25.3778 26.2283C25.3576 26.2366 25.3372 26.2444 25.3166 26.2517C25.296 26.2591 25.2752 26.2659 25.2543 26.2722C25.2334 26.2785 25.2123 26.2843 25.191 26.2896C25.1698 26.2949 25.1485 26.2996 25.127 26.3039C25.1055 26.3081 25.084 26.3119 25.0624 26.3151C25.0407 26.3183 25.019 26.3209 24.9972 26.323C24.9755 26.3252 24.9537 26.3268 24.9318 26.3279C24.9099 26.3289 24.8881 26.3295 24.8662 26.3295C24.8443 26.3295 24.8224 26.3289 24.8006 26.3279C24.7788 26.3268 24.7569 26.3252 24.7351 26.323C24.7134 26.3209 24.6917 26.3183 24.67 26.3151C24.6484 26.3119 24.6268 26.3081 24.6054 26.3039C24.5839 26.2996 24.5626 26.2949 24.5414 26.2896C24.5201 26.2843 24.4991 26.2785 24.4781 26.2722C24.4572 26.2659 24.4364 26.2591 24.4158 26.2517C24.3952 26.2444 24.3748 26.2366 24.3546 26.2283C24.3344 26.2199 24.3144 26.2111 24.2946 26.2018C24.2748 26.1925 24.2553 26.1827 24.236 26.1724C24.2167 26.1621 24.1977 26.1515 24.1789 26.1403C24.1601 26.129 24.1416 26.1175 24.1234 26.1053C24.1053 26.0933 24.0874 26.0807 24.0698 26.0678C24.0522 26.0548 24.035 26.0414 24.0181 26.0276C24.0011 26.0138 23.9846 25.9996 23.9684 25.985C23.9522 25.9704 23.9363 25.9554 23.9208 25.94C23.9054 25.9246 23.8903 25.9089 23.8756 25.8927C23.8609 25.8766 23.8467 25.8601 23.8328 25.8433C23.8189 25.8265 23.8054 25.8093 23.7924 25.7918C23.7794 25.7743 23.7668 25.7566 23.7546 25.7384C23.7424 25.7204 23.7307 25.702 23.7195 25.6833C23.7082 25.6647 23.6975 25.6457 23.6872 25.6266C23.6768 25.6073 23.667 25.5879 23.6576 25.5683C23.6483 25.5485 23.6394 25.5287 23.631 25.5086C23.6227 25.4885 23.6148 25.4682 23.6074 25.4477C23.6 25.4272 23.5932 25.4065 23.5869 25.3857C23.5805 25.3649 23.5746 25.3439 23.5694 25.3228C23.564 25.3017 23.5592 25.2805 23.555 25.2591C23.5507 25.2378 23.547 25.2163 23.5438 25.1948C23.5406 25.1733 23.5379 25.1517 23.5357 25.13C23.5336 25.1084 23.532 25.0867 23.5309 25.0649C23.5298 25.0432 23.5293 25.0214 23.5293 24.9997C23.5293 24.9779 23.5298 24.9562 23.5309 24.9344C23.532 24.9127 23.5336 24.891 23.5357 24.8694C23.5379 24.8477 23.5406 24.8261 23.5438 24.8045C23.547 24.7831 23.5507 24.7616 23.555 24.7403C23.5592 24.7189 23.564 24.6977 23.5694 24.6766C23.5746 24.6555 23.5805 24.6345 23.5869 24.6137C23.5932 24.5928 23.6 24.5722 23.6074 24.5517C23.6148 24.5312 23.6227 24.5109 23.631 24.4908C23.6394 24.4707 23.6483 24.4508 23.6576 24.4311C23.667 24.4115 23.6768 24.392 23.6872 24.3728C23.6975 24.3536 23.7082 24.3347 23.7195 24.316C23.7307 24.2974 23.7424 24.279 23.7546 24.2609C23.7668 24.2428 23.7794 24.225 23.7924 24.2075C23.8054 24.1901 23.8189 24.1729 23.8328 24.1561C23.8467 24.1393 23.8609 24.1228 23.8756 24.1067C23.8903 24.0905 23.9054 24.0748 23.9208 24.0594C23.9363 24.044 23.9522 24.029 23.9684 24.0144C23.9846 23.9998 24.0011 23.9855 24.0181 23.9717C24.035 23.9579 24.0522 23.9445 24.0698 23.9316C24.0874 23.9186 24.1053 23.9061 24.1234 23.894C24.1416 23.8819 24.1601 23.8703 24.1789 23.8591C24.1977 23.8479 24.2167 23.8372 24.236 23.8269C24.2553 23.8167 24.2748 23.8069 24.2946 23.7976C24.3144 23.7883 24.3344 23.7795 24.3546 23.7711C24.3748 23.7628 24.3952 23.755 24.4158 23.7476C24.4364 23.7403 24.4572 23.7335 24.4781 23.7272C24.4991 23.7208 24.5201 23.7151 24.5414 23.7098C24.5626 23.7045 24.5839 23.6997 24.6054 23.6955C24.6268 23.6912 24.6484 23.6875 24.67 23.6843C24.6917 23.6811 24.7134 23.6784 24.7351 23.6763C24.7569 23.6742 24.7788 23.6726 24.8006 23.6715C24.8224 23.6704 24.8443 23.6699 24.8662 23.6699C24.8881 23.6699 24.9099 23.6704 24.9318 23.6715C24.9537 23.6726 24.9755 23.6742 24.9972 23.6763C25.019 23.6784 25.0407 23.6811 25.0624 23.6843C25.084 23.6875 25.1055 23.6912 25.127 23.6955C25.1485 23.6997 25.1698 23.7045 25.191 23.7098C25.2123 23.7151 25.2334 23.7208 25.2543 23.7272C25.2752 23.7335 25.296 23.7403 25.3166 23.7476C25.3372 23.755 25.3576 23.7628 25.3778 23.7711C25.398 23.7795 25.418 23.7883 25.4378 23.7976C25.4576 23.8069 25.4772 23.8167 25.4964 23.8269C25.5157 23.8372 25.5347 23.8479 25.5535 23.8591C25.5723 23.8703 25.5908 23.8819 25.6089 23.894C25.6271 23.9061 25.645 23.9186 25.6626 23.9316C25.6802 23.9445 25.6975 23.9579 25.7143 23.9717C25.7313 23.9855 25.7479 23.9998 25.764 24.0144C25.7802 24.029 25.7961 24.044 25.8115 24.0594C25.8271 24.0748 25.842 24.0905 25.8568 24.1067C25.8715 24.1228 25.8858 24.1393 25.8996 24.1561C25.9136 24.1729 25.927 24.1901 25.94 24.2075C25.9531 24.225 25.9657 24.2428 25.9778 24.2609C25.99 24.279 26.0016 24.2974 26.0129 24.3161C26.0242 24.3347 26.035 24.3536 26.0452 24.3728C26.0556 24.392 26.0654 24.4115 26.0748 24.4311C26.0841 24.4508 26.093 24.4707 26.1014 24.4908C26.1098 24.5109 26.1175 24.5312 26.125 24.5517C26.1323 24.5722 26.1392 24.5928 26.1455 24.6137C26.1519 24.6345 26.1577 24.6555 26.1631 24.6766C26.1684 24.6977 26.1731 24.7189 26.1774 24.7403C26.1817 24.7616 26.1855 24.7831 26.1886 24.8045C26.1919 24.8261 26.1945 24.8477 26.1967 24.8694C26.1988 24.891 26.2004 24.9127 26.2015 24.9344C26.2026 24.9562 26.2031 24.9779 26.2031 24.9997Z" fill="#00D8FF"/>
<mask id="mask0_693_37" style="mask-type:luminance" maskUnits="userSpaceOnUse" x="1" y="5" width="48" height="40">
<path d="M1.63623 5.24023H48.4253V44.7679H1.63623V5.24023Z" fill="white"/>
</mask>
<g mask="url(#mask0_693_37)">
<path d="M25.0313 16.5C30.641 16.5 35.8522 17.3008 39.7817 18.6467C44.5161 20.2682 47.4268 22.7261 47.4268 24.9517C47.4268 27.271 44.3421 29.8822 39.2579 31.558C35.4145 32.825 30.3565 33.4861 25.0313 33.4861C19.5717 33.4861 14.4018 32.8657 10.5148 31.5441C5.59724 29.8718 2.63525 27.2268 2.63525 24.9517C2.63525 22.7442 5.41446 20.3052 10.0822 18.6861C14.0261 17.3181 19.3659 16.5 25.0308 16.5H25.0313Z" stroke="#00D8FF" stroke-width="2"/>
</g>
<mask id="mask1_693_37" style="mask-type:luminance" maskUnits="userSpaceOnUse" x="1" y="3" width="48" height="44">
<path d="M1.63623 3.19531H48.4254V46.7835H1.63623V3.19531Z" fill="white"/>
</mask>
<g mask="url(#mask1_693_37)">
<path d="M17.6364 20.7491C20.4388 15.9145 23.7395 11.8235 26.8741 9.10902C30.6511 5.839 34.245 4.55828 36.1829 5.67001C38.2024 6.82862 38.9348 10.792 37.8543 16.011C37.038 19.9565 35.0864 24.6458 32.426 29.2354C29.6984 33.941 26.5753 38.0867 23.4831 40.7755C19.5703 44.1782 15.7875 45.4098 13.807 44.2731C11.8848 43.171 11.1498 39.5567 12.0718 34.7253C12.851 30.6428 14.8062 25.6321 17.6352 20.75L17.6364 20.7491Z" stroke="#00D8FF" stroke-width="2"/>
<path d="M17.6432 29.2471C14.8332 24.418 12.9193 19.5294 12.1206 15.4717C11.1592 10.5829 11.839 6.84511 13.775 5.7298C15.7925 4.5678 19.6095 5.91573 23.6142 9.45347C26.6421 12.1283 29.7512 16.1517 32.4191 20.7366C35.1544 25.4375 37.2047 30.2 38.002 34.208C39.0113 39.2801 38.1945 43.1551 36.2154 44.2952C34.295 45.4013 30.7811 44.2306 27.0341 41.0223C23.8683 38.312 20.4811 34.1242 17.6429 29.2463L17.6432 29.2471Z" stroke="#00D8FF" stroke-width="2"/>
</g>
</svg>
