<svg width="187" height="187" viewBox="0 0 187 187" fill="none" xmlns="http://www.w3.org/2000/svg">
<mask id="mask0_201_489" style="mask-type:luminance" maskUnits="userSpaceOnUse" x="2" y="116" width="150" height="24">
<path d="M2.86304 116.272H151.354V139.79H2.86304V116.272Z" fill="white"/>
</mask>
<g mask="url(#mask0_201_489)">
<path d="M84.2004 121.606H74.8696V122.576C77.786 122.576 78.2708 123.182 78.2708 126.855V133.467C78.2708 137.165 77.786 137.844 74.8696 137.844C72.6338 137.553 71.0787 136.288 69.0367 134.051L66.6071 131.425C69.814 130.819 71.5654 128.799 71.5654 126.564C71.5654 123.744 69.1358 121.507 64.5671 121.507H55.4301V122.476C58.3466 122.476 58.8309 123.083 58.8309 126.756V133.368C58.8309 137.066 58.3466 137.745 55.4301 137.745V138.714H65.7345V137.745C62.8181 137.745 62.3333 137.063 62.3333 133.368V131.522H63.2078L68.9439 138.714H84.1076C91.5927 138.714 94.7997 134.728 94.7997 130.061C94.8968 125.491 91.6894 121.602 84.2047 121.602L84.2004 121.606ZM62.428 130.065V123.182H64.569C66.902 123.182 67.9703 124.834 67.9703 126.683C67.9703 128.532 66.9 130.086 64.569 130.086L62.428 130.065ZM84.3966 137.258H84.0065C82.1604 137.258 81.866 136.773 81.866 134.437V123.163H84.3903C89.8335 123.163 90.8047 127.15 90.8047 130.164C90.8047 133.373 89.7344 137.262 84.3903 137.262L84.3966 137.258ZM26.4617 132.031L30.0563 121.432C31.1271 118.321 30.6627 117.446 27.3343 117.446V116.375H37.1499V117.446C33.8453 117.446 33.0699 118.224 31.8034 122.016L25.8719 139.789H25.0941L19.7481 123.552L14.4001 139.789H13.7194L7.98326 121.996C6.71913 118.204 5.96367 117.426 2.92822 117.426V116.355H14.4001V117.426C11.2898 117.426 10.512 118.106 11.5803 121.412L15.0807 132.011L20.3315 116.353H21.3012L26.4617 132.031ZM44.1502 139.617C38.414 139.617 33.7486 135.435 33.7486 130.283C33.7486 125.226 38.3941 120.949 44.1502 120.949C49.9063 120.949 54.5513 125.132 54.5513 130.283C54.5513 135.435 49.9063 139.617 44.1502 139.617ZM44.1502 122.505C39.3876 122.505 37.7353 126.784 37.7353 130.187C37.7353 133.589 39.3876 137.868 44.1502 137.868C49.0094 137.868 50.6637 133.589 50.6637 130.187C50.6637 126.881 49.0114 122.505 44.1502 122.505V122.505ZM107.724 137.866V138.936H95.7674V137.866C99.2673 137.866 99.8469 136.991 99.8469 131.74V123.376C99.8469 118.123 99.2411 117.347 95.7674 117.347V116.276H106.557C111.903 116.276 114.918 118.999 114.918 122.693C114.918 126.289 111.905 129.11 106.557 129.11H103.64V131.833C103.64 136.985 104.246 137.862 107.72 137.862L107.724 137.866ZM106.557 118.224H103.64V127.267H106.557C109.473 127.267 110.834 125.247 110.834 122.794C110.834 120.341 109.473 118.224 106.557 118.224ZM150.592 134.072L150.301 135.041C149.816 136.791 149.23 137.375 145.539 137.375H144.858C142.135 137.375 141.65 136.769 141.65 133.096V130.665C145.73 130.665 146.025 131.055 146.025 133.776H146.995V125.998H146.025C146.025 128.722 145.734 129.11 141.65 129.11V123.283H144.47C148.166 123.283 148.748 123.889 149.233 125.616L149.523 126.586H150.398L150.008 121.725H134.747V122.695C137.664 122.695 138.149 123.301 138.149 126.974V133.586C138.149 136.989 137.758 137.866 135.426 137.963C133.285 137.672 131.73 136.407 129.69 134.17L127.26 131.544C130.468 130.938 132.219 128.918 132.219 126.683C132.219 123.863 129.789 121.626 125.22 121.626H116.083V122.596C119 122.596 119.485 123.202 119.485 126.875V133.488C119.485 137.185 119 137.864 116.083 137.864V138.833H126.388V137.864C123.471 137.864 122.987 137.183 122.987 133.488V131.641H123.861L129.597 138.833H150.982L151.272 133.973H150.592V134.072ZM123.084 130.086V123.182H125.225C127.557 123.182 128.625 124.834 128.625 126.683C128.625 128.532 127.555 130.086 125.225 130.086H123.084Z" fill="#00749A"/>
</g>
<path d="M161.186 139.617C159.146 139.617 157.298 138.546 156.541 137.867C156.25 138.158 155.86 138.938 155.666 139.617H154.697V132.424H155.767C156.157 135.826 158.587 137.869 161.6 137.869C163.252 137.869 164.613 136.9 164.613 135.343C164.613 133.982 163.446 132.913 161.309 131.941L158.393 130.579C156.353 129.61 154.798 127.856 154.798 125.62C154.798 123.094 157.13 120.973 160.337 120.973C162.086 120.973 163.545 121.559 164.417 122.334C164.708 122.141 164.902 121.557 165.098 120.973H166.067V127.098H164.997C164.607 124.668 163.248 122.625 160.525 122.625C159.067 122.625 157.706 123.5 157.706 124.767C157.706 126.129 158.777 126.807 161.301 127.975L164.121 129.337C166.645 130.505 167.621 132.448 167.621 133.984C167.524 137.289 164.704 139.621 161.206 139.621L161.186 139.617Z" fill="#00749A"/>
<path d="M177.227 139.617C175.187 139.617 173.338 138.546 172.581 137.867C172.29 138.158 171.9 138.938 171.707 139.617H170.737V132.424H171.808C172.197 135.826 174.627 137.869 177.64 137.869C179.293 137.869 180.654 136.9 180.654 135.343C180.654 133.982 179.487 132.913 177.349 131.941L174.433 130.579C172.393 129.61 170.838 127.856 170.838 125.62C170.838 123.094 173.171 120.973 176.378 120.973C178.127 120.973 179.585 121.559 180.458 122.334C180.749 122.141 180.943 121.557 181.138 120.973H182.108V127.098H181.037C180.648 124.668 179.288 122.625 176.566 122.625C175.108 122.625 173.747 123.5 173.747 124.767C173.747 126.129 174.817 126.807 177.342 127.975L180.161 129.337C182.686 130.505 183.661 132.448 183.661 133.984C183.564 137.289 180.745 139.621 177.246 139.621L177.227 139.617Z" fill="#00749A"/>
<mask id="mask1_201_489" style="mask-type:luminance" maskUnits="userSpaceOnUse" x="62" y="47" width="63" height="63">
<path d="M62.1802 47.2549H124.366V109.429H62.1802V47.2549Z" fill="white"/>
</mask>
<g mask="url(#mask1_201_489)">
<path d="M66.6351 78.3368C66.6351 88.9118 72.7084 98.0235 81.5927 102.298L68.9981 67.5383C67.5358 70.9124 66.6351 74.5124 66.6351 78.3393V78.3368ZM111.285 76.9833C111.285 73.7205 110.046 71.3589 109.034 69.6697C107.685 67.4188 106.449 65.6188 106.449 63.3704C106.449 60.8951 108.362 58.6424 110.947 58.6424H111.285C106.558 54.2626 100.261 51.6722 93.309 51.6722C83.9743 51.7854 75.8794 56.5091 71.042 63.7095H72.7283C75.5398 63.7095 79.8136 63.3724 79.8136 63.3724C81.276 63.2592 81.3887 65.3968 80.0153 65.6227C80.0153 65.6227 78.5534 65.8248 76.9798 65.8248L86.6745 94.6252L92.5214 77.1893L88.3608 65.8268L85.5493 65.6252C84.087 65.512 84.3114 63.3743 85.6625 63.3743C85.6625 63.3743 90.0495 63.7115 92.6346 63.7115C95.4461 63.7115 99.7195 63.3743 99.7195 63.3743C101.182 63.2611 101.295 65.3988 99.9216 65.6252C99.9216 65.6252 98.4592 65.8268 96.8861 65.8268L106.58 94.5163L109.279 85.6267C110.404 81.913 111.303 79.3269 111.303 76.9634L111.285 76.9833ZM93.7394 80.7009L85.7553 103.874C88.1184 104.549 90.7039 105 93.289 105C96.4396 105 99.3624 104.438 102.176 103.537C102.063 103.424 102.063 103.335 101.974 103.2L93.7394 80.7009ZM116.683 65.629L116.885 68.3283C116.885 71.0276 116.435 74.0659 114.861 77.8904L106.782 101.401C114.655 96.789 120.052 88.239 120.052 78.3393C119.939 73.7268 118.703 69.4496 116.679 65.6271L116.683 65.629ZM93.289 47.2861C76.1942 47.2861 62.2505 61.2367 62.2505 78.3349C62.2505 95.4336 76.1942 109.386 93.289 109.386C110.383 109.386 124.328 95.4355 124.328 78.3368C124.328 61.2386 110.383 47.2861 93.289 47.2861ZM93.289 108.034C76.9818 108.034 63.7123 94.7607 63.7123 78.3349C63.7123 62.0023 76.9818 48.749 93.289 48.749C109.596 48.749 122.865 62.0227 122.865 78.3349C122.865 94.7607 109.596 108.034 93.289 108.034Z" fill="#00749A"/>
</g>
</svg>
