<svg width="50" height="50" viewBox="0 0 50 50" fill="none" xmlns="http://www.w3.org/2000/svg">
<mask id="mask0_693_2" style="mask-type:luminance" maskUnits="userSpaceOnUse" x="0" y="31" width="41" height="7">
<path d="M0.765625 31.0879H40.4691V37.3761H0.765625V31.0879Z" fill="white"/>
</mask>
<g mask="url(#mask0_693_2)">
<path d="M22.5137 32.515H20.0189V32.7743C20.7987 32.7743 20.9283 32.9364 20.9283 33.9185V35.6864C20.9283 36.6751 20.7987 36.8567 20.0189 36.8567C19.4211 36.7789 19.0053 36.4406 18.4593 35.8425L17.8096 35.1404C18.6671 34.9783 19.1354 34.4382 19.1354 33.8406C19.1354 33.0866 18.4858 32.4885 17.2642 32.4885H14.8211V32.7476C15.601 32.7476 15.7304 32.9099 15.7304 33.892V35.6599C15.7304 36.6487 15.601 36.8302 14.8211 36.8302V37.0893H17.5763V36.8302C16.7965 36.8302 16.6669 36.6479 16.6669 35.6599V35.1663H16.9007L18.4345 37.0893H22.4889C24.4903 37.0893 25.3478 36.0235 25.3478 34.7757C25.3737 33.5537 24.5161 32.5139 22.5149 32.5139L22.5137 32.515ZM16.6922 34.7767V32.9364H17.2647C17.8885 32.9364 18.1741 33.3781 18.1741 33.8725C18.1741 34.3668 17.888 34.7824 17.2647 34.7824L16.6922 34.7767ZM22.5662 36.7H22.4619C21.9683 36.7 21.8896 36.5703 21.8896 35.9457V32.9313H22.5645C24.0199 32.9313 24.2796 33.9973 24.2796 34.8032C24.2796 35.6612 23.9934 36.7011 22.5645 36.7011L22.5662 36.7ZM7.07558 35.3024L8.0367 32.4685C8.32301 31.6366 8.19884 31.4027 7.30889 31.4027V31.1163H9.93338V31.4027C9.0498 31.4027 8.84248 31.6107 8.50384 32.6246L6.91788 37.3767H6.70991L5.2805 33.0353L3.85055 37.3767H3.66855L2.13482 32.6193C1.79682 31.6054 1.59482 31.3973 0.783203 31.3973V31.111H3.85055V31.3973C3.01892 31.3973 2.81095 31.5791 3.09659 32.4631L4.03253 35.2971L5.43649 31.1104H5.69576L7.07558 35.3024ZM11.8051 37.3308C10.2714 37.3308 9.02395 36.2126 9.02395 34.835C9.02395 33.4829 10.2661 32.3393 11.8051 32.3393C13.3442 32.3393 14.5862 33.4578 14.5862 34.835C14.5862 36.2126 13.3442 37.3308 11.8051 37.3308ZM11.8051 32.7554C10.5317 32.7554 10.0899 33.8995 10.0899 34.8094C10.0899 35.719 10.5317 36.8631 11.8051 36.8631C13.1044 36.8631 13.5467 35.719 13.5467 34.8094C13.5467 33.9254 13.1049 32.7554 11.8051 32.7554ZM28.8035 36.8626V37.1487H25.6065V36.8626C26.5423 36.8626 26.6973 36.6286 26.6973 35.2246V32.9882C26.6973 31.5837 26.5353 31.3762 25.6065 31.3762V31.0898H28.4914C29.9208 31.0898 30.727 31.8179 30.727 32.8056C30.727 33.7671 29.9214 34.5214 28.4914 34.5214H27.7115V35.2495C27.7115 36.627 27.8735 36.8615 28.8024 36.8615L28.8035 36.8626ZM28.4914 31.6107H27.7115V34.0286H28.4914C29.2711 34.0286 29.635 33.4885 29.635 32.8326C29.635 32.1767 29.2711 31.6107 28.4914 31.6107ZM40.2655 35.8481L40.1877 36.1072C40.058 36.5751 39.9013 36.7313 38.9144 36.7313H38.7323C38.0043 36.7313 37.8746 36.5693 37.8746 35.5872V34.9372C38.9655 34.9372 39.0444 35.0414 39.0444 35.769H39.3037V33.6893H39.0444C39.0444 34.4177 38.9666 34.5214 37.8746 34.5214V32.9634H38.6286C39.6168 32.9634 39.7724 33.1254 39.9021 33.5872L39.9797 33.8465H40.2136L40.1093 32.5468H36.0289V32.8062C36.8088 32.8062 36.9385 32.9682 36.9385 33.9503V35.7182C36.9385 36.6281 36.8339 36.8626 36.2104 36.8885C35.638 36.8107 35.2222 36.4725 34.6767 35.8743L34.027 35.1722C34.8847 35.0102 35.3529 34.4701 35.3529 33.8725C35.3529 33.1185 34.7032 32.5203 33.4815 32.5203H31.0385V32.7797C31.8184 32.7797 31.9481 32.9417 31.9481 33.9238V35.692C31.9481 36.6805 31.8184 36.862 31.0385 36.862V37.1211H33.7938V36.862C33.0139 36.862 32.8845 36.68 32.8845 35.692V35.1981H33.1182L34.6519 37.1211H40.3698L40.4473 35.8217H40.2655V35.8481ZM32.9104 34.7824V32.9364H33.4829C34.1064 32.9364 34.392 33.3781 34.392 33.8725C34.392 34.3668 34.1059 34.7824 33.4829 34.7824H32.9104Z" fill="#00749A"/>
</g>
<path d="M43.0978 37.3307C42.5524 37.3307 42.0582 37.0444 41.8558 36.8628C41.778 36.9406 41.6738 37.1492 41.6219 37.3307H41.3628V35.4075H41.6489C41.7532 36.3171 42.4029 36.8634 43.2085 36.8634C43.6502 36.8634 44.0141 36.6043 44.0141 36.1879C44.0141 35.824 43.7021 35.5382 43.1307 35.2783L42.351 34.9142C41.8056 34.6551 41.3898 34.1861 41.3898 33.5882C41.3898 32.9128 42.0133 32.3457 42.8708 32.3457C43.3385 32.3457 43.7286 32.5024 43.9617 32.7096C44.0395 32.658 44.0914 32.5019 44.1438 32.3457H44.4029V33.9834H44.1168C44.0125 33.3337 43.6492 32.7874 42.9211 32.7874C42.5312 32.7874 42.1673 33.0214 42.1673 33.3601C42.1673 33.7243 42.4537 33.9056 43.1286 34.2179L43.8826 34.5821C44.5574 34.8944 44.8184 35.4139 44.8184 35.8246C44.7925 36.7083 44.0385 37.3318 43.1032 37.3318L43.0978 37.3307Z" fill="#00749A"/>
<path d="M47.3867 37.3307C46.8412 37.3307 46.3468 37.0444 46.1444 36.8628C46.0666 36.9406 45.9623 37.1492 45.9107 37.3307H45.6514V35.4075H45.9377C46.0417 36.3171 46.6915 36.8634 47.4971 36.8634C47.9391 36.8634 48.303 36.6043 48.303 36.1879C48.303 35.824 47.9909 35.5382 47.4193 35.2783L46.6396 34.9142C46.0941 34.6551 45.6784 34.1861 45.6784 33.5882C45.6784 32.9128 46.3022 32.3457 47.1597 32.3457C47.6273 32.3457 48.0171 32.5024 48.2506 32.7096C48.3284 32.658 48.3802 32.5019 48.4324 32.3457H48.6917V33.9834H48.4054C48.3014 33.3337 47.9377 32.7874 47.2099 32.7874C46.8201 32.7874 46.4562 33.0214 46.4562 33.3601C46.4562 33.7243 46.7423 33.9056 47.4174 34.2179L48.1712 34.5821C48.8463 34.8944 49.107 35.4139 49.107 35.8246C49.081 36.7083 48.3273 37.3318 47.3917 37.3318L47.3867 37.3307Z" fill="#00749A"/>
<mask id="mask1_693_2" style="mask-type:luminance" maskUnits="userSpaceOnUse" x="16" y="12" width="18" height="18">
<path d="M16.6255 12.6348H33.2527V29.2589H16.6255V12.6348Z" fill="white"/>
</mask>
<g mask="url(#mask1_693_2)">
<path d="M17.8164 20.9449C17.8164 23.7724 19.4403 26.2087 21.8158 27.3516L18.4482 18.0576C18.0572 18.9598 17.8164 19.9223 17.8164 20.9456V20.9449ZM29.7549 20.583C29.7549 19.7106 29.4236 19.0792 29.153 18.6275C28.7923 18.0257 28.4618 17.5444 28.4618 16.9432C28.4618 16.2813 28.9733 15.679 29.6645 15.679H29.7549C28.491 14.508 26.8073 13.8153 24.9485 13.8153C22.4525 13.8456 20.2881 15.1086 18.9947 17.0339H19.4456C20.1973 17.0339 21.3401 16.9437 21.3401 16.9437C21.7311 16.9135 21.7612 17.485 21.394 17.5454C21.394 17.5454 21.0031 17.5994 20.5824 17.5994L23.1745 25.3001L24.7379 20.6381L23.6254 17.6L22.8737 17.5461C22.4827 17.5158 22.5427 16.9442 22.9039 16.9442C22.9039 16.9442 24.0769 17.0344 24.7681 17.0344C25.5199 17.0344 26.6625 16.9442 26.6625 16.9442C27.0535 16.914 27.0837 17.4855 26.7165 17.5461C26.7165 17.5461 26.3255 17.6 25.9049 17.6L28.4969 25.271L29.2185 22.8941C29.5193 21.9011 29.7597 21.2096 29.7597 20.5777L29.7549 20.583ZM25.0635 21.577L22.9287 27.773C23.5606 27.9535 24.2519 28.0741 24.9431 28.0741C25.7855 28.0741 26.567 27.9238 27.3193 27.6829C27.2891 27.6527 27.2891 27.6289 27.2653 27.5928L25.0635 21.577ZM31.1982 17.5471L31.2522 18.2688C31.2522 18.9906 31.1319 19.803 30.711 20.8255L28.5509 27.1118C30.6559 25.8786 32.099 23.5926 32.099 20.9456C32.0688 19.7123 31.7383 18.5686 31.1971 17.5466L31.1982 17.5471ZM24.9431 12.6426C20.3723 12.6426 16.644 16.3727 16.644 20.9444C16.644 25.5162 20.3723 29.2468 24.9431 29.2468C29.5137 29.2468 33.2423 25.5167 33.2423 20.9449C33.2423 16.3732 29.5137 12.6426 24.9431 12.6426ZM24.9431 28.8853C20.5829 28.8853 17.0349 25.3363 17.0349 20.9444C17.0349 16.5774 20.5829 13.0337 24.9431 13.0337C29.3033 13.0337 32.8511 16.5828 32.8511 20.9444C32.8511 25.3363 29.3033 28.8853 24.9431 28.8853Z" fill="#00749A"/>
</g>
</svg>
